%TF.GenerationSoftware,KiCad,Pcbnew,9.0.3*%
%TF.CreationDate,2025-07-29T15:31:23+05:30*%
%TF.ProjectId,Solar PCB,536f6c61-7220-4504-9342-2e6b69636164,rev?*%
%TF.SameCoordinates,Original*%
%TF.FileFunction,Legend,Top*%
%TF.FilePolarity,Positive*%
%FSLAX46Y46*%
G04 Gerber Fmt 4.6, Leading zero omitted, Abs format (unit mm)*
G04 Created by KiCad (PCBNEW 9.0.3) date 2025-07-29 15:31:23*
%MOMM*%
%LPD*%
G01*
G04 APERTURE LIST*
%ADD10C,0.150000*%
%ADD11C,0.100000*%
%ADD12C,0.120000*%
%ADD13C,0.200000*%
%ADD14C,0.127000*%
G04 APERTURE END LIST*
D10*
X80473779Y-71751866D02*
X81235684Y-71751866D01*
X80854731Y-72132819D02*
X80854731Y-71370914D01*
X97872779Y-71243866D02*
X98634684Y-71243866D01*
X98253731Y-71624819D02*
X98253731Y-70862914D01*
D11*
X79806809Y-81467085D02*
X79730619Y-81428990D01*
X79730619Y-81428990D02*
X79654428Y-81352800D01*
X79654428Y-81352800D02*
X79540142Y-81238514D01*
X79540142Y-81238514D02*
X79463952Y-81200419D01*
X79463952Y-81200419D02*
X79387761Y-81200419D01*
X79425857Y-81390895D02*
X79349666Y-81352800D01*
X79349666Y-81352800D02*
X79273476Y-81276609D01*
X79273476Y-81276609D02*
X79235380Y-81124228D01*
X79235380Y-81124228D02*
X79235380Y-80857561D01*
X79235380Y-80857561D02*
X79273476Y-80705180D01*
X79273476Y-80705180D02*
X79349666Y-80628990D01*
X79349666Y-80628990D02*
X79425857Y-80590895D01*
X79425857Y-80590895D02*
X79578238Y-80590895D01*
X79578238Y-80590895D02*
X79654428Y-80628990D01*
X79654428Y-80628990D02*
X79730619Y-80705180D01*
X79730619Y-80705180D02*
X79768714Y-80857561D01*
X79768714Y-80857561D02*
X79768714Y-81124228D01*
X79768714Y-81124228D02*
X79730619Y-81276609D01*
X79730619Y-81276609D02*
X79654428Y-81352800D01*
X79654428Y-81352800D02*
X79578238Y-81390895D01*
X79578238Y-81390895D02*
X79425857Y-81390895D01*
X80530618Y-81390895D02*
X80073475Y-81390895D01*
X80302047Y-81390895D02*
X80302047Y-80590895D01*
X80302047Y-80590895D02*
X80225856Y-80705180D01*
X80225856Y-80705180D02*
X80149666Y-80781371D01*
X80149666Y-80781371D02*
X80073475Y-80819466D01*
X86353667Y-81009895D02*
X86087000Y-80628942D01*
X85896524Y-81009895D02*
X85896524Y-80209895D01*
X85896524Y-80209895D02*
X86201286Y-80209895D01*
X86201286Y-80209895D02*
X86277476Y-80247990D01*
X86277476Y-80247990D02*
X86315571Y-80286085D01*
X86315571Y-80286085D02*
X86353667Y-80362276D01*
X86353667Y-80362276D02*
X86353667Y-80476561D01*
X86353667Y-80476561D02*
X86315571Y-80552752D01*
X86315571Y-80552752D02*
X86277476Y-80590847D01*
X86277476Y-80590847D02*
X86201286Y-80628942D01*
X86201286Y-80628942D02*
X85896524Y-80628942D01*
X87039381Y-80476561D02*
X87039381Y-81009895D01*
X86848905Y-80171800D02*
X86658428Y-80743228D01*
X86658428Y-80743228D02*
X87153667Y-80743228D01*
X91306667Y-80806704D02*
X91268571Y-80844800D01*
X91268571Y-80844800D02*
X91154286Y-80882895D01*
X91154286Y-80882895D02*
X91078095Y-80882895D01*
X91078095Y-80882895D02*
X90963809Y-80844800D01*
X90963809Y-80844800D02*
X90887619Y-80768609D01*
X90887619Y-80768609D02*
X90849524Y-80692419D01*
X90849524Y-80692419D02*
X90811428Y-80540038D01*
X90811428Y-80540038D02*
X90811428Y-80425752D01*
X90811428Y-80425752D02*
X90849524Y-80273371D01*
X90849524Y-80273371D02*
X90887619Y-80197180D01*
X90887619Y-80197180D02*
X90963809Y-80120990D01*
X90963809Y-80120990D02*
X91078095Y-80082895D01*
X91078095Y-80082895D02*
X91154286Y-80082895D01*
X91154286Y-80082895D02*
X91268571Y-80120990D01*
X91268571Y-80120990D02*
X91306667Y-80159085D01*
X92068571Y-80882895D02*
X91611428Y-80882895D01*
X91840000Y-80882895D02*
X91840000Y-80082895D01*
X91840000Y-80082895D02*
X91763809Y-80197180D01*
X91763809Y-80197180D02*
X91687619Y-80273371D01*
X91687619Y-80273371D02*
X91611428Y-80311466D01*
X85379524Y-72246895D02*
X85379524Y-71446895D01*
X85379524Y-71446895D02*
X85570000Y-71446895D01*
X85570000Y-71446895D02*
X85684286Y-71484990D01*
X85684286Y-71484990D02*
X85760476Y-71561180D01*
X85760476Y-71561180D02*
X85798571Y-71637371D01*
X85798571Y-71637371D02*
X85836667Y-71789752D01*
X85836667Y-71789752D02*
X85836667Y-71904038D01*
X85836667Y-71904038D02*
X85798571Y-72056419D01*
X85798571Y-72056419D02*
X85760476Y-72132609D01*
X85760476Y-72132609D02*
X85684286Y-72208800D01*
X85684286Y-72208800D02*
X85570000Y-72246895D01*
X85570000Y-72246895D02*
X85379524Y-72246895D01*
X86141428Y-71523085D02*
X86179524Y-71484990D01*
X86179524Y-71484990D02*
X86255714Y-71446895D01*
X86255714Y-71446895D02*
X86446190Y-71446895D01*
X86446190Y-71446895D02*
X86522381Y-71484990D01*
X86522381Y-71484990D02*
X86560476Y-71523085D01*
X86560476Y-71523085D02*
X86598571Y-71599276D01*
X86598571Y-71599276D02*
X86598571Y-71675466D01*
X86598571Y-71675466D02*
X86560476Y-71789752D01*
X86560476Y-71789752D02*
X86103333Y-72246895D01*
X86103333Y-72246895D02*
X86598571Y-72246895D01*
X92703667Y-85327895D02*
X92437000Y-84946942D01*
X92246524Y-85327895D02*
X92246524Y-84527895D01*
X92246524Y-84527895D02*
X92551286Y-84527895D01*
X92551286Y-84527895D02*
X92627476Y-84565990D01*
X92627476Y-84565990D02*
X92665571Y-84604085D01*
X92665571Y-84604085D02*
X92703667Y-84680276D01*
X92703667Y-84680276D02*
X92703667Y-84794561D01*
X92703667Y-84794561D02*
X92665571Y-84870752D01*
X92665571Y-84870752D02*
X92627476Y-84908847D01*
X92627476Y-84908847D02*
X92551286Y-84946942D01*
X92551286Y-84946942D02*
X92246524Y-84946942D01*
X93008428Y-84604085D02*
X93046524Y-84565990D01*
X93046524Y-84565990D02*
X93122714Y-84527895D01*
X93122714Y-84527895D02*
X93313190Y-84527895D01*
X93313190Y-84527895D02*
X93389381Y-84565990D01*
X93389381Y-84565990D02*
X93427476Y-84604085D01*
X93427476Y-84604085D02*
X93465571Y-84680276D01*
X93465571Y-84680276D02*
X93465571Y-84756466D01*
X93465571Y-84756466D02*
X93427476Y-84870752D01*
X93427476Y-84870752D02*
X92970333Y-85327895D01*
X92970333Y-85327895D02*
X93465571Y-85327895D01*
X101847666Y-80374895D02*
X101466714Y-80374895D01*
X101466714Y-80374895D02*
X101466714Y-79574895D01*
X102533380Y-80374895D02*
X102076237Y-80374895D01*
X102304809Y-80374895D02*
X102304809Y-79574895D01*
X102304809Y-79574895D02*
X102228618Y-79689180D01*
X102228618Y-79689180D02*
X102152428Y-79765371D01*
X102152428Y-79765371D02*
X102076237Y-79803466D01*
X77838333Y-72335895D02*
X77838333Y-72907323D01*
X77838333Y-72907323D02*
X77800238Y-73021609D01*
X77800238Y-73021609D02*
X77724047Y-73097800D01*
X77724047Y-73097800D02*
X77609762Y-73135895D01*
X77609762Y-73135895D02*
X77533571Y-73135895D01*
X78562143Y-72602561D02*
X78562143Y-73135895D01*
X78371667Y-72297800D02*
X78181190Y-72869228D01*
X78181190Y-72869228D02*
X78676429Y-72869228D01*
X100347167Y-81314704D02*
X100309071Y-81352800D01*
X100309071Y-81352800D02*
X100194786Y-81390895D01*
X100194786Y-81390895D02*
X100118595Y-81390895D01*
X100118595Y-81390895D02*
X100004309Y-81352800D01*
X100004309Y-81352800D02*
X99928119Y-81276609D01*
X99928119Y-81276609D02*
X99890024Y-81200419D01*
X99890024Y-81200419D02*
X99851928Y-81048038D01*
X99851928Y-81048038D02*
X99851928Y-80933752D01*
X99851928Y-80933752D02*
X99890024Y-80781371D01*
X99890024Y-80781371D02*
X99928119Y-80705180D01*
X99928119Y-80705180D02*
X100004309Y-80628990D01*
X100004309Y-80628990D02*
X100118595Y-80590895D01*
X100118595Y-80590895D02*
X100194786Y-80590895D01*
X100194786Y-80590895D02*
X100309071Y-80628990D01*
X100309071Y-80628990D02*
X100347167Y-80667085D01*
X100651928Y-80667085D02*
X100690024Y-80628990D01*
X100690024Y-80628990D02*
X100766214Y-80590895D01*
X100766214Y-80590895D02*
X100956690Y-80590895D01*
X100956690Y-80590895D02*
X101032881Y-80628990D01*
X101032881Y-80628990D02*
X101070976Y-80667085D01*
X101070976Y-80667085D02*
X101109071Y-80743276D01*
X101109071Y-80743276D02*
X101109071Y-80819466D01*
X101109071Y-80819466D02*
X101070976Y-80933752D01*
X101070976Y-80933752D02*
X100613833Y-81390895D01*
X100613833Y-81390895D02*
X101109071Y-81390895D01*
X81267333Y-76018895D02*
X81267333Y-76590323D01*
X81267333Y-76590323D02*
X81229238Y-76704609D01*
X81229238Y-76704609D02*
X81153047Y-76780800D01*
X81153047Y-76780800D02*
X81038762Y-76818895D01*
X81038762Y-76818895D02*
X80962571Y-76818895D01*
X81572095Y-76018895D02*
X82067333Y-76018895D01*
X82067333Y-76018895D02*
X81800667Y-76323657D01*
X81800667Y-76323657D02*
X81914952Y-76323657D01*
X81914952Y-76323657D02*
X81991143Y-76361752D01*
X81991143Y-76361752D02*
X82029238Y-76399847D01*
X82029238Y-76399847D02*
X82067333Y-76476038D01*
X82067333Y-76476038D02*
X82067333Y-76666514D01*
X82067333Y-76666514D02*
X82029238Y-76742704D01*
X82029238Y-76742704D02*
X81991143Y-76780800D01*
X81991143Y-76780800D02*
X81914952Y-76818895D01*
X81914952Y-76818895D02*
X81686381Y-76818895D01*
X81686381Y-76818895D02*
X81610190Y-76780800D01*
X81610190Y-76780800D02*
X81572095Y-76742704D01*
X93516524Y-72246895D02*
X93516524Y-71446895D01*
X93516524Y-71446895D02*
X93707000Y-71446895D01*
X93707000Y-71446895D02*
X93821286Y-71484990D01*
X93821286Y-71484990D02*
X93897476Y-71561180D01*
X93897476Y-71561180D02*
X93935571Y-71637371D01*
X93935571Y-71637371D02*
X93973667Y-71789752D01*
X93973667Y-71789752D02*
X93973667Y-71904038D01*
X93973667Y-71904038D02*
X93935571Y-72056419D01*
X93935571Y-72056419D02*
X93897476Y-72132609D01*
X93897476Y-72132609D02*
X93821286Y-72208800D01*
X93821286Y-72208800D02*
X93707000Y-72246895D01*
X93707000Y-72246895D02*
X93516524Y-72246895D01*
X94735571Y-72246895D02*
X94278428Y-72246895D01*
X94507000Y-72246895D02*
X94507000Y-71446895D01*
X94507000Y-71446895D02*
X94430809Y-71561180D01*
X94430809Y-71561180D02*
X94354619Y-71637371D01*
X94354619Y-71637371D02*
X94278428Y-71675466D01*
X84702667Y-85581895D02*
X84436000Y-85200942D01*
X84245524Y-85581895D02*
X84245524Y-84781895D01*
X84245524Y-84781895D02*
X84550286Y-84781895D01*
X84550286Y-84781895D02*
X84626476Y-84819990D01*
X84626476Y-84819990D02*
X84664571Y-84858085D01*
X84664571Y-84858085D02*
X84702667Y-84934276D01*
X84702667Y-84934276D02*
X84702667Y-85048561D01*
X84702667Y-85048561D02*
X84664571Y-85124752D01*
X84664571Y-85124752D02*
X84626476Y-85162847D01*
X84626476Y-85162847D02*
X84550286Y-85200942D01*
X84550286Y-85200942D02*
X84245524Y-85200942D01*
X85464571Y-85581895D02*
X85007428Y-85581895D01*
X85236000Y-85581895D02*
X85236000Y-84781895D01*
X85236000Y-84781895D02*
X85159809Y-84896180D01*
X85159809Y-84896180D02*
X85083619Y-84972371D01*
X85083619Y-84972371D02*
X85007428Y-85010466D01*
X98291667Y-85327895D02*
X98025000Y-84946942D01*
X97834524Y-85327895D02*
X97834524Y-84527895D01*
X97834524Y-84527895D02*
X98139286Y-84527895D01*
X98139286Y-84527895D02*
X98215476Y-84565990D01*
X98215476Y-84565990D02*
X98253571Y-84604085D01*
X98253571Y-84604085D02*
X98291667Y-84680276D01*
X98291667Y-84680276D02*
X98291667Y-84794561D01*
X98291667Y-84794561D02*
X98253571Y-84870752D01*
X98253571Y-84870752D02*
X98215476Y-84908847D01*
X98215476Y-84908847D02*
X98139286Y-84946942D01*
X98139286Y-84946942D02*
X97834524Y-84946942D01*
X98558333Y-84527895D02*
X99053571Y-84527895D01*
X99053571Y-84527895D02*
X98786905Y-84832657D01*
X98786905Y-84832657D02*
X98901190Y-84832657D01*
X98901190Y-84832657D02*
X98977381Y-84870752D01*
X98977381Y-84870752D02*
X99015476Y-84908847D01*
X99015476Y-84908847D02*
X99053571Y-84985038D01*
X99053571Y-84985038D02*
X99053571Y-85175514D01*
X99053571Y-85175514D02*
X99015476Y-85251704D01*
X99015476Y-85251704D02*
X98977381Y-85289800D01*
X98977381Y-85289800D02*
X98901190Y-85327895D01*
X98901190Y-85327895D02*
X98672619Y-85327895D01*
X98672619Y-85327895D02*
X98596428Y-85289800D01*
X98596428Y-85289800D02*
X98558333Y-85251704D01*
X107810333Y-72970895D02*
X107810333Y-73542323D01*
X107810333Y-73542323D02*
X107772238Y-73656609D01*
X107772238Y-73656609D02*
X107696047Y-73732800D01*
X107696047Y-73732800D02*
X107581762Y-73770895D01*
X107581762Y-73770895D02*
X107505571Y-73770895D01*
X108610333Y-73770895D02*
X108153190Y-73770895D01*
X108381762Y-73770895D02*
X108381762Y-72970895D01*
X108381762Y-72970895D02*
X108305571Y-73085180D01*
X108305571Y-73085180D02*
X108229381Y-73161371D01*
X108229381Y-73161371D02*
X108153190Y-73199466D01*
X95624667Y-84489704D02*
X95586571Y-84527800D01*
X95586571Y-84527800D02*
X95472286Y-84565895D01*
X95472286Y-84565895D02*
X95396095Y-84565895D01*
X95396095Y-84565895D02*
X95281809Y-84527800D01*
X95281809Y-84527800D02*
X95205619Y-84451609D01*
X95205619Y-84451609D02*
X95167524Y-84375419D01*
X95167524Y-84375419D02*
X95129428Y-84223038D01*
X95129428Y-84223038D02*
X95129428Y-84108752D01*
X95129428Y-84108752D02*
X95167524Y-83956371D01*
X95167524Y-83956371D02*
X95205619Y-83880180D01*
X95205619Y-83880180D02*
X95281809Y-83803990D01*
X95281809Y-83803990D02*
X95396095Y-83765895D01*
X95396095Y-83765895D02*
X95472286Y-83765895D01*
X95472286Y-83765895D02*
X95586571Y-83803990D01*
X95586571Y-83803990D02*
X95624667Y-83842085D01*
X95891333Y-83765895D02*
X96386571Y-83765895D01*
X96386571Y-83765895D02*
X96119905Y-84070657D01*
X96119905Y-84070657D02*
X96234190Y-84070657D01*
X96234190Y-84070657D02*
X96310381Y-84108752D01*
X96310381Y-84108752D02*
X96348476Y-84146847D01*
X96348476Y-84146847D02*
X96386571Y-84223038D01*
X96386571Y-84223038D02*
X96386571Y-84413514D01*
X96386571Y-84413514D02*
X96348476Y-84489704D01*
X96348476Y-84489704D02*
X96310381Y-84527800D01*
X96310381Y-84527800D02*
X96234190Y-84565895D01*
X96234190Y-84565895D02*
X96005619Y-84565895D01*
X96005619Y-84565895D02*
X95929428Y-84527800D01*
X95929428Y-84527800D02*
X95891333Y-84489704D01*
X78092333Y-85289895D02*
X78092333Y-85861323D01*
X78092333Y-85861323D02*
X78054238Y-85975609D01*
X78054238Y-85975609D02*
X77978047Y-86051800D01*
X77978047Y-86051800D02*
X77863762Y-86089895D01*
X77863762Y-86089895D02*
X77787571Y-86089895D01*
X78435190Y-85366085D02*
X78473286Y-85327990D01*
X78473286Y-85327990D02*
X78549476Y-85289895D01*
X78549476Y-85289895D02*
X78739952Y-85289895D01*
X78739952Y-85289895D02*
X78816143Y-85327990D01*
X78816143Y-85327990D02*
X78854238Y-85366085D01*
X78854238Y-85366085D02*
X78892333Y-85442276D01*
X78892333Y-85442276D02*
X78892333Y-85518466D01*
X78892333Y-85518466D02*
X78854238Y-85632752D01*
X78854238Y-85632752D02*
X78397095Y-86089895D01*
X78397095Y-86089895D02*
X78892333Y-86089895D01*
X96164476Y-73649895D02*
X96164476Y-74297514D01*
X96164476Y-74297514D02*
X96202571Y-74373704D01*
X96202571Y-74373704D02*
X96240666Y-74411800D01*
X96240666Y-74411800D02*
X96316857Y-74449895D01*
X96316857Y-74449895D02*
X96469238Y-74449895D01*
X96469238Y-74449895D02*
X96545428Y-74411800D01*
X96545428Y-74411800D02*
X96583523Y-74373704D01*
X96583523Y-74373704D02*
X96621619Y-74297514D01*
X96621619Y-74297514D02*
X96621619Y-73649895D01*
X97421618Y-74449895D02*
X96964475Y-74449895D01*
X97193047Y-74449895D02*
X97193047Y-73649895D01*
X97193047Y-73649895D02*
X97116856Y-73764180D01*
X97116856Y-73764180D02*
X97040666Y-73840371D01*
X97040666Y-73840371D02*
X96964475Y-73878466D01*
D12*
%TO.C,Q1*%
X82296000Y-79720000D02*
X81646000Y-79720000D01*
X82296000Y-79720000D02*
X82946000Y-79720000D01*
X82296000Y-82840000D02*
X81646000Y-82840000D01*
X82296000Y-82840000D02*
X82946000Y-82840000D01*
X81133500Y-79770000D02*
X80893500Y-79440000D01*
X81373500Y-79440000D01*
X81133500Y-79770000D01*
G36*
X81133500Y-79770000D02*
G01*
X80893500Y-79440000D01*
X81373500Y-79440000D01*
X81133500Y-79770000D01*
G37*
%TO.C,R4*%
X86714064Y-81815000D02*
X86259936Y-81815000D01*
X86714064Y-83285000D02*
X86259936Y-83285000D01*
%TO.C,C1*%
X90736748Y-81815000D02*
X91259252Y-81815000D01*
X90736748Y-83285000D02*
X91259252Y-83285000D01*
D13*
%TO.C,D2*%
X83370000Y-73244000D02*
X88895000Y-73244000D01*
X88570000Y-70520000D02*
X83370000Y-70520000D01*
D12*
%TO.C,R2*%
X92556064Y-85879000D02*
X92101936Y-85879000D01*
X92556064Y-87349000D02*
X92101936Y-87349000D01*
D14*
%TO.C,L1*%
X98681000Y-78607000D02*
X98681000Y-71507000D01*
X105281000Y-78607000D02*
X105281000Y-71507000D01*
D12*
%TO.C,J4*%
X68015000Y-74500000D02*
X74015000Y-74500000D01*
X68015000Y-75360000D02*
X68015000Y-74500000D01*
X74015000Y-73550000D02*
X74015000Y-78850000D01*
X74015000Y-75360000D02*
X68015000Y-75360000D01*
X74015000Y-78850000D02*
X76775000Y-78850000D01*
X76775000Y-73550000D02*
X74015000Y-73550000D01*
X76775000Y-76200000D02*
X74015000Y-76200000D01*
X76775000Y-78850000D02*
X76775000Y-73550000D01*
X77005000Y-77040000D02*
X76775000Y-77040000D01*
X77005000Y-77900000D02*
X76775000Y-77900000D01*
X77087642Y-74500000D02*
X76775000Y-74500000D01*
X77087642Y-75360000D02*
X76775000Y-75360000D01*
X79435000Y-77470000D02*
X79435000Y-78740000D01*
X79435000Y-78740000D02*
X78165000Y-78740000D01*
X74015000Y-77900000D02*
X68015000Y-77900000D01*
X68015000Y-77040000D01*
X74015000Y-77040000D01*
X74015000Y-77900000D01*
G36*
X74015000Y-77900000D02*
G01*
X68015000Y-77900000D01*
X68015000Y-77040000D01*
X74015000Y-77040000D01*
X74015000Y-77900000D01*
G37*
%TO.C,C2*%
X100219248Y-81815000D02*
X100741752Y-81815000D01*
X100219248Y-83285000D02*
X100741752Y-83285000D01*
%TO.C,J3*%
X82482500Y-73933500D02*
X82482500Y-75316500D01*
X82482500Y-73933500D02*
X83865500Y-73933500D01*
X82722500Y-74173500D02*
X82722500Y-79013500D01*
X82722500Y-74173500D02*
X92622500Y-74173500D01*
X82722500Y-79013500D02*
X92622500Y-79013500D01*
X86995833Y-75958500D02*
X86995833Y-77228500D01*
X92622500Y-74173500D02*
X92622500Y-79013500D01*
X85642500Y-75958500D02*
X86995833Y-75958500D01*
X86995833Y-77228500D01*
X85642500Y-77228500D01*
X85642500Y-75958500D01*
G36*
X85642500Y-75958500D02*
G01*
X86995833Y-75958500D01*
X86995833Y-77228500D01*
X85642500Y-77228500D01*
X85642500Y-75958500D01*
G37*
X85642500Y-75958500D02*
X89702500Y-75958500D01*
X89702500Y-77228500D01*
X85642500Y-77228500D01*
X85642500Y-75958500D01*
D13*
%TO.C,D1*%
X91507000Y-73244000D02*
X96707000Y-73244000D01*
X96707000Y-70520000D02*
X91182000Y-70520000D01*
D12*
%TO.C,R1*%
X85751936Y-85879000D02*
X86206064Y-85879000D01*
X85751936Y-87349000D02*
X86206064Y-87349000D01*
%TO.C,R3*%
X98652064Y-85879000D02*
X98197936Y-85879000D01*
X98652064Y-87349000D02*
X98197936Y-87349000D01*
%TO.C,J1*%
X106807000Y-74295000D02*
X108077000Y-74295000D01*
X106807000Y-75565000D02*
X106807000Y-74295000D01*
X109154358Y-77675000D02*
X109467000Y-77675000D01*
X109154358Y-78535000D02*
X109467000Y-78535000D01*
X109237000Y-75135000D02*
X109467000Y-75135000D01*
X109237000Y-75995000D02*
X109467000Y-75995000D01*
X109467000Y-74185000D02*
X109467000Y-79485000D01*
X109467000Y-76835000D02*
X112227000Y-76835000D01*
X109467000Y-79485000D02*
X112227000Y-79485000D01*
X112227000Y-74185000D02*
X109467000Y-74185000D01*
X112227000Y-77675000D02*
X118227000Y-77675000D01*
X112227000Y-79485000D02*
X112227000Y-74185000D01*
X118227000Y-77675000D02*
X118227000Y-78535000D01*
X118227000Y-78535000D02*
X112227000Y-78535000D01*
X112227000Y-75135000D02*
X118227000Y-75135000D01*
X118227000Y-75995000D01*
X112227000Y-75995000D01*
X112227000Y-75135000D01*
G36*
X112227000Y-75135000D02*
G01*
X118227000Y-75135000D01*
X118227000Y-75995000D01*
X112227000Y-75995000D01*
X112227000Y-75135000D01*
G37*
%TO.C,C3*%
X95981752Y-81815000D02*
X95459248Y-81815000D01*
X95981752Y-83285000D02*
X95459248Y-83285000D01*
%TO.C,J2*%
X67955000Y-80850000D02*
X73955000Y-80850000D01*
X67955000Y-81710000D02*
X67955000Y-80850000D01*
X73955000Y-79900000D02*
X73955000Y-85200000D01*
X73955000Y-81710000D02*
X67955000Y-81710000D01*
X73955000Y-85200000D02*
X76715000Y-85200000D01*
X76715000Y-79900000D02*
X73955000Y-79900000D01*
X76715000Y-82550000D02*
X73955000Y-82550000D01*
X76715000Y-85200000D02*
X76715000Y-79900000D01*
X76945000Y-83390000D02*
X76715000Y-83390000D01*
X76945000Y-84250000D02*
X76715000Y-84250000D01*
X77027642Y-80850000D02*
X76715000Y-80850000D01*
X77027642Y-81710000D02*
X76715000Y-81710000D01*
X79375000Y-83820000D02*
X79375000Y-85090000D01*
X79375000Y-85090000D02*
X78105000Y-85090000D01*
X73955000Y-84250000D02*
X67955000Y-84250000D01*
X67955000Y-83390000D01*
X73955000Y-83390000D01*
X73955000Y-84250000D01*
G36*
X73955000Y-84250000D02*
G01*
X67955000Y-84250000D01*
X67955000Y-83390000D01*
X73955000Y-83390000D01*
X73955000Y-84250000D01*
G37*
D14*
%TO.C,U1*%
X94811000Y-74873000D02*
X96411000Y-74873000D01*
X94811000Y-77913000D02*
X96411000Y-77913000D01*
D13*
X93261000Y-75243000D02*
G75*
G02*
X93061000Y-75243000I-100000J0D01*
G01*
X93061000Y-75243000D02*
G75*
G02*
X93261000Y-75243000I100000J0D01*
G01*
%TD*%
M02*
