%TF.GenerationSoftware,KiCad,Pcbnew,9.0.3*%
%TF.CreationDate,2025-07-29T15:31:23+05:30*%
%TF.ProjectId,Solar PCB,536f6c61-7220-4504-9342-2e6b69636164,rev?*%
%TF.SameCoordinates,Original*%
%TF.FileFunction,Legend,Bot*%
%TF.FilePolarity,Positive*%
%FSLAX46Y46*%
G04 Gerber Fmt 4.6, Leading zero omitted, Abs format (unit mm)*
G04 Created by KiCad (PCBNEW 9.0.3) date 2025-07-29 15:31:23*
%MOMM*%
%LPD*%
G01*
G04 APERTURE LIST*
%ADD10C,0.120000*%
%ADD11C,0.000000*%
%ADD12C,0.010000*%
G04 APERTURE END LIST*
D10*
X106690362Y-71303855D02*
X106423695Y-72103855D01*
X106423695Y-72103855D02*
X106157029Y-71303855D01*
X105585600Y-72065760D02*
X105661791Y-72103855D01*
X105661791Y-72103855D02*
X105814172Y-72103855D01*
X105814172Y-72103855D02*
X105890362Y-72065760D01*
X105890362Y-72065760D02*
X105928458Y-71989569D01*
X105928458Y-71989569D02*
X105928458Y-71684807D01*
X105928458Y-71684807D02*
X105890362Y-71608617D01*
X105890362Y-71608617D02*
X105814172Y-71570521D01*
X105814172Y-71570521D02*
X105661791Y-71570521D01*
X105661791Y-71570521D02*
X105585600Y-71608617D01*
X105585600Y-71608617D02*
X105547505Y-71684807D01*
X105547505Y-71684807D02*
X105547505Y-71760998D01*
X105547505Y-71760998D02*
X105928458Y-71837188D01*
X105204648Y-72103855D02*
X105204648Y-71570521D01*
X105204648Y-71722902D02*
X105166553Y-71646712D01*
X105166553Y-71646712D02*
X105128458Y-71608617D01*
X105128458Y-71608617D02*
X105052267Y-71570521D01*
X105052267Y-71570521D02*
X104976077Y-71570521D01*
X104747506Y-72065760D02*
X104671315Y-72103855D01*
X104671315Y-72103855D02*
X104518934Y-72103855D01*
X104518934Y-72103855D02*
X104442744Y-72065760D01*
X104442744Y-72065760D02*
X104404648Y-71989569D01*
X104404648Y-71989569D02*
X104404648Y-71951474D01*
X104404648Y-71951474D02*
X104442744Y-71875283D01*
X104442744Y-71875283D02*
X104518934Y-71837188D01*
X104518934Y-71837188D02*
X104633220Y-71837188D01*
X104633220Y-71837188D02*
X104709410Y-71799093D01*
X104709410Y-71799093D02*
X104747506Y-71722902D01*
X104747506Y-71722902D02*
X104747506Y-71684807D01*
X104747506Y-71684807D02*
X104709410Y-71608617D01*
X104709410Y-71608617D02*
X104633220Y-71570521D01*
X104633220Y-71570521D02*
X104518934Y-71570521D01*
X104518934Y-71570521D02*
X104442744Y-71608617D01*
X104061791Y-72103855D02*
X104061791Y-71570521D01*
X104061791Y-71303855D02*
X104099887Y-71341950D01*
X104099887Y-71341950D02*
X104061791Y-71380045D01*
X104061791Y-71380045D02*
X104023696Y-71341950D01*
X104023696Y-71341950D02*
X104061791Y-71303855D01*
X104061791Y-71303855D02*
X104061791Y-71380045D01*
X103566554Y-72103855D02*
X103642744Y-72065760D01*
X103642744Y-72065760D02*
X103680839Y-72027664D01*
X103680839Y-72027664D02*
X103718935Y-71951474D01*
X103718935Y-71951474D02*
X103718935Y-71722902D01*
X103718935Y-71722902D02*
X103680839Y-71646712D01*
X103680839Y-71646712D02*
X103642744Y-71608617D01*
X103642744Y-71608617D02*
X103566554Y-71570521D01*
X103566554Y-71570521D02*
X103452268Y-71570521D01*
X103452268Y-71570521D02*
X103376077Y-71608617D01*
X103376077Y-71608617D02*
X103337982Y-71646712D01*
X103337982Y-71646712D02*
X103299887Y-71722902D01*
X103299887Y-71722902D02*
X103299887Y-71951474D01*
X103299887Y-71951474D02*
X103337982Y-72027664D01*
X103337982Y-72027664D02*
X103376077Y-72065760D01*
X103376077Y-72065760D02*
X103452268Y-72103855D01*
X103452268Y-72103855D02*
X103566554Y-72103855D01*
X102957029Y-71570521D02*
X102957029Y-72103855D01*
X102957029Y-71646712D02*
X102918934Y-71608617D01*
X102918934Y-71608617D02*
X102842744Y-71570521D01*
X102842744Y-71570521D02*
X102728458Y-71570521D01*
X102728458Y-71570521D02*
X102652267Y-71608617D01*
X102652267Y-71608617D02*
X102614172Y-71684807D01*
X102614172Y-71684807D02*
X102614172Y-72103855D01*
X101204648Y-72103855D02*
X101661791Y-72103855D01*
X101433219Y-72103855D02*
X101433219Y-71303855D01*
X101433219Y-71303855D02*
X101509410Y-71418140D01*
X101509410Y-71418140D02*
X101585600Y-71494331D01*
X101585600Y-71494331D02*
X101661791Y-71532426D01*
X106690362Y-72591810D02*
X106233219Y-72591810D01*
X106461791Y-73391810D02*
X106461791Y-72591810D01*
X105966552Y-73391810D02*
X105966552Y-72858476D01*
X105966552Y-72591810D02*
X106004648Y-72629905D01*
X106004648Y-72629905D02*
X105966552Y-72668000D01*
X105966552Y-72668000D02*
X105928457Y-72629905D01*
X105928457Y-72629905D02*
X105966552Y-72591810D01*
X105966552Y-72591810D02*
X105966552Y-72668000D01*
X105585600Y-72858476D02*
X105585600Y-73391810D01*
X105585600Y-72934667D02*
X105547505Y-72896572D01*
X105547505Y-72896572D02*
X105471315Y-72858476D01*
X105471315Y-72858476D02*
X105357029Y-72858476D01*
X105357029Y-72858476D02*
X105280838Y-72896572D01*
X105280838Y-72896572D02*
X105242743Y-72972762D01*
X105242743Y-72972762D02*
X105242743Y-73391810D01*
X104937981Y-72858476D02*
X104747505Y-73391810D01*
X104557028Y-72858476D02*
X104747505Y-73391810D01*
X104747505Y-73391810D02*
X104823695Y-73582286D01*
X104823695Y-73582286D02*
X104861790Y-73620381D01*
X104861790Y-73620381D02*
X104937981Y-73658476D01*
X103680838Y-73353715D02*
X103566552Y-73391810D01*
X103566552Y-73391810D02*
X103376076Y-73391810D01*
X103376076Y-73391810D02*
X103299885Y-73353715D01*
X103299885Y-73353715D02*
X103261790Y-73315619D01*
X103261790Y-73315619D02*
X103223695Y-73239429D01*
X103223695Y-73239429D02*
X103223695Y-73163238D01*
X103223695Y-73163238D02*
X103261790Y-73087048D01*
X103261790Y-73087048D02*
X103299885Y-73048953D01*
X103299885Y-73048953D02*
X103376076Y-73010857D01*
X103376076Y-73010857D02*
X103528457Y-72972762D01*
X103528457Y-72972762D02*
X103604647Y-72934667D01*
X103604647Y-72934667D02*
X103642742Y-72896572D01*
X103642742Y-72896572D02*
X103680838Y-72820381D01*
X103680838Y-72820381D02*
X103680838Y-72744191D01*
X103680838Y-72744191D02*
X103642742Y-72668000D01*
X103642742Y-72668000D02*
X103604647Y-72629905D01*
X103604647Y-72629905D02*
X103528457Y-72591810D01*
X103528457Y-72591810D02*
X103337980Y-72591810D01*
X103337980Y-72591810D02*
X103223695Y-72629905D01*
X102766552Y-73391810D02*
X102842742Y-73353715D01*
X102842742Y-73353715D02*
X102880837Y-73315619D01*
X102880837Y-73315619D02*
X102918933Y-73239429D01*
X102918933Y-73239429D02*
X102918933Y-73010857D01*
X102918933Y-73010857D02*
X102880837Y-72934667D01*
X102880837Y-72934667D02*
X102842742Y-72896572D01*
X102842742Y-72896572D02*
X102766552Y-72858476D01*
X102766552Y-72858476D02*
X102652266Y-72858476D01*
X102652266Y-72858476D02*
X102576075Y-72896572D01*
X102576075Y-72896572D02*
X102537980Y-72934667D01*
X102537980Y-72934667D02*
X102499885Y-73010857D01*
X102499885Y-73010857D02*
X102499885Y-73239429D01*
X102499885Y-73239429D02*
X102537980Y-73315619D01*
X102537980Y-73315619D02*
X102576075Y-73353715D01*
X102576075Y-73353715D02*
X102652266Y-73391810D01*
X102652266Y-73391810D02*
X102766552Y-73391810D01*
X101814170Y-73391810D02*
X101814170Y-72972762D01*
X101814170Y-72972762D02*
X101852265Y-72896572D01*
X101852265Y-72896572D02*
X101928456Y-72858476D01*
X101928456Y-72858476D02*
X102080837Y-72858476D01*
X102080837Y-72858476D02*
X102157027Y-72896572D01*
X101814170Y-73353715D02*
X101890361Y-73391810D01*
X101890361Y-73391810D02*
X102080837Y-73391810D01*
X102080837Y-73391810D02*
X102157027Y-73353715D01*
X102157027Y-73353715D02*
X102195123Y-73277524D01*
X102195123Y-73277524D02*
X102195123Y-73201334D01*
X102195123Y-73201334D02*
X102157027Y-73125143D01*
X102157027Y-73125143D02*
X102080837Y-73087048D01*
X102080837Y-73087048D02*
X101890361Y-73087048D01*
X101890361Y-73087048D02*
X101814170Y-73048953D01*
X101318932Y-73391810D02*
X101395122Y-73353715D01*
X101395122Y-73353715D02*
X101433217Y-73277524D01*
X101433217Y-73277524D02*
X101433217Y-72591810D01*
X101014169Y-73391810D02*
X101014169Y-72858476D01*
X101014169Y-73010857D02*
X100976074Y-72934667D01*
X100976074Y-72934667D02*
X100937979Y-72896572D01*
X100937979Y-72896572D02*
X100861788Y-72858476D01*
X100861788Y-72858476D02*
X100785598Y-72858476D01*
X99947503Y-73353715D02*
X99833217Y-73391810D01*
X99833217Y-73391810D02*
X99642741Y-73391810D01*
X99642741Y-73391810D02*
X99566550Y-73353715D01*
X99566550Y-73353715D02*
X99528455Y-73315619D01*
X99528455Y-73315619D02*
X99490360Y-73239429D01*
X99490360Y-73239429D02*
X99490360Y-73163238D01*
X99490360Y-73163238D02*
X99528455Y-73087048D01*
X99528455Y-73087048D02*
X99566550Y-73048953D01*
X99566550Y-73048953D02*
X99642741Y-73010857D01*
X99642741Y-73010857D02*
X99795122Y-72972762D01*
X99795122Y-72972762D02*
X99871312Y-72934667D01*
X99871312Y-72934667D02*
X99909407Y-72896572D01*
X99909407Y-72896572D02*
X99947503Y-72820381D01*
X99947503Y-72820381D02*
X99947503Y-72744191D01*
X99947503Y-72744191D02*
X99909407Y-72668000D01*
X99909407Y-72668000D02*
X99871312Y-72629905D01*
X99871312Y-72629905D02*
X99795122Y-72591810D01*
X99795122Y-72591810D02*
X99604645Y-72591810D01*
X99604645Y-72591810D02*
X99490360Y-72629905D01*
X98804645Y-72858476D02*
X98804645Y-73391810D01*
X99147502Y-72858476D02*
X99147502Y-73277524D01*
X99147502Y-73277524D02*
X99109407Y-73353715D01*
X99109407Y-73353715D02*
X99033217Y-73391810D01*
X99033217Y-73391810D02*
X98918931Y-73391810D01*
X98918931Y-73391810D02*
X98842740Y-73353715D01*
X98842740Y-73353715D02*
X98804645Y-73315619D01*
X98423692Y-72858476D02*
X98423692Y-73658476D01*
X98423692Y-72896572D02*
X98347502Y-72858476D01*
X98347502Y-72858476D02*
X98195121Y-72858476D01*
X98195121Y-72858476D02*
X98118930Y-72896572D01*
X98118930Y-72896572D02*
X98080835Y-72934667D01*
X98080835Y-72934667D02*
X98042740Y-73010857D01*
X98042740Y-73010857D02*
X98042740Y-73239429D01*
X98042740Y-73239429D02*
X98080835Y-73315619D01*
X98080835Y-73315619D02*
X98118930Y-73353715D01*
X98118930Y-73353715D02*
X98195121Y-73391810D01*
X98195121Y-73391810D02*
X98347502Y-73391810D01*
X98347502Y-73391810D02*
X98423692Y-73353715D01*
X97699882Y-72858476D02*
X97699882Y-73658476D01*
X97699882Y-72896572D02*
X97623692Y-72858476D01*
X97623692Y-72858476D02*
X97471311Y-72858476D01*
X97471311Y-72858476D02*
X97395120Y-72896572D01*
X97395120Y-72896572D02*
X97357025Y-72934667D01*
X97357025Y-72934667D02*
X97318930Y-73010857D01*
X97318930Y-73010857D02*
X97318930Y-73239429D01*
X97318930Y-73239429D02*
X97357025Y-73315619D01*
X97357025Y-73315619D02*
X97395120Y-73353715D01*
X97395120Y-73353715D02*
X97471311Y-73391810D01*
X97471311Y-73391810D02*
X97623692Y-73391810D01*
X97623692Y-73391810D02*
X97699882Y-73353715D01*
X96861787Y-73391810D02*
X96937977Y-73353715D01*
X96937977Y-73353715D02*
X96976072Y-73277524D01*
X96976072Y-73277524D02*
X96976072Y-72591810D01*
X96633215Y-72858476D02*
X96442739Y-73391810D01*
X96252262Y-72858476D02*
X96442739Y-73391810D01*
X96442739Y-73391810D02*
X96518929Y-73582286D01*
X96518929Y-73582286D02*
X96557024Y-73620381D01*
X96557024Y-73620381D02*
X96633215Y-73658476D01*
X106690362Y-74146431D02*
X106385600Y-74146431D01*
X106576076Y-74679765D02*
X106576076Y-73994050D01*
X106576076Y-73994050D02*
X106537981Y-73917860D01*
X106537981Y-73917860D02*
X106461791Y-73879765D01*
X106461791Y-73879765D02*
X106385600Y-73879765D01*
X106118933Y-74679765D02*
X106118933Y-74146431D01*
X106118933Y-74298812D02*
X106080838Y-74222622D01*
X106080838Y-74222622D02*
X106042743Y-74184527D01*
X106042743Y-74184527D02*
X105966552Y-74146431D01*
X105966552Y-74146431D02*
X105890362Y-74146431D01*
X105509410Y-74679765D02*
X105585600Y-74641670D01*
X105585600Y-74641670D02*
X105623695Y-74603574D01*
X105623695Y-74603574D02*
X105661791Y-74527384D01*
X105661791Y-74527384D02*
X105661791Y-74298812D01*
X105661791Y-74298812D02*
X105623695Y-74222622D01*
X105623695Y-74222622D02*
X105585600Y-74184527D01*
X105585600Y-74184527D02*
X105509410Y-74146431D01*
X105509410Y-74146431D02*
X105395124Y-74146431D01*
X105395124Y-74146431D02*
X105318933Y-74184527D01*
X105318933Y-74184527D02*
X105280838Y-74222622D01*
X105280838Y-74222622D02*
X105242743Y-74298812D01*
X105242743Y-74298812D02*
X105242743Y-74527384D01*
X105242743Y-74527384D02*
X105280838Y-74603574D01*
X105280838Y-74603574D02*
X105318933Y-74641670D01*
X105318933Y-74641670D02*
X105395124Y-74679765D01*
X105395124Y-74679765D02*
X105509410Y-74679765D01*
X104899885Y-74679765D02*
X104899885Y-74146431D01*
X104899885Y-74222622D02*
X104861790Y-74184527D01*
X104861790Y-74184527D02*
X104785600Y-74146431D01*
X104785600Y-74146431D02*
X104671314Y-74146431D01*
X104671314Y-74146431D02*
X104595123Y-74184527D01*
X104595123Y-74184527D02*
X104557028Y-74260717D01*
X104557028Y-74260717D02*
X104557028Y-74679765D01*
X104557028Y-74260717D02*
X104518933Y-74184527D01*
X104518933Y-74184527D02*
X104442742Y-74146431D01*
X104442742Y-74146431D02*
X104328457Y-74146431D01*
X104328457Y-74146431D02*
X104252266Y-74184527D01*
X104252266Y-74184527D02*
X104214171Y-74260717D01*
X104214171Y-74260717D02*
X104214171Y-74679765D01*
X103223694Y-74260717D02*
X102957028Y-74260717D01*
X102842742Y-74679765D02*
X103223694Y-74679765D01*
X103223694Y-74679765D02*
X103223694Y-73879765D01*
X103223694Y-73879765D02*
X102842742Y-73879765D01*
X102385599Y-74679765D02*
X102461789Y-74641670D01*
X102461789Y-74641670D02*
X102499884Y-74565479D01*
X102499884Y-74565479D02*
X102499884Y-73879765D01*
X101776074Y-74641670D02*
X101852265Y-74679765D01*
X101852265Y-74679765D02*
X102004646Y-74679765D01*
X102004646Y-74679765D02*
X102080836Y-74641670D01*
X102080836Y-74641670D02*
X102118932Y-74565479D01*
X102118932Y-74565479D02*
X102118932Y-74260717D01*
X102118932Y-74260717D02*
X102080836Y-74184527D01*
X102080836Y-74184527D02*
X102004646Y-74146431D01*
X102004646Y-74146431D02*
X101852265Y-74146431D01*
X101852265Y-74146431D02*
X101776074Y-74184527D01*
X101776074Y-74184527D02*
X101737979Y-74260717D01*
X101737979Y-74260717D02*
X101737979Y-74336908D01*
X101737979Y-74336908D02*
X102118932Y-74413098D01*
X101395122Y-74679765D02*
X101395122Y-73879765D01*
X101318932Y-74375003D02*
X101090360Y-74679765D01*
X101090360Y-74146431D02*
X101395122Y-74451193D01*
X100861789Y-74146431D02*
X100557027Y-74146431D01*
X100747503Y-73879765D02*
X100747503Y-74565479D01*
X100747503Y-74565479D02*
X100709408Y-74641670D01*
X100709408Y-74641670D02*
X100633218Y-74679765D01*
X100633218Y-74679765D02*
X100557027Y-74679765D01*
X100176075Y-74679765D02*
X100252265Y-74641670D01*
X100252265Y-74641670D02*
X100290360Y-74603574D01*
X100290360Y-74603574D02*
X100328456Y-74527384D01*
X100328456Y-74527384D02*
X100328456Y-74298812D01*
X100328456Y-74298812D02*
X100290360Y-74222622D01*
X100290360Y-74222622D02*
X100252265Y-74184527D01*
X100252265Y-74184527D02*
X100176075Y-74146431D01*
X100176075Y-74146431D02*
X100061789Y-74146431D01*
X100061789Y-74146431D02*
X99985598Y-74184527D01*
X99985598Y-74184527D02*
X99947503Y-74222622D01*
X99947503Y-74222622D02*
X99909408Y-74298812D01*
X99909408Y-74298812D02*
X99909408Y-74527384D01*
X99909408Y-74527384D02*
X99947503Y-74603574D01*
X99947503Y-74603574D02*
X99985598Y-74641670D01*
X99985598Y-74641670D02*
X100061789Y-74679765D01*
X100061789Y-74679765D02*
X100176075Y-74679765D01*
X99566550Y-74679765D02*
X99566550Y-74146431D01*
X99566550Y-74298812D02*
X99528455Y-74222622D01*
X99528455Y-74222622D02*
X99490360Y-74184527D01*
X99490360Y-74184527D02*
X99414169Y-74146431D01*
X99414169Y-74146431D02*
X99337979Y-74146431D01*
X98461788Y-74679765D02*
X98461788Y-73879765D01*
X98461788Y-73879765D02*
X98195122Y-74451193D01*
X98195122Y-74451193D02*
X97928455Y-73879765D01*
X97928455Y-73879765D02*
X97928455Y-74679765D01*
X97204645Y-74679765D02*
X97204645Y-74260717D01*
X97204645Y-74260717D02*
X97242740Y-74184527D01*
X97242740Y-74184527D02*
X97318931Y-74146431D01*
X97318931Y-74146431D02*
X97471312Y-74146431D01*
X97471312Y-74146431D02*
X97547502Y-74184527D01*
X97204645Y-74641670D02*
X97280836Y-74679765D01*
X97280836Y-74679765D02*
X97471312Y-74679765D01*
X97471312Y-74679765D02*
X97547502Y-74641670D01*
X97547502Y-74641670D02*
X97585598Y-74565479D01*
X97585598Y-74565479D02*
X97585598Y-74489289D01*
X97585598Y-74489289D02*
X97547502Y-74413098D01*
X97547502Y-74413098D02*
X97471312Y-74375003D01*
X97471312Y-74375003D02*
X97280836Y-74375003D01*
X97280836Y-74375003D02*
X97204645Y-74336908D01*
X96480835Y-74146431D02*
X96480835Y-74794050D01*
X96480835Y-74794050D02*
X96518930Y-74870241D01*
X96518930Y-74870241D02*
X96557026Y-74908336D01*
X96557026Y-74908336D02*
X96633216Y-74946431D01*
X96633216Y-74946431D02*
X96747502Y-74946431D01*
X96747502Y-74946431D02*
X96823692Y-74908336D01*
X96480835Y-74641670D02*
X96557026Y-74679765D01*
X96557026Y-74679765D02*
X96709407Y-74679765D01*
X96709407Y-74679765D02*
X96785597Y-74641670D01*
X96785597Y-74641670D02*
X96823692Y-74603574D01*
X96823692Y-74603574D02*
X96861788Y-74527384D01*
X96861788Y-74527384D02*
X96861788Y-74298812D01*
X96861788Y-74298812D02*
X96823692Y-74222622D01*
X96823692Y-74222622D02*
X96785597Y-74184527D01*
X96785597Y-74184527D02*
X96709407Y-74146431D01*
X96709407Y-74146431D02*
X96557026Y-74146431D01*
X96557026Y-74146431D02*
X96480835Y-74184527D01*
X96176073Y-74146431D02*
X95757025Y-74146431D01*
X95757025Y-74146431D02*
X96176073Y-74679765D01*
X96176073Y-74679765D02*
X95757025Y-74679765D01*
X95452263Y-74679765D02*
X95452263Y-74146431D01*
X95452263Y-73879765D02*
X95490359Y-73917860D01*
X95490359Y-73917860D02*
X95452263Y-73955955D01*
X95452263Y-73955955D02*
X95414168Y-73917860D01*
X95414168Y-73917860D02*
X95452263Y-73879765D01*
X95452263Y-73879765D02*
X95452263Y-73955955D01*
X95071311Y-74146431D02*
X95071311Y-74679765D01*
X95071311Y-74222622D02*
X95033216Y-74184527D01*
X95033216Y-74184527D02*
X94957026Y-74146431D01*
X94957026Y-74146431D02*
X94842740Y-74146431D01*
X94842740Y-74146431D02*
X94766549Y-74184527D01*
X94766549Y-74184527D02*
X94728454Y-74260717D01*
X94728454Y-74260717D02*
X94728454Y-74679765D01*
X94042739Y-74641670D02*
X94118930Y-74679765D01*
X94118930Y-74679765D02*
X94271311Y-74679765D01*
X94271311Y-74679765D02*
X94347501Y-74641670D01*
X94347501Y-74641670D02*
X94385597Y-74565479D01*
X94385597Y-74565479D02*
X94385597Y-74260717D01*
X94385597Y-74260717D02*
X94347501Y-74184527D01*
X94347501Y-74184527D02*
X94271311Y-74146431D01*
X94271311Y-74146431D02*
X94118930Y-74146431D01*
X94118930Y-74146431D02*
X94042739Y-74184527D01*
X94042739Y-74184527D02*
X94004644Y-74260717D01*
X94004644Y-74260717D02*
X94004644Y-74336908D01*
X94004644Y-74336908D02*
X94385597Y-74413098D01*
X106118933Y-75891529D02*
X106157029Y-75929625D01*
X106157029Y-75929625D02*
X106271314Y-75967720D01*
X106271314Y-75967720D02*
X106347505Y-75967720D01*
X106347505Y-75967720D02*
X106461791Y-75929625D01*
X106461791Y-75929625D02*
X106537981Y-75853434D01*
X106537981Y-75853434D02*
X106576076Y-75777244D01*
X106576076Y-75777244D02*
X106614172Y-75624863D01*
X106614172Y-75624863D02*
X106614172Y-75510577D01*
X106614172Y-75510577D02*
X106576076Y-75358196D01*
X106576076Y-75358196D02*
X106537981Y-75282005D01*
X106537981Y-75282005D02*
X106461791Y-75205815D01*
X106461791Y-75205815D02*
X106347505Y-75167720D01*
X106347505Y-75167720D02*
X106271314Y-75167720D01*
X106271314Y-75167720D02*
X106157029Y-75205815D01*
X106157029Y-75205815D02*
X106118933Y-75243910D01*
X105661791Y-75967720D02*
X105737981Y-75929625D01*
X105737981Y-75929625D02*
X105776076Y-75891529D01*
X105776076Y-75891529D02*
X105814172Y-75815339D01*
X105814172Y-75815339D02*
X105814172Y-75586767D01*
X105814172Y-75586767D02*
X105776076Y-75510577D01*
X105776076Y-75510577D02*
X105737981Y-75472482D01*
X105737981Y-75472482D02*
X105661791Y-75434386D01*
X105661791Y-75434386D02*
X105547505Y-75434386D01*
X105547505Y-75434386D02*
X105471314Y-75472482D01*
X105471314Y-75472482D02*
X105433219Y-75510577D01*
X105433219Y-75510577D02*
X105395124Y-75586767D01*
X105395124Y-75586767D02*
X105395124Y-75815339D01*
X105395124Y-75815339D02*
X105433219Y-75891529D01*
X105433219Y-75891529D02*
X105471314Y-75929625D01*
X105471314Y-75929625D02*
X105547505Y-75967720D01*
X105547505Y-75967720D02*
X105661791Y-75967720D01*
X105052266Y-75434386D02*
X105052266Y-76234386D01*
X105052266Y-75472482D02*
X104976076Y-75434386D01*
X104976076Y-75434386D02*
X104823695Y-75434386D01*
X104823695Y-75434386D02*
X104747504Y-75472482D01*
X104747504Y-75472482D02*
X104709409Y-75510577D01*
X104709409Y-75510577D02*
X104671314Y-75586767D01*
X104671314Y-75586767D02*
X104671314Y-75815339D01*
X104671314Y-75815339D02*
X104709409Y-75891529D01*
X104709409Y-75891529D02*
X104747504Y-75929625D01*
X104747504Y-75929625D02*
X104823695Y-75967720D01*
X104823695Y-75967720D02*
X104976076Y-75967720D01*
X104976076Y-75967720D02*
X105052266Y-75929625D01*
X104328456Y-75967720D02*
X104328456Y-75434386D01*
X104328456Y-75167720D02*
X104366552Y-75205815D01*
X104366552Y-75205815D02*
X104328456Y-75243910D01*
X104328456Y-75243910D02*
X104290361Y-75205815D01*
X104290361Y-75205815D02*
X104328456Y-75167720D01*
X104328456Y-75167720D02*
X104328456Y-75243910D01*
X103642742Y-75929625D02*
X103718933Y-75967720D01*
X103718933Y-75967720D02*
X103871314Y-75967720D01*
X103871314Y-75967720D02*
X103947504Y-75929625D01*
X103947504Y-75929625D02*
X103985600Y-75853434D01*
X103985600Y-75853434D02*
X103985600Y-75548672D01*
X103985600Y-75548672D02*
X103947504Y-75472482D01*
X103947504Y-75472482D02*
X103871314Y-75434386D01*
X103871314Y-75434386D02*
X103718933Y-75434386D01*
X103718933Y-75434386D02*
X103642742Y-75472482D01*
X103642742Y-75472482D02*
X103604647Y-75548672D01*
X103604647Y-75548672D02*
X103604647Y-75624863D01*
X103604647Y-75624863D02*
X103985600Y-75701053D01*
X102918933Y-75967720D02*
X102918933Y-75167720D01*
X102918933Y-75929625D02*
X102995124Y-75967720D01*
X102995124Y-75967720D02*
X103147505Y-75967720D01*
X103147505Y-75967720D02*
X103223695Y-75929625D01*
X103223695Y-75929625D02*
X103261790Y-75891529D01*
X103261790Y-75891529D02*
X103299886Y-75815339D01*
X103299886Y-75815339D02*
X103299886Y-75586767D01*
X103299886Y-75586767D02*
X103261790Y-75510577D01*
X103261790Y-75510577D02*
X103223695Y-75472482D01*
X103223695Y-75472482D02*
X103147505Y-75434386D01*
X103147505Y-75434386D02*
X102995124Y-75434386D01*
X102995124Y-75434386D02*
X102918933Y-75472482D01*
X101928456Y-75967720D02*
X101928456Y-75167720D01*
X101928456Y-75472482D02*
X101852266Y-75434386D01*
X101852266Y-75434386D02*
X101699885Y-75434386D01*
X101699885Y-75434386D02*
X101623694Y-75472482D01*
X101623694Y-75472482D02*
X101585599Y-75510577D01*
X101585599Y-75510577D02*
X101547504Y-75586767D01*
X101547504Y-75586767D02*
X101547504Y-75815339D01*
X101547504Y-75815339D02*
X101585599Y-75891529D01*
X101585599Y-75891529D02*
X101623694Y-75929625D01*
X101623694Y-75929625D02*
X101699885Y-75967720D01*
X101699885Y-75967720D02*
X101852266Y-75967720D01*
X101852266Y-75967720D02*
X101928456Y-75929625D01*
X101280837Y-75434386D02*
X101090361Y-75967720D01*
X100899884Y-75434386D02*
X101090361Y-75967720D01*
X101090361Y-75967720D02*
X101166551Y-76158196D01*
X101166551Y-76158196D02*
X101204646Y-76196291D01*
X101204646Y-76196291D02*
X101280837Y-76234386D01*
X100023694Y-75929625D02*
X99909408Y-75967720D01*
X99909408Y-75967720D02*
X99718932Y-75967720D01*
X99718932Y-75967720D02*
X99642741Y-75929625D01*
X99642741Y-75929625D02*
X99604646Y-75891529D01*
X99604646Y-75891529D02*
X99566551Y-75815339D01*
X99566551Y-75815339D02*
X99566551Y-75739148D01*
X99566551Y-75739148D02*
X99604646Y-75662958D01*
X99604646Y-75662958D02*
X99642741Y-75624863D01*
X99642741Y-75624863D02*
X99718932Y-75586767D01*
X99718932Y-75586767D02*
X99871313Y-75548672D01*
X99871313Y-75548672D02*
X99947503Y-75510577D01*
X99947503Y-75510577D02*
X99985598Y-75472482D01*
X99985598Y-75472482D02*
X100023694Y-75396291D01*
X100023694Y-75396291D02*
X100023694Y-75320101D01*
X100023694Y-75320101D02*
X99985598Y-75243910D01*
X99985598Y-75243910D02*
X99947503Y-75205815D01*
X99947503Y-75205815D02*
X99871313Y-75167720D01*
X99871313Y-75167720D02*
X99680836Y-75167720D01*
X99680836Y-75167720D02*
X99566551Y-75205815D01*
X98880836Y-75967720D02*
X98880836Y-75548672D01*
X98880836Y-75548672D02*
X98918931Y-75472482D01*
X98918931Y-75472482D02*
X98995122Y-75434386D01*
X98995122Y-75434386D02*
X99147503Y-75434386D01*
X99147503Y-75434386D02*
X99223693Y-75472482D01*
X98880836Y-75929625D02*
X98957027Y-75967720D01*
X98957027Y-75967720D02*
X99147503Y-75967720D01*
X99147503Y-75967720D02*
X99223693Y-75929625D01*
X99223693Y-75929625D02*
X99261789Y-75853434D01*
X99261789Y-75853434D02*
X99261789Y-75777244D01*
X99261789Y-75777244D02*
X99223693Y-75701053D01*
X99223693Y-75701053D02*
X99147503Y-75662958D01*
X99147503Y-75662958D02*
X98957027Y-75662958D01*
X98957027Y-75662958D02*
X98880836Y-75624863D01*
X98157026Y-75434386D02*
X98157026Y-76082005D01*
X98157026Y-76082005D02*
X98195121Y-76158196D01*
X98195121Y-76158196D02*
X98233217Y-76196291D01*
X98233217Y-76196291D02*
X98309407Y-76234386D01*
X98309407Y-76234386D02*
X98423693Y-76234386D01*
X98423693Y-76234386D02*
X98499883Y-76196291D01*
X98157026Y-75929625D02*
X98233217Y-75967720D01*
X98233217Y-75967720D02*
X98385598Y-75967720D01*
X98385598Y-75967720D02*
X98461788Y-75929625D01*
X98461788Y-75929625D02*
X98499883Y-75891529D01*
X98499883Y-75891529D02*
X98537979Y-75815339D01*
X98537979Y-75815339D02*
X98537979Y-75586767D01*
X98537979Y-75586767D02*
X98499883Y-75510577D01*
X98499883Y-75510577D02*
X98461788Y-75472482D01*
X98461788Y-75472482D02*
X98385598Y-75434386D01*
X98385598Y-75434386D02*
X98233217Y-75434386D01*
X98233217Y-75434386D02*
X98157026Y-75472482D01*
X97433216Y-75967720D02*
X97433216Y-75548672D01*
X97433216Y-75548672D02*
X97471311Y-75472482D01*
X97471311Y-75472482D02*
X97547502Y-75434386D01*
X97547502Y-75434386D02*
X97699883Y-75434386D01*
X97699883Y-75434386D02*
X97776073Y-75472482D01*
X97433216Y-75929625D02*
X97509407Y-75967720D01*
X97509407Y-75967720D02*
X97699883Y-75967720D01*
X97699883Y-75967720D02*
X97776073Y-75929625D01*
X97776073Y-75929625D02*
X97814169Y-75853434D01*
X97814169Y-75853434D02*
X97814169Y-75777244D01*
X97814169Y-75777244D02*
X97776073Y-75701053D01*
X97776073Y-75701053D02*
X97699883Y-75662958D01*
X97699883Y-75662958D02*
X97509407Y-75662958D01*
X97509407Y-75662958D02*
X97433216Y-75624863D01*
X97052263Y-75967720D02*
X97052263Y-75434386D01*
X97052263Y-75586767D02*
X97014168Y-75510577D01*
X97014168Y-75510577D02*
X96976073Y-75472482D01*
X96976073Y-75472482D02*
X96899882Y-75434386D01*
X96899882Y-75434386D02*
X96823692Y-75434386D01*
X106614172Y-77217580D02*
X106499886Y-77255675D01*
X106499886Y-77255675D02*
X106309410Y-77255675D01*
X106309410Y-77255675D02*
X106233219Y-77217580D01*
X106233219Y-77217580D02*
X106195124Y-77179484D01*
X106195124Y-77179484D02*
X106157029Y-77103294D01*
X106157029Y-77103294D02*
X106157029Y-77027103D01*
X106157029Y-77027103D02*
X106195124Y-76950913D01*
X106195124Y-76950913D02*
X106233219Y-76912818D01*
X106233219Y-76912818D02*
X106309410Y-76874722D01*
X106309410Y-76874722D02*
X106461791Y-76836627D01*
X106461791Y-76836627D02*
X106537981Y-76798532D01*
X106537981Y-76798532D02*
X106576076Y-76760437D01*
X106576076Y-76760437D02*
X106614172Y-76684246D01*
X106614172Y-76684246D02*
X106614172Y-76608056D01*
X106614172Y-76608056D02*
X106576076Y-76531865D01*
X106576076Y-76531865D02*
X106537981Y-76493770D01*
X106537981Y-76493770D02*
X106461791Y-76455675D01*
X106461791Y-76455675D02*
X106271314Y-76455675D01*
X106271314Y-76455675D02*
X106157029Y-76493770D01*
X105814171Y-77255675D02*
X105814171Y-76722341D01*
X105814171Y-76874722D02*
X105776076Y-76798532D01*
X105776076Y-76798532D02*
X105737981Y-76760437D01*
X105737981Y-76760437D02*
X105661790Y-76722341D01*
X105661790Y-76722341D02*
X105585600Y-76722341D01*
X105318933Y-77255675D02*
X105318933Y-76722341D01*
X105318933Y-76455675D02*
X105357029Y-76493770D01*
X105357029Y-76493770D02*
X105318933Y-76531865D01*
X105318933Y-76531865D02*
X105280838Y-76493770D01*
X105280838Y-76493770D02*
X105318933Y-76455675D01*
X105318933Y-76455675D02*
X105318933Y-76531865D01*
X105014172Y-76722341D02*
X104823696Y-77255675D01*
X104823696Y-77255675D02*
X104633219Y-76722341D01*
X103985600Y-77255675D02*
X103985600Y-76836627D01*
X103985600Y-76836627D02*
X104023695Y-76760437D01*
X104023695Y-76760437D02*
X104099886Y-76722341D01*
X104099886Y-76722341D02*
X104252267Y-76722341D01*
X104252267Y-76722341D02*
X104328457Y-76760437D01*
X103985600Y-77217580D02*
X104061791Y-77255675D01*
X104061791Y-77255675D02*
X104252267Y-77255675D01*
X104252267Y-77255675D02*
X104328457Y-77217580D01*
X104328457Y-77217580D02*
X104366553Y-77141389D01*
X104366553Y-77141389D02*
X104366553Y-77065199D01*
X104366553Y-77065199D02*
X104328457Y-76989008D01*
X104328457Y-76989008D02*
X104252267Y-76950913D01*
X104252267Y-76950913D02*
X104061791Y-76950913D01*
X104061791Y-76950913D02*
X103985600Y-76912818D01*
X103642743Y-77217580D02*
X103566552Y-77255675D01*
X103566552Y-77255675D02*
X103414171Y-77255675D01*
X103414171Y-77255675D02*
X103337981Y-77217580D01*
X103337981Y-77217580D02*
X103299885Y-77141389D01*
X103299885Y-77141389D02*
X103299885Y-77103294D01*
X103299885Y-77103294D02*
X103337981Y-77027103D01*
X103337981Y-77027103D02*
X103414171Y-76989008D01*
X103414171Y-76989008D02*
X103528457Y-76989008D01*
X103528457Y-76989008D02*
X103604647Y-76950913D01*
X103604647Y-76950913D02*
X103642743Y-76874722D01*
X103642743Y-76874722D02*
X103642743Y-76836627D01*
X103642743Y-76836627D02*
X103604647Y-76760437D01*
X103604647Y-76760437D02*
X103528457Y-76722341D01*
X103528457Y-76722341D02*
X103414171Y-76722341D01*
X103414171Y-76722341D02*
X103337981Y-76760437D01*
X103071314Y-76722341D02*
X102766552Y-76722341D01*
X102957028Y-76455675D02*
X102957028Y-77141389D01*
X102957028Y-77141389D02*
X102918933Y-77217580D01*
X102918933Y-77217580D02*
X102842743Y-77255675D01*
X102842743Y-77255675D02*
X102766552Y-77255675D01*
X102157028Y-77255675D02*
X102157028Y-76836627D01*
X102157028Y-76836627D02*
X102195123Y-76760437D01*
X102195123Y-76760437D02*
X102271314Y-76722341D01*
X102271314Y-76722341D02*
X102423695Y-76722341D01*
X102423695Y-76722341D02*
X102499885Y-76760437D01*
X102157028Y-77217580D02*
X102233219Y-77255675D01*
X102233219Y-77255675D02*
X102423695Y-77255675D01*
X102423695Y-77255675D02*
X102499885Y-77217580D01*
X102499885Y-77217580D02*
X102537981Y-77141389D01*
X102537981Y-77141389D02*
X102537981Y-77065199D01*
X102537981Y-77065199D02*
X102499885Y-76989008D01*
X102499885Y-76989008D02*
X102423695Y-76950913D01*
X102423695Y-76950913D02*
X102233219Y-76950913D01*
X102233219Y-76950913D02*
X102157028Y-76912818D01*
X101852266Y-76722341D02*
X101661790Y-77255675D01*
X101661790Y-77255675D02*
X101471313Y-76722341D01*
X100823694Y-77255675D02*
X100823694Y-76836627D01*
X100823694Y-76836627D02*
X100861789Y-76760437D01*
X100861789Y-76760437D02*
X100937980Y-76722341D01*
X100937980Y-76722341D02*
X101090361Y-76722341D01*
X101090361Y-76722341D02*
X101166551Y-76760437D01*
X100823694Y-77217580D02*
X100899885Y-77255675D01*
X100899885Y-77255675D02*
X101090361Y-77255675D01*
X101090361Y-77255675D02*
X101166551Y-77217580D01*
X101166551Y-77217580D02*
X101204647Y-77141389D01*
X101204647Y-77141389D02*
X101204647Y-77065199D01*
X101204647Y-77065199D02*
X101166551Y-76989008D01*
X101166551Y-76989008D02*
X101090361Y-76950913D01*
X101090361Y-76950913D02*
X100899885Y-76950913D01*
X100899885Y-76950913D02*
X100823694Y-76912818D01*
X100214170Y-77560437D02*
X100252265Y-77522341D01*
X100252265Y-77522341D02*
X100328456Y-77408056D01*
X100328456Y-77408056D02*
X100366551Y-77331865D01*
X100366551Y-77331865D02*
X100404646Y-77217580D01*
X100404646Y-77217580D02*
X100442741Y-77027103D01*
X100442741Y-77027103D02*
X100442741Y-76874722D01*
X100442741Y-76874722D02*
X100404646Y-76684246D01*
X100404646Y-76684246D02*
X100366551Y-76569960D01*
X100366551Y-76569960D02*
X100328456Y-76493770D01*
X100328456Y-76493770D02*
X100252265Y-76379484D01*
X100252265Y-76379484D02*
X100214170Y-76341389D01*
X99947504Y-77217580D02*
X99833218Y-77255675D01*
X99833218Y-77255675D02*
X99642742Y-77255675D01*
X99642742Y-77255675D02*
X99566551Y-77217580D01*
X99566551Y-77217580D02*
X99528456Y-77179484D01*
X99528456Y-77179484D02*
X99490361Y-77103294D01*
X99490361Y-77103294D02*
X99490361Y-77027103D01*
X99490361Y-77027103D02*
X99528456Y-76950913D01*
X99528456Y-76950913D02*
X99566551Y-76912818D01*
X99566551Y-76912818D02*
X99642742Y-76874722D01*
X99642742Y-76874722D02*
X99795123Y-76836627D01*
X99795123Y-76836627D02*
X99871313Y-76798532D01*
X99871313Y-76798532D02*
X99909408Y-76760437D01*
X99909408Y-76760437D02*
X99947504Y-76684246D01*
X99947504Y-76684246D02*
X99947504Y-76608056D01*
X99947504Y-76608056D02*
X99909408Y-76531865D01*
X99909408Y-76531865D02*
X99871313Y-76493770D01*
X99871313Y-76493770D02*
X99795123Y-76455675D01*
X99795123Y-76455675D02*
X99604646Y-76455675D01*
X99604646Y-76455675D02*
X99490361Y-76493770D01*
X99147503Y-77255675D02*
X99147503Y-76455675D01*
X98804646Y-77255675D02*
X98804646Y-76836627D01*
X98804646Y-76836627D02*
X98842741Y-76760437D01*
X98842741Y-76760437D02*
X98918932Y-76722341D01*
X98918932Y-76722341D02*
X99033218Y-76722341D01*
X99033218Y-76722341D02*
X99109408Y-76760437D01*
X99109408Y-76760437D02*
X99147503Y-76798532D01*
X98080836Y-77255675D02*
X98080836Y-76836627D01*
X98080836Y-76836627D02*
X98118931Y-76760437D01*
X98118931Y-76760437D02*
X98195122Y-76722341D01*
X98195122Y-76722341D02*
X98347503Y-76722341D01*
X98347503Y-76722341D02*
X98423693Y-76760437D01*
X98080836Y-77217580D02*
X98157027Y-77255675D01*
X98157027Y-77255675D02*
X98347503Y-77255675D01*
X98347503Y-77255675D02*
X98423693Y-77217580D01*
X98423693Y-77217580D02*
X98461789Y-77141389D01*
X98461789Y-77141389D02*
X98461789Y-77065199D01*
X98461789Y-77065199D02*
X98423693Y-76989008D01*
X98423693Y-76989008D02*
X98347503Y-76950913D01*
X98347503Y-76950913D02*
X98157027Y-76950913D01*
X98157027Y-76950913D02*
X98080836Y-76912818D01*
X97357026Y-76722341D02*
X97357026Y-77369960D01*
X97357026Y-77369960D02*
X97395121Y-77446151D01*
X97395121Y-77446151D02*
X97433217Y-77484246D01*
X97433217Y-77484246D02*
X97509407Y-77522341D01*
X97509407Y-77522341D02*
X97623693Y-77522341D01*
X97623693Y-77522341D02*
X97699883Y-77484246D01*
X97357026Y-77217580D02*
X97433217Y-77255675D01*
X97433217Y-77255675D02*
X97585598Y-77255675D01*
X97585598Y-77255675D02*
X97661788Y-77217580D01*
X97661788Y-77217580D02*
X97699883Y-77179484D01*
X97699883Y-77179484D02*
X97737979Y-77103294D01*
X97737979Y-77103294D02*
X97737979Y-76874722D01*
X97737979Y-76874722D02*
X97699883Y-76798532D01*
X97699883Y-76798532D02*
X97661788Y-76760437D01*
X97661788Y-76760437D02*
X97585598Y-76722341D01*
X97585598Y-76722341D02*
X97433217Y-76722341D01*
X97433217Y-76722341D02*
X97357026Y-76760437D01*
X96633216Y-76722341D02*
X96633216Y-77369960D01*
X96633216Y-77369960D02*
X96671311Y-77446151D01*
X96671311Y-77446151D02*
X96709407Y-77484246D01*
X96709407Y-77484246D02*
X96785597Y-77522341D01*
X96785597Y-77522341D02*
X96899883Y-77522341D01*
X96899883Y-77522341D02*
X96976073Y-77484246D01*
X96633216Y-77217580D02*
X96709407Y-77255675D01*
X96709407Y-77255675D02*
X96861788Y-77255675D01*
X96861788Y-77255675D02*
X96937978Y-77217580D01*
X96937978Y-77217580D02*
X96976073Y-77179484D01*
X96976073Y-77179484D02*
X97014169Y-77103294D01*
X97014169Y-77103294D02*
X97014169Y-76874722D01*
X97014169Y-76874722D02*
X96976073Y-76798532D01*
X96976073Y-76798532D02*
X96937978Y-76760437D01*
X96937978Y-76760437D02*
X96861788Y-76722341D01*
X96861788Y-76722341D02*
X96709407Y-76722341D01*
X96709407Y-76722341D02*
X96633216Y-76760437D01*
X96328454Y-76722341D02*
X96137978Y-77255675D01*
X95947501Y-76722341D02*
X96137978Y-77255675D01*
X96137978Y-77255675D02*
X96214168Y-77446151D01*
X96214168Y-77446151D02*
X96252263Y-77484246D01*
X96252263Y-77484246D02*
X96328454Y-77522341D01*
X95718930Y-77560437D02*
X95680835Y-77522341D01*
X95680835Y-77522341D02*
X95604644Y-77408056D01*
X95604644Y-77408056D02*
X95566549Y-77331865D01*
X95566549Y-77331865D02*
X95528454Y-77217580D01*
X95528454Y-77217580D02*
X95490358Y-77027103D01*
X95490358Y-77027103D02*
X95490358Y-76874722D01*
X95490358Y-76874722D02*
X95528454Y-76684246D01*
X95528454Y-76684246D02*
X95566549Y-76569960D01*
X95566549Y-76569960D02*
X95604644Y-76493770D01*
X95604644Y-76493770D02*
X95680835Y-76379484D01*
X95680835Y-76379484D02*
X95718930Y-76341389D01*
D11*
%TO.C,G\u002A\u002A\u002A*%
G36*
X88945083Y-84673996D02*
G01*
X88945071Y-85269736D01*
X88827876Y-85269736D01*
X88710681Y-85269736D01*
X88710681Y-85019721D01*
X88710681Y-84769705D01*
X88577861Y-84769705D01*
X88445040Y-84769705D01*
X88445040Y-85019721D01*
X88445040Y-85269736D01*
X88327845Y-85269736D01*
X88210651Y-85269736D01*
X88210651Y-84675949D01*
X88210651Y-84082163D01*
X88327845Y-84082163D01*
X88445040Y-84082163D01*
X88445040Y-84322412D01*
X88445040Y-84562661D01*
X88577861Y-84562661D01*
X88710681Y-84562661D01*
X88710681Y-84322804D01*
X88710681Y-84082946D01*
X88827888Y-84080601D01*
X88945094Y-84078256D01*
X88945083Y-84673996D01*
G37*
G36*
X84548161Y-84076116D02*
G01*
X84672445Y-84078256D01*
X84767200Y-84330604D01*
X84791700Y-84395655D01*
X84812564Y-84450450D01*
X84829160Y-84493078D01*
X84842053Y-84524818D01*
X84851808Y-84546950D01*
X84858991Y-84560754D01*
X84864167Y-84567509D01*
X84867901Y-84568496D01*
X84870759Y-84564993D01*
X84872777Y-84560371D01*
X84880309Y-84541637D01*
X84892191Y-84511215D01*
X84907691Y-84471007D01*
X84926078Y-84422916D01*
X84946620Y-84368844D01*
X84968586Y-84310693D01*
X85057608Y-84074350D01*
X85181441Y-84074350D01*
X85305275Y-84074350D01*
X85299702Y-84091929D01*
X85297588Y-84097523D01*
X85289717Y-84116901D01*
X85276795Y-84148057D01*
X85259477Y-84189431D01*
X85238418Y-84239464D01*
X85214274Y-84296598D01*
X85187699Y-84359274D01*
X85159348Y-84425934D01*
X85142621Y-84465224D01*
X85114203Y-84532055D01*
X85087418Y-84595151D01*
X85063015Y-84652737D01*
X85041745Y-84703041D01*
X85024357Y-84744291D01*
X85011601Y-84774714D01*
X85004229Y-84792538D01*
X84998309Y-84807468D01*
X84993584Y-84821266D01*
X84990023Y-84835732D01*
X84987462Y-84853004D01*
X84985737Y-84875217D01*
X84984681Y-84904509D01*
X84984132Y-84943017D01*
X84983923Y-84992877D01*
X84983890Y-85056226D01*
X84983890Y-85269736D01*
X84866695Y-85269736D01*
X84749500Y-85269736D01*
X84749487Y-85052926D01*
X84749474Y-84836115D01*
X84586675Y-84455045D01*
X84423876Y-84073975D01*
X84548161Y-84076116D01*
G37*
G36*
X88144364Y-82114700D02*
G01*
X88130911Y-82188184D01*
X88104480Y-82257633D01*
X88066282Y-82321320D01*
X88017525Y-82377519D01*
X87959420Y-82424503D01*
X87893175Y-82460545D01*
X87820002Y-82483918D01*
X87760719Y-82492996D01*
X87690190Y-82492368D01*
X87620936Y-82477944D01*
X87549607Y-82449294D01*
X87490182Y-82412948D01*
X87434525Y-82363783D01*
X87387443Y-82305894D01*
X87351286Y-82242190D01*
X87328404Y-82175578D01*
X87324027Y-82149178D01*
X87320916Y-82105122D01*
X87320977Y-82078133D01*
X87488094Y-82078133D01*
X87488122Y-82087999D01*
X87489105Y-82121357D01*
X87492224Y-82145581D01*
X87498470Y-82165893D01*
X87508833Y-82187515D01*
X87531280Y-82222461D01*
X87574019Y-82267670D01*
X87624677Y-82302085D01*
X87642488Y-82309644D01*
X87685445Y-82319789D01*
X87733575Y-82323346D01*
X87780795Y-82320077D01*
X87821022Y-82309744D01*
X87869083Y-82284847D01*
X87915576Y-82245391D01*
X87950429Y-82195626D01*
X87973116Y-82136154D01*
X87977680Y-82114867D01*
X87980445Y-82055827D01*
X87967969Y-82000013D01*
X87940351Y-81947728D01*
X87897685Y-81899275D01*
X87872810Y-81878113D01*
X87829121Y-81851241D01*
X87782043Y-81836528D01*
X87726807Y-81832101D01*
X87697730Y-81833964D01*
X87640684Y-81848665D01*
X87588790Y-81876905D01*
X87544142Y-81917371D01*
X87508833Y-81968752D01*
X87505938Y-81974298D01*
X87496646Y-81995135D01*
X87491235Y-82015905D01*
X87488714Y-82041830D01*
X87488094Y-82078133D01*
X87320977Y-82078133D01*
X87321024Y-82057458D01*
X87324281Y-82012501D01*
X87330618Y-81976565D01*
X87344822Y-81933263D01*
X87379382Y-81864593D01*
X87425174Y-81804482D01*
X87480475Y-81753937D01*
X87543557Y-81713964D01*
X87612697Y-81685569D01*
X87686170Y-81669758D01*
X87762249Y-81667538D01*
X87839209Y-81679915D01*
X87865303Y-81687754D01*
X87933748Y-81718893D01*
X87995390Y-81762471D01*
X88048625Y-81816656D01*
X88091845Y-81879619D01*
X88123442Y-81949531D01*
X88141812Y-82024561D01*
X88143630Y-82038907D01*
X88143794Y-82055827D01*
X88144364Y-82114700D01*
G37*
G36*
X86865830Y-82108545D02*
G01*
X86855184Y-82178115D01*
X86851128Y-82192617D01*
X86821556Y-82265767D01*
X86779637Y-82331286D01*
X86726965Y-82387700D01*
X86665135Y-82433534D01*
X86595743Y-82467315D01*
X86520381Y-82487568D01*
X86485372Y-82491992D01*
X86410391Y-82491226D01*
X86336060Y-82475843D01*
X86260377Y-82445521D01*
X86258085Y-82444381D01*
X86199847Y-82407049D01*
X86147179Y-82357703D01*
X86102548Y-82299539D01*
X86068424Y-82235756D01*
X86047276Y-82169551D01*
X86041027Y-82124705D01*
X86039387Y-82078133D01*
X86206749Y-82078133D01*
X86207431Y-82114712D01*
X86210130Y-82141610D01*
X86215722Y-82162895D01*
X86225085Y-82183609D01*
X86248608Y-82220710D01*
X86290436Y-82265436D01*
X86339442Y-82298906D01*
X86345164Y-82301781D01*
X86372175Y-82312501D01*
X86402007Y-82318587D01*
X86441011Y-82321450D01*
X86496935Y-82319669D01*
X86547966Y-82307859D01*
X86592444Y-82284613D01*
X86633553Y-82248728D01*
X86638673Y-82243183D01*
X86672994Y-82194430D01*
X86693732Y-82141677D01*
X86701507Y-82087013D01*
X86696941Y-82032528D01*
X86680656Y-81980312D01*
X86653274Y-81932452D01*
X86615415Y-81891040D01*
X86567701Y-81858164D01*
X86510755Y-81835914D01*
X86470791Y-81828986D01*
X86412845Y-81831306D01*
X86357323Y-81847449D01*
X86306443Y-81876377D01*
X86262423Y-81917052D01*
X86227480Y-81968438D01*
X86224778Y-81973656D01*
X86215409Y-81994758D01*
X86209943Y-82015704D01*
X86207387Y-82041745D01*
X86206749Y-82078133D01*
X86039387Y-82078133D01*
X86039136Y-82070991D01*
X86042156Y-82018346D01*
X86049991Y-81973685D01*
X86050160Y-81973054D01*
X86076030Y-81904532D01*
X86114546Y-81840769D01*
X86163522Y-81783918D01*
X86220776Y-81736134D01*
X86284123Y-81699572D01*
X86351379Y-81676385D01*
X86387137Y-81671075D01*
X86432061Y-81668686D01*
X86479753Y-81669226D01*
X86524161Y-81672625D01*
X86559234Y-81678813D01*
X86609135Y-81696447D01*
X86672070Y-81730620D01*
X86730208Y-81775079D01*
X86779974Y-81826995D01*
X86817792Y-81883537D01*
X86822720Y-81893188D01*
X86849069Y-81961913D01*
X86863615Y-82035088D01*
X86865181Y-82087013D01*
X86865830Y-82108545D01*
G37*
G36*
X87980433Y-84877382D02*
G01*
X88000896Y-84958890D01*
X88019569Y-85033339D01*
X88036165Y-85099574D01*
X88050392Y-85156438D01*
X88061962Y-85202774D01*
X88070584Y-85237426D01*
X88075970Y-85259238D01*
X88077830Y-85267054D01*
X88075631Y-85267566D01*
X88060954Y-85268425D01*
X88034771Y-85269113D01*
X87999762Y-85269570D01*
X87958602Y-85269736D01*
X87839373Y-85269736D01*
X87812940Y-85148635D01*
X87786507Y-85027534D01*
X87639808Y-85027534D01*
X87493109Y-85027534D01*
X87481235Y-85080271D01*
X87480210Y-85084846D01*
X87472437Y-85120403D01*
X87463596Y-85161933D01*
X87455410Y-85201372D01*
X87441458Y-85269736D01*
X87315035Y-85269736D01*
X87188611Y-85269736D01*
X87246479Y-85045113D01*
X87254584Y-85013643D01*
X87270928Y-84950123D01*
X87289980Y-84876034D01*
X87302392Y-84827741D01*
X87540777Y-84827741D01*
X87540962Y-84827764D01*
X87550600Y-84827775D01*
X87572494Y-84827473D01*
X87603622Y-84826907D01*
X87640961Y-84826126D01*
X87739281Y-84823949D01*
X87691000Y-84607080D01*
X87688880Y-84597561D01*
X87676434Y-84541870D01*
X87665060Y-84491285D01*
X87655220Y-84447835D01*
X87647375Y-84413551D01*
X87641986Y-84390463D01*
X87639516Y-84380601D01*
X87638985Y-84380727D01*
X87635545Y-84390868D01*
X87629496Y-84413871D01*
X87621257Y-84447965D01*
X87611250Y-84491380D01*
X87599894Y-84542343D01*
X87587612Y-84599084D01*
X87583264Y-84619488D01*
X87571480Y-84675177D01*
X87561065Y-84724977D01*
X87552402Y-84767011D01*
X87545877Y-84799401D01*
X87541874Y-84820270D01*
X87540777Y-84827741D01*
X87302392Y-84827741D01*
X87311002Y-84794243D01*
X87333258Y-84707618D01*
X87356010Y-84619028D01*
X87378521Y-84531339D01*
X87400055Y-84447421D01*
X87495763Y-84074352D01*
X87638350Y-84074351D01*
X87682049Y-84074589D01*
X87721640Y-84075286D01*
X87752950Y-84076357D01*
X87773532Y-84077717D01*
X87780937Y-84079283D01*
X87781050Y-84079927D01*
X87783802Y-84091634D01*
X87790011Y-84117046D01*
X87799388Y-84155002D01*
X87811644Y-84204339D01*
X87826488Y-84263896D01*
X87843630Y-84332510D01*
X87862781Y-84409018D01*
X87883650Y-84492260D01*
X87905947Y-84581072D01*
X87929383Y-84674293D01*
X87935301Y-84697816D01*
X87958472Y-84789972D01*
X87967008Y-84823949D01*
X87980433Y-84877382D01*
G37*
G36*
X89536558Y-84065378D02*
G01*
X89601304Y-84080621D01*
X89659964Y-84105709D01*
X89709652Y-84140704D01*
X89735194Y-84169285D01*
X89762864Y-84214089D01*
X89784853Y-84265665D01*
X89798758Y-84319203D01*
X89803172Y-84374345D01*
X89797128Y-84440221D01*
X89780187Y-84504507D01*
X89753458Y-84563176D01*
X89718049Y-84612202D01*
X89686033Y-84642527D01*
X89638151Y-84679805D01*
X89577360Y-84721130D01*
X89504585Y-84765835D01*
X89486854Y-84776355D01*
X89434134Y-84809248D01*
X89393848Y-84837930D01*
X89364588Y-84864109D01*
X89344945Y-84889492D01*
X89333511Y-84915788D01*
X89328878Y-84944704D01*
X89329635Y-84977949D01*
X89332967Y-85000483D01*
X89348380Y-85039257D01*
X89375035Y-85067278D01*
X89412626Y-85084288D01*
X89460849Y-85090025D01*
X89501434Y-85085889D01*
X89538149Y-85070702D01*
X89565081Y-85043848D01*
X89582741Y-85004794D01*
X89591636Y-84953005D01*
X89595688Y-84902526D01*
X89707906Y-84902526D01*
X89820125Y-84902526D01*
X89820125Y-84944431D01*
X89815808Y-85007231D01*
X89798792Y-85078021D01*
X89769483Y-85140085D01*
X89728541Y-85192611D01*
X89676629Y-85234787D01*
X89614409Y-85265801D01*
X89542543Y-85284843D01*
X89538415Y-85285517D01*
X89457378Y-85292254D01*
X89381544Y-85286440D01*
X89312068Y-85268902D01*
X89250108Y-85240466D01*
X89196820Y-85201960D01*
X89153360Y-85154210D01*
X89120885Y-85098045D01*
X89100552Y-85034290D01*
X89093517Y-84963773D01*
X89095072Y-84924196D01*
X89105275Y-84862684D01*
X89125885Y-84807101D01*
X89157931Y-84755948D01*
X89202440Y-84707723D01*
X89260440Y-84660925D01*
X89332959Y-84614053D01*
X89361204Y-84597295D01*
X89415288Y-84564774D01*
X89458052Y-84538125D01*
X89491083Y-84516105D01*
X89515968Y-84497476D01*
X89534294Y-84480996D01*
X89547648Y-84465424D01*
X89557617Y-84449521D01*
X89565788Y-84432045D01*
X89566947Y-84429207D01*
X89578031Y-84384342D01*
X89575553Y-84342971D01*
X89560799Y-84307177D01*
X89535056Y-84279041D01*
X89499613Y-84260647D01*
X89455757Y-84254078D01*
X89424105Y-84257146D01*
X89388805Y-84271520D01*
X89362808Y-84297995D01*
X89345783Y-84336949D01*
X89337398Y-84388760D01*
X89333620Y-84441560D01*
X89225288Y-84441560D01*
X89116956Y-84441560D01*
X89116956Y-84388511D01*
X89121124Y-84328523D01*
X89137335Y-84260679D01*
X89165173Y-84201049D01*
X89203995Y-84151384D01*
X89222562Y-84134704D01*
X89274443Y-84101637D01*
X89334669Y-84078109D01*
X89400354Y-84064183D01*
X89468613Y-84059919D01*
X89536558Y-84065378D01*
G37*
G36*
X85832635Y-84063854D02*
G01*
X85902710Y-84076711D01*
X85964419Y-84098465D01*
X85976428Y-84104549D01*
X86024225Y-84138453D01*
X86066783Y-84183934D01*
X86101536Y-84237841D01*
X86125921Y-84297020D01*
X86130240Y-84312337D01*
X86135417Y-84335117D01*
X86139561Y-84360717D01*
X86142783Y-84390964D01*
X86145194Y-84427689D01*
X86146906Y-84472721D01*
X86148030Y-84527889D01*
X86148677Y-84595022D01*
X86148958Y-84675949D01*
X86148976Y-84738300D01*
X86148718Y-84805904D01*
X86148087Y-84861023D01*
X86147020Y-84905425D01*
X86145454Y-84940874D01*
X86143329Y-84969138D01*
X86140582Y-84991982D01*
X86137150Y-85011173D01*
X86133117Y-85028870D01*
X86108946Y-85101914D01*
X86075105Y-85162780D01*
X86031400Y-85211693D01*
X85977641Y-85248880D01*
X85913634Y-85274568D01*
X85912931Y-85274768D01*
X85882785Y-85279930D01*
X85839352Y-85282563D01*
X85784720Y-85282538D01*
X85740471Y-85280474D01*
X85685203Y-85273443D01*
X85640207Y-85260883D01*
X85602596Y-85241894D01*
X85569480Y-85215577D01*
X85556680Y-85204065D01*
X85542050Y-85192950D01*
X85534752Y-85190257D01*
X85534565Y-85190471D01*
X85531899Y-85200974D01*
X85530798Y-85219615D01*
X85530756Y-85227631D01*
X85529230Y-85247580D01*
X85523406Y-85259968D01*
X85510452Y-85266592D01*
X85487538Y-85269249D01*
X85451833Y-85269736D01*
X85382352Y-85269736D01*
X85382352Y-84953310D01*
X85382352Y-84636884D01*
X85577676Y-84636884D01*
X85773001Y-84636884D01*
X85773001Y-84726734D01*
X85773001Y-84816583D01*
X85684552Y-84816583D01*
X85596103Y-84816583D01*
X85599277Y-84884947D01*
X85599327Y-84886017D01*
X85602757Y-84935648D01*
X85608367Y-84973029D01*
X85617165Y-85001428D01*
X85630157Y-85024118D01*
X85648351Y-85044368D01*
X85655151Y-85050442D01*
X85695432Y-85074408D01*
X85742349Y-85085477D01*
X85793074Y-85082896D01*
X85795446Y-85082440D01*
X85834432Y-85069582D01*
X85864739Y-85046782D01*
X85890195Y-85011215D01*
X85909728Y-84976749D01*
X85909728Y-84675949D01*
X85909722Y-84620218D01*
X85909649Y-84553865D01*
X85909422Y-84500344D01*
X85908952Y-84458020D01*
X85908150Y-84425257D01*
X85906926Y-84400422D01*
X85905194Y-84381878D01*
X85902864Y-84367992D01*
X85899847Y-84357128D01*
X85896054Y-84347651D01*
X85891398Y-84337928D01*
X85885862Y-84327780D01*
X85857450Y-84294392D01*
X85820566Y-84272073D01*
X85777978Y-84261614D01*
X85732453Y-84263806D01*
X85686760Y-84279441D01*
X85681556Y-84282185D01*
X85652434Y-84304102D01*
X85631628Y-84334181D01*
X85617991Y-84374651D01*
X85610377Y-84427740D01*
X85605022Y-84492344D01*
X85492498Y-84494519D01*
X85379974Y-84496694D01*
X85385116Y-84420296D01*
X85392118Y-84354775D01*
X85408322Y-84281500D01*
X85433103Y-84220126D01*
X85467009Y-84169666D01*
X85510588Y-84129134D01*
X85564389Y-84097543D01*
X85615895Y-84078764D01*
X85684858Y-84064871D01*
X85758561Y-84059904D01*
X85832635Y-84063854D01*
G37*
G36*
X86832786Y-84070414D02*
G01*
X86857899Y-84075820D01*
X86918893Y-84095697D01*
X86968987Y-84123719D01*
X87010634Y-84161138D01*
X87033896Y-84188882D01*
X87054569Y-84218912D01*
X87071293Y-84251134D01*
X87084522Y-84287464D01*
X87094710Y-84329820D01*
X87102311Y-84380117D01*
X87107780Y-84440271D01*
X87111571Y-84512200D01*
X87114137Y-84597820D01*
X87115637Y-84688209D01*
X87115551Y-84782347D01*
X87113213Y-84863561D01*
X87108383Y-84933259D01*
X87100822Y-84992851D01*
X87090290Y-85043747D01*
X87076546Y-85087354D01*
X87059353Y-85125083D01*
X87038469Y-85158342D01*
X87013655Y-85188541D01*
X87012059Y-85190263D01*
X86974482Y-85225163D01*
X86933773Y-85250684D01*
X86883722Y-85270754D01*
X86874515Y-85273612D01*
X86850489Y-85279202D01*
X86823070Y-85282433D01*
X86788197Y-85283663D01*
X86741810Y-85283248D01*
X86733679Y-85283070D01*
X86693033Y-85281736D01*
X86663388Y-85279488D01*
X86640780Y-85275701D01*
X86621245Y-85269750D01*
X86600820Y-85261008D01*
X86582698Y-85251729D01*
X86552959Y-85233682D01*
X86529472Y-85216208D01*
X86528078Y-85214986D01*
X86508520Y-85198752D01*
X86497586Y-85193161D01*
X86492800Y-85198009D01*
X86491688Y-85213092D01*
X86491601Y-85222279D01*
X86489988Y-85244813D01*
X86484144Y-85258782D01*
X86471222Y-85266230D01*
X86448375Y-85269200D01*
X86412754Y-85269736D01*
X86343348Y-85269736D01*
X86343348Y-84953310D01*
X86343348Y-84636884D01*
X86534766Y-84636884D01*
X86726184Y-84636884D01*
X86726184Y-84726734D01*
X86726184Y-84816583D01*
X86640242Y-84816583D01*
X86554299Y-84816583D01*
X86554299Y-84874796D01*
X86554467Y-84892329D01*
X86557881Y-84944378D01*
X86566295Y-84984987D01*
X86580503Y-85017006D01*
X86601302Y-85043285D01*
X86619899Y-85058711D01*
X86659569Y-85078180D01*
X86703816Y-85086853D01*
X86748743Y-85084660D01*
X86790450Y-85071528D01*
X86825039Y-85047386D01*
X86837113Y-85034328D01*
X86847348Y-85020035D01*
X86855550Y-85003280D01*
X86861940Y-84982415D01*
X86866740Y-84955796D01*
X86870171Y-84921779D01*
X86872454Y-84878718D01*
X86873811Y-84824968D01*
X86874463Y-84758885D01*
X86874631Y-84678822D01*
X86874395Y-84607675D01*
X86873629Y-84538928D01*
X86872371Y-84480292D01*
X86870660Y-84433143D01*
X86868536Y-84398862D01*
X86866038Y-84378825D01*
X86862658Y-84366036D01*
X86844060Y-84326673D01*
X86816435Y-84294003D01*
X86783201Y-84272417D01*
X86757207Y-84264980D01*
X86715795Y-84262798D01*
X86673627Y-84269564D01*
X86635757Y-84284310D01*
X86607242Y-84306071D01*
X86602061Y-84312661D01*
X86586045Y-84344449D01*
X86573588Y-84388156D01*
X86565531Y-84441062D01*
X86560093Y-84496251D01*
X86450567Y-84496251D01*
X86341042Y-84496251D01*
X86346160Y-84423447D01*
X86352332Y-84362525D01*
X86364547Y-84300136D01*
X86382967Y-84247423D01*
X86408665Y-84201450D01*
X86442716Y-84159278D01*
X86478236Y-84127894D01*
X86534205Y-84095556D01*
X86599495Y-84073218D01*
X86672254Y-84061300D01*
X86750634Y-84060225D01*
X86832786Y-84070414D01*
G37*
G36*
X87316628Y-80296351D02*
G01*
X87311069Y-80340118D01*
X87298723Y-80375814D01*
X87276798Y-80411720D01*
X87241838Y-80450796D01*
X87197654Y-80481744D01*
X87155898Y-80505309D01*
X87155898Y-80895213D01*
X87155898Y-81285116D01*
X87284167Y-81285116D01*
X87412436Y-81285116D01*
X87415087Y-81150342D01*
X87415431Y-81133496D01*
X87416642Y-81087589D01*
X87418230Y-81053712D01*
X87420522Y-81029110D01*
X87423845Y-81011028D01*
X87428526Y-80996711D01*
X87434891Y-80983406D01*
X87460866Y-80941978D01*
X87491824Y-80909492D01*
X87531187Y-80883357D01*
X87531594Y-80883136D01*
X87551234Y-80873371D01*
X87570368Y-80866596D01*
X87593027Y-80861982D01*
X87623245Y-80858705D01*
X87665053Y-80855939D01*
X87758296Y-80850631D01*
X87871786Y-80737140D01*
X87985277Y-80623650D01*
X87971997Y-80577968D01*
X87966772Y-80556853D01*
X87963505Y-80517159D01*
X88087054Y-80517159D01*
X88097141Y-80551154D01*
X88121622Y-80581620D01*
X88136066Y-80592343D01*
X88169643Y-80605024D01*
X88203860Y-80603433D01*
X88235952Y-80588010D01*
X88263154Y-80559193D01*
X88272063Y-80543179D01*
X88280065Y-80508514D01*
X88274044Y-80475315D01*
X88254893Y-80446600D01*
X88223507Y-80425386D01*
X88216563Y-80422492D01*
X88179642Y-80414328D01*
X88146970Y-80420871D01*
X88117052Y-80442359D01*
X88110425Y-80449539D01*
X88091452Y-80482374D01*
X88087054Y-80517159D01*
X87963505Y-80517159D01*
X87961895Y-80497601D01*
X87971427Y-80441673D01*
X87994633Y-80390889D01*
X88030781Y-80347071D01*
X88079137Y-80312040D01*
X88103026Y-80299954D01*
X88124347Y-80292947D01*
X88149077Y-80289733D01*
X88183305Y-80288961D01*
X88217417Y-80289725D01*
X88242173Y-80292927D01*
X88263496Y-80299916D01*
X88287473Y-80312040D01*
X88326141Y-80337687D01*
X88357619Y-80370060D01*
X88384728Y-80413058D01*
X88392341Y-80430797D01*
X88401619Y-80473924D01*
X88402401Y-80508514D01*
X88402704Y-80521941D01*
X88395709Y-80569279D01*
X88380744Y-80610370D01*
X88362872Y-80638987D01*
X88323885Y-80679860D01*
X88276459Y-80709517D01*
X88223028Y-80726968D01*
X88166025Y-80731225D01*
X88107883Y-80721299D01*
X88077525Y-80712203D01*
X87954480Y-80833747D01*
X87931850Y-80856029D01*
X87890874Y-80895484D01*
X87857242Y-80925585D01*
X87828551Y-80947593D01*
X87802398Y-80962771D01*
X87776379Y-80972380D01*
X87748091Y-80977682D01*
X87715132Y-80979938D01*
X87675097Y-80980410D01*
X87661754Y-80980455D01*
X87630388Y-80981364D01*
X87609286Y-80983996D01*
X87594432Y-80989081D01*
X87581813Y-80997347D01*
X87566785Y-81011231D01*
X87555009Y-81028534D01*
X87546945Y-81051009D01*
X87541964Y-81081257D01*
X87539437Y-81121881D01*
X87538734Y-81175483D01*
X87538734Y-81285116D01*
X87873996Y-81285116D01*
X87895827Y-81285118D01*
X87974337Y-81285192D01*
X88039197Y-81285414D01*
X88091990Y-81285845D01*
X88134297Y-81286547D01*
X88167701Y-81287579D01*
X88193784Y-81289003D01*
X88214129Y-81290880D01*
X88230317Y-81293270D01*
X88243931Y-81296235D01*
X88256553Y-81299835D01*
X88257928Y-81300266D01*
X88315864Y-81323169D01*
X88364921Y-81353927D01*
X88411082Y-81396273D01*
X88425207Y-81411688D01*
X88451263Y-81444234D01*
X88471385Y-81477353D01*
X88486274Y-81513540D01*
X88496633Y-81555286D01*
X88503163Y-81605084D01*
X88506566Y-81665428D01*
X88507544Y-81738809D01*
X88507544Y-81884513D01*
X88572378Y-81888558D01*
X88592544Y-81890271D01*
X88646899Y-81901204D01*
X88690593Y-81921628D01*
X88725804Y-81952831D01*
X88754714Y-81996097D01*
X88758806Y-82004912D01*
X88762357Y-82016414D01*
X88765106Y-82031819D01*
X88767194Y-82053081D01*
X88768757Y-82082154D01*
X88769935Y-82120991D01*
X88770866Y-82171546D01*
X88771687Y-82235773D01*
X88772320Y-82306020D01*
X88772286Y-82362856D01*
X88771329Y-82408010D01*
X88769193Y-82443455D01*
X88765626Y-82471164D01*
X88760373Y-82493108D01*
X88753179Y-82511261D01*
X88743791Y-82527595D01*
X88731954Y-82544082D01*
X88718491Y-82559817D01*
X88678654Y-82590718D01*
X88628814Y-82610514D01*
X88568095Y-82619609D01*
X88507544Y-82623143D01*
X88507544Y-82761769D01*
X88507544Y-82878326D01*
X88507526Y-82902403D01*
X88507519Y-82912278D01*
X88507243Y-82980993D01*
X88506607Y-83036598D01*
X88505540Y-83080849D01*
X88503973Y-83115506D01*
X88501835Y-83142327D01*
X88499056Y-83163069D01*
X88495567Y-83179490D01*
X88484556Y-83214262D01*
X88453128Y-83277407D01*
X88410258Y-83331627D01*
X88357526Y-83375462D01*
X88296508Y-83407455D01*
X88228783Y-83426147D01*
X88228005Y-83426269D01*
X88207368Y-83428217D01*
X88173788Y-83429970D01*
X88129795Y-83431460D01*
X88077919Y-83432615D01*
X88020689Y-83433364D01*
X87960635Y-83433637D01*
X87737965Y-83433679D01*
X87737965Y-83553951D01*
X87737798Y-83599058D01*
X87737085Y-83633115D01*
X87735542Y-83656688D01*
X87732884Y-83672394D01*
X87728826Y-83682852D01*
X87723082Y-83690682D01*
X87708198Y-83707140D01*
X87097828Y-83707140D01*
X87051420Y-83707136D01*
X86944031Y-83707085D01*
X86850840Y-83706960D01*
X86770825Y-83706740D01*
X86702962Y-83706405D01*
X86646226Y-83705937D01*
X86599594Y-83705314D01*
X86562043Y-83704518D01*
X86532548Y-83703528D01*
X86510087Y-83702324D01*
X86493634Y-83700887D01*
X86482167Y-83699197D01*
X86474662Y-83697233D01*
X86470094Y-83694977D01*
X86465832Y-83691780D01*
X86460501Y-83685813D01*
X86456854Y-83676703D01*
X86454572Y-83661953D01*
X86453336Y-83639068D01*
X86452828Y-83605551D01*
X86452730Y-83558905D01*
X86452730Y-83434994D01*
X86200761Y-83432100D01*
X86195050Y-83432034D01*
X86126018Y-83431173D01*
X86070574Y-83430275D01*
X86026819Y-83429213D01*
X85992856Y-83427863D01*
X85966786Y-83426098D01*
X85946712Y-83423792D01*
X85930736Y-83420820D01*
X85916960Y-83417054D01*
X85903487Y-83412370D01*
X85895686Y-83409355D01*
X85833706Y-83376627D01*
X85778984Y-83332096D01*
X85734107Y-83278257D01*
X85701661Y-83217607D01*
X85696939Y-83205398D01*
X85692978Y-83193188D01*
X85689830Y-83179610D01*
X85687379Y-83162881D01*
X85685509Y-83141219D01*
X85684105Y-83112842D01*
X85683052Y-83075968D01*
X85682233Y-83028815D01*
X85681534Y-82969601D01*
X85680894Y-82902403D01*
X85835505Y-82902403D01*
X85835505Y-83012831D01*
X85835541Y-83022984D01*
X85836452Y-83065370D01*
X85838400Y-83103755D01*
X85841139Y-83134264D01*
X85844423Y-83153025D01*
X85844933Y-83154684D01*
X85864260Y-83193718D01*
X85894690Y-83229215D01*
X85931969Y-83256167D01*
X85964419Y-83273519D01*
X87081675Y-83274868D01*
X87195651Y-83274974D01*
X87323325Y-83275017D01*
X87446116Y-83274977D01*
X87563129Y-83274860D01*
X87673469Y-83274668D01*
X87776240Y-83274405D01*
X87870548Y-83274075D01*
X87955497Y-83273681D01*
X88030191Y-83273228D01*
X88093736Y-83272718D01*
X88145236Y-83272156D01*
X88183796Y-83271546D01*
X88208520Y-83270890D01*
X88218514Y-83270193D01*
X88226801Y-83267466D01*
X88274922Y-83243368D01*
X88313070Y-83209059D01*
X88339150Y-83166342D01*
X88341924Y-83158631D01*
X88346334Y-83138473D01*
X88349224Y-83110311D01*
X88350804Y-83071614D01*
X88351284Y-83019848D01*
X88351284Y-82902403D01*
X88090722Y-82902403D01*
X87830159Y-82902403D01*
X87799688Y-82924836D01*
X87793016Y-82929918D01*
X87767608Y-82951443D01*
X87745778Y-82972702D01*
X87740893Y-82977787D01*
X87699218Y-83008820D01*
X87649071Y-83028288D01*
X87593425Y-83034976D01*
X87564990Y-83033666D01*
X87530173Y-83026839D01*
X87497359Y-83012603D01*
X87462822Y-82989211D01*
X87422839Y-82954915D01*
X87422578Y-82954675D01*
X87385460Y-82923067D01*
X87355245Y-82904051D01*
X87329624Y-82897606D01*
X87306287Y-82903714D01*
X87282925Y-82922354D01*
X87257230Y-82953508D01*
X87242229Y-82971988D01*
X87201331Y-83007200D01*
X87154244Y-83028158D01*
X87100420Y-83035147D01*
X87056865Y-83031835D01*
X87007827Y-83016711D01*
X86966092Y-82988426D01*
X86929734Y-82945973D01*
X86923141Y-82937020D01*
X86896068Y-82911292D01*
X86867252Y-82899664D01*
X86838250Y-82902868D01*
X86834341Y-82904708D01*
X86816572Y-82916359D01*
X86792933Y-82934791D01*
X86767442Y-82956936D01*
X86763193Y-82960811D01*
X86724764Y-82993395D01*
X86691636Y-83015354D01*
X86659984Y-83028302D01*
X86625981Y-83033854D01*
X86585802Y-83033627D01*
X86559168Y-83031598D01*
X86532034Y-83027108D01*
X86509931Y-83019064D01*
X86486753Y-83005748D01*
X86473071Y-82996383D01*
X86444784Y-82974309D01*
X86421478Y-82952957D01*
X86413869Y-82945040D01*
X86401946Y-82933270D01*
X86390257Y-82923892D01*
X86377040Y-82916636D01*
X86360534Y-82911229D01*
X86338975Y-82907399D01*
X86310602Y-82904876D01*
X86273653Y-82903386D01*
X86226364Y-82902659D01*
X86166974Y-82902421D01*
X86093721Y-82902403D01*
X85835505Y-82902403D01*
X85680894Y-82902403D01*
X85680838Y-82896543D01*
X85679605Y-82761015D01*
X85835505Y-82761015D01*
X86107006Y-82763346D01*
X86113259Y-82763399D01*
X86189305Y-82764086D01*
X86251670Y-82764965D01*
X86302164Y-82766398D01*
X86342596Y-82768748D01*
X86374776Y-82772380D01*
X86400514Y-82777656D01*
X86421618Y-82784939D01*
X86439899Y-82794593D01*
X86457165Y-82806981D01*
X86475227Y-82822466D01*
X86495893Y-82841411D01*
X86513725Y-82857564D01*
X86540623Y-82879944D01*
X86561715Y-82893649D01*
X86580112Y-82900521D01*
X86598925Y-82902403D01*
X86610272Y-82901501D01*
X86627243Y-82896066D01*
X86646817Y-82884217D01*
X86671640Y-82864247D01*
X86704360Y-82834449D01*
X86729348Y-82812498D01*
X86771798Y-82783607D01*
X86813467Y-82767220D01*
X86857303Y-82761941D01*
X86891388Y-82764593D01*
X86939954Y-82780277D01*
X86981699Y-82810011D01*
X87016566Y-82853761D01*
X87032961Y-82874128D01*
X87064588Y-82894980D01*
X87101420Y-82902403D01*
X87115241Y-82900732D01*
X87129675Y-82894061D01*
X87146103Y-82880435D01*
X87166848Y-82857906D01*
X87194231Y-82824525D01*
X87195161Y-82823367D01*
X87231965Y-82789239D01*
X87276068Y-82768869D01*
X87327784Y-82762112D01*
X87364416Y-82765285D01*
X87401134Y-82776850D01*
X87438532Y-82798498D01*
X87480265Y-82831903D01*
X87483250Y-82834526D01*
X87509084Y-82856385D01*
X87533104Y-82875419D01*
X87550454Y-82887763D01*
X87559181Y-82892773D01*
X87583803Y-82901408D01*
X87608769Y-82900455D01*
X87636277Y-82889141D01*
X87668521Y-82866690D01*
X87707696Y-82832330D01*
X87722682Y-82818475D01*
X87740387Y-82803315D01*
X87757675Y-82791131D01*
X87776329Y-82781596D01*
X87798131Y-82774387D01*
X87824864Y-82769178D01*
X87858309Y-82765644D01*
X87900251Y-82763462D01*
X87952470Y-82762305D01*
X88016750Y-82761849D01*
X88094874Y-82761769D01*
X88351284Y-82761769D01*
X88351241Y-82181655D01*
X88351214Y-82122951D01*
X88350984Y-82000391D01*
X88350522Y-81893042D01*
X88349828Y-81800963D01*
X88348903Y-81724214D01*
X88347747Y-81662853D01*
X88346362Y-81616939D01*
X88344749Y-81586532D01*
X88342908Y-81571690D01*
X88333270Y-81548834D01*
X88310383Y-81515995D01*
X88280037Y-81485596D01*
X88246342Y-81462295D01*
X88214557Y-81445282D01*
X87093394Y-81445282D01*
X85972232Y-81445282D01*
X85940447Y-81462295D01*
X85915669Y-81478428D01*
X85884016Y-81507374D01*
X85858716Y-81540014D01*
X85843881Y-81571690D01*
X85843048Y-81576262D01*
X85841306Y-81597920D01*
X85839792Y-81635117D01*
X85838507Y-81687793D01*
X85837452Y-81755888D01*
X85836628Y-81839344D01*
X85836036Y-81938101D01*
X85835675Y-82052099D01*
X85835548Y-82181278D01*
X85835505Y-82761015D01*
X85679605Y-82761015D01*
X85678333Y-82621135D01*
X85633329Y-82621135D01*
X85615951Y-82620703D01*
X85555971Y-82611261D01*
X85505433Y-82589594D01*
X85464626Y-82555864D01*
X85433841Y-82510232D01*
X85413604Y-82469621D01*
X85413680Y-82254345D01*
X85413726Y-82200132D01*
X85413931Y-82147843D01*
X85414440Y-82107422D01*
X85415401Y-82076822D01*
X85416963Y-82053995D01*
X85419276Y-82036892D01*
X85422488Y-82023465D01*
X85426748Y-82011667D01*
X85432204Y-81999450D01*
X85440662Y-81983259D01*
X85473426Y-81941896D01*
X85516561Y-81911629D01*
X85569044Y-81893041D01*
X85629852Y-81886715D01*
X85679245Y-81886715D01*
X85679245Y-81739910D01*
X85679467Y-81701733D01*
X85681526Y-81635040D01*
X85686321Y-81580169D01*
X85694547Y-81534638D01*
X85706902Y-81495966D01*
X85724083Y-81461669D01*
X85746786Y-81429265D01*
X85775707Y-81396273D01*
X85776702Y-81395224D01*
X85822862Y-81353164D01*
X85872047Y-81322612D01*
X85930236Y-81299835D01*
X85932489Y-81299143D01*
X85945247Y-81295641D01*
X85959283Y-81292771D01*
X85976191Y-81290471D01*
X85997566Y-81288678D01*
X86025002Y-81287331D01*
X86060092Y-81286369D01*
X86104431Y-81285728D01*
X86159614Y-81285346D01*
X86227234Y-81285163D01*
X86308886Y-81285116D01*
X86640242Y-81285116D01*
X86640242Y-81167533D01*
X86639934Y-81129596D01*
X86637551Y-81079248D01*
X86631709Y-81041569D01*
X86621113Y-81014766D01*
X86604471Y-80997043D01*
X86580487Y-80986606D01*
X86547868Y-80981659D01*
X86505320Y-80980410D01*
X86490504Y-80980357D01*
X86454698Y-80979275D01*
X86424643Y-80975814D01*
X86397970Y-80968706D01*
X86372313Y-80956677D01*
X86345305Y-80938459D01*
X86314579Y-80912779D01*
X86277766Y-80878368D01*
X86232500Y-80833954D01*
X86109933Y-80712465D01*
X86074190Y-80722472D01*
X86073112Y-80722770D01*
X86028420Y-80729621D01*
X85979846Y-80728394D01*
X85933462Y-80719709D01*
X85895342Y-80704189D01*
X85876534Y-80692033D01*
X85833292Y-80652443D01*
X85802608Y-80604849D01*
X85785429Y-80551027D01*
X85784057Y-80521742D01*
X85908668Y-80521742D01*
X85920661Y-80555717D01*
X85946499Y-80586012D01*
X85968407Y-80599698D01*
X86002092Y-80606828D01*
X86035909Y-80599957D01*
X86066308Y-80579283D01*
X86068386Y-80577176D01*
X86091060Y-80546799D01*
X86099339Y-80515540D01*
X86094161Y-80480063D01*
X86085902Y-80460574D01*
X86063519Y-80434280D01*
X86033973Y-80418524D01*
X86000717Y-80414125D01*
X85967209Y-80421907D01*
X85936901Y-80442688D01*
X85926976Y-80454048D01*
X85910710Y-80486911D01*
X85908668Y-80521742D01*
X85784057Y-80521742D01*
X85782698Y-80492751D01*
X85782956Y-80489775D01*
X85795248Y-80433967D01*
X85819759Y-80385371D01*
X85854399Y-80345161D01*
X85897074Y-80314514D01*
X85945691Y-80294604D01*
X85998160Y-80286605D01*
X86052388Y-80291693D01*
X86106282Y-80311043D01*
X86138433Y-80330796D01*
X86178683Y-80369410D01*
X86206981Y-80416260D01*
X86222601Y-80469466D01*
X86224372Y-80515540D01*
X86224818Y-80527151D01*
X86212908Y-80587436D01*
X86199662Y-80629456D01*
X86300804Y-80731249D01*
X86330882Y-80761092D01*
X86362573Y-80791591D01*
X86389960Y-80816964D01*
X86410848Y-80835184D01*
X86423043Y-80844222D01*
X86435896Y-80848855D01*
X86467035Y-80853712D01*
X86509521Y-80855402D01*
X86514056Y-80855429D01*
X86551108Y-80857265D01*
X86586894Y-80861417D01*
X86614243Y-80867085D01*
X86644723Y-80879832D01*
X86685596Y-80907683D01*
X86721167Y-80943785D01*
X86746767Y-80984018D01*
X86749974Y-80991071D01*
X86755921Y-81006281D01*
X86760077Y-81022347D01*
X86762761Y-81042223D01*
X86764292Y-81068863D01*
X86764989Y-81105220D01*
X86765173Y-81154248D01*
X86765249Y-81285116D01*
X86898070Y-81285116D01*
X87030891Y-81285116D01*
X87030891Y-80894833D01*
X87030891Y-80504551D01*
X87003737Y-80491666D01*
X86990399Y-80484579D01*
X86951223Y-80456011D01*
X86915924Y-80419903D01*
X86890183Y-80381754D01*
X86882225Y-80362840D01*
X86872108Y-80318531D01*
X86870434Y-80284198D01*
X86994399Y-80284198D01*
X87003043Y-80319890D01*
X87026819Y-80352862D01*
X87043548Y-80367681D01*
X87062500Y-80376604D01*
X87087551Y-80378810D01*
X87101518Y-80377987D01*
X87137552Y-80367319D01*
X87166077Y-80346417D01*
X87185066Y-80317947D01*
X87192490Y-80284575D01*
X87186322Y-80248966D01*
X87172303Y-80223606D01*
X87146666Y-80200253D01*
X87115546Y-80187437D01*
X87082253Y-80185258D01*
X87050097Y-80193813D01*
X87022390Y-80213200D01*
X87002442Y-80243517D01*
X87001118Y-80246826D01*
X86994399Y-80284198D01*
X86870434Y-80284198D01*
X86869761Y-80270381D01*
X86875232Y-80224163D01*
X86888569Y-80185646D01*
X86909236Y-80153570D01*
X86948456Y-80111845D01*
X86993986Y-80080188D01*
X87021185Y-80069749D01*
X87065046Y-80062231D01*
X87112852Y-80061746D01*
X87158939Y-80068254D01*
X87197641Y-80081710D01*
X87223440Y-80097207D01*
X87264508Y-80134910D01*
X87298302Y-80185656D01*
X87307441Y-80208596D01*
X87315414Y-80250511D01*
X87316316Y-80284575D01*
X87316628Y-80296351D01*
G37*
D12*
%TO.C,REF\u002A\u002A*%
X96058406Y-85713949D02*
X96084127Y-85729647D01*
X96110778Y-85751227D01*
X96110778Y-86398684D01*
X96084127Y-86420264D01*
X96052767Y-86437739D01*
X96016966Y-86438575D01*
X95985528Y-86418082D01*
X95981652Y-86413416D01*
X95976186Y-86403949D01*
X95971979Y-86390267D01*
X95968867Y-86369748D01*
X95966687Y-86339768D01*
X95965276Y-86297704D01*
X95964471Y-86240932D01*
X95964107Y-86166830D01*
X95964022Y-86072773D01*
X95964022Y-85751227D01*
X95990673Y-85729647D01*
X96014386Y-85714877D01*
X96037400Y-85708067D01*
X96058406Y-85713949D01*
G36*
X96058406Y-85713949D02*
G01*
X96084127Y-85729647D01*
X96110778Y-85751227D01*
X96110778Y-86398684D01*
X96084127Y-86420264D01*
X96052767Y-86437739D01*
X96016966Y-86438575D01*
X95985528Y-86418082D01*
X95981652Y-86413416D01*
X95976186Y-86403949D01*
X95971979Y-86390267D01*
X95968867Y-86369748D01*
X95966687Y-86339768D01*
X95965276Y-86297704D01*
X95964471Y-86240932D01*
X95964107Y-86166830D01*
X95964022Y-86072773D01*
X95964022Y-85751227D01*
X95990673Y-85729647D01*
X96014386Y-85714877D01*
X96037400Y-85708067D01*
X96058406Y-85713949D01*
G37*
X103189137Y-85712463D02*
X103223291Y-85735776D01*
X103251000Y-85763485D01*
X103251000Y-86076537D01*
X103250959Y-86160567D01*
X103250701Y-86234789D01*
X103250030Y-86291541D01*
X103248752Y-86333512D01*
X103246673Y-86363389D01*
X103243599Y-86383861D01*
X103239334Y-86397614D01*
X103233684Y-86407337D01*
X103226455Y-86415717D01*
X103194991Y-86437181D01*
X103159826Y-86438947D01*
X103126822Y-86419267D01*
X103121516Y-86413398D01*
X103116066Y-86404314D01*
X103111900Y-86390973D01*
X103108846Y-86370757D01*
X103106732Y-86341049D01*
X103105386Y-86299232D01*
X103104638Y-86242689D01*
X103104314Y-86168802D01*
X103104245Y-86074956D01*
X103104284Y-85999294D01*
X103104539Y-85921385D01*
X103105183Y-85861375D01*
X103106387Y-85816648D01*
X103108324Y-85784585D01*
X103111164Y-85762571D01*
X103115079Y-85747987D01*
X103120242Y-85738218D01*
X103126822Y-85730645D01*
X103156006Y-85711623D01*
X103189137Y-85712463D01*
G36*
X103189137Y-85712463D02*
G01*
X103223291Y-85735776D01*
X103251000Y-85763485D01*
X103251000Y-86076537D01*
X103250959Y-86160567D01*
X103250701Y-86234789D01*
X103250030Y-86291541D01*
X103248752Y-86333512D01*
X103246673Y-86363389D01*
X103243599Y-86383861D01*
X103239334Y-86397614D01*
X103233684Y-86407337D01*
X103226455Y-86415717D01*
X103194991Y-86437181D01*
X103159826Y-86438947D01*
X103126822Y-86419267D01*
X103121516Y-86413398D01*
X103116066Y-86404314D01*
X103111900Y-86390973D01*
X103108846Y-86370757D01*
X103106732Y-86341049D01*
X103105386Y-86299232D01*
X103104638Y-86242689D01*
X103104314Y-86168802D01*
X103104245Y-86074956D01*
X103104284Y-85999294D01*
X103104539Y-85921385D01*
X103105183Y-85861375D01*
X103106387Y-85816648D01*
X103108324Y-85784585D01*
X103111164Y-85762571D01*
X103115079Y-85747987D01*
X103120242Y-85738218D01*
X103126822Y-85730645D01*
X103156006Y-85711623D01*
X103189137Y-85712463D01*
G37*
X102657562Y-80471850D02*
X102740313Y-80499053D01*
X102815406Y-80544484D01*
X102887298Y-80610302D01*
X102925846Y-80654567D01*
X102965256Y-80712961D01*
X102990446Y-80773586D01*
X103003861Y-80842865D01*
X103007948Y-80927222D01*
X103007669Y-80973307D01*
X103005460Y-81014450D01*
X102999894Y-81046582D01*
X102989586Y-81077122D01*
X102973148Y-81113489D01*
X102959200Y-81140728D01*
X102900665Y-81226429D01*
X102828619Y-81295617D01*
X102744947Y-81346741D01*
X102651531Y-81378250D01*
X102618434Y-81385225D01*
X102577960Y-81392094D01*
X102544999Y-81393919D01*
X102510698Y-81390947D01*
X102466200Y-81383426D01*
X102414934Y-81371002D01*
X102324434Y-81333112D01*
X102245345Y-81278836D01*
X102179528Y-81210770D01*
X102128840Y-81131511D01*
X102095140Y-81043654D01*
X102080286Y-80949795D01*
X102086136Y-80852530D01*
X102112399Y-80756220D01*
X102157418Y-80667494D01*
X102218373Y-80592419D01*
X102293184Y-80532641D01*
X102379768Y-80489809D01*
X102476043Y-80465571D01*
X102579928Y-80461576D01*
X102657562Y-80471850D01*
G36*
X102657562Y-80471850D02*
G01*
X102740313Y-80499053D01*
X102815406Y-80544484D01*
X102887298Y-80610302D01*
X102925846Y-80654567D01*
X102965256Y-80712961D01*
X102990446Y-80773586D01*
X103003861Y-80842865D01*
X103007948Y-80927222D01*
X103007669Y-80973307D01*
X103005460Y-81014450D01*
X102999894Y-81046582D01*
X102989586Y-81077122D01*
X102973148Y-81113489D01*
X102959200Y-81140728D01*
X102900665Y-81226429D01*
X102828619Y-81295617D01*
X102744947Y-81346741D01*
X102651531Y-81378250D01*
X102618434Y-81385225D01*
X102577960Y-81392094D01*
X102544999Y-81393919D01*
X102510698Y-81390947D01*
X102466200Y-81383426D01*
X102414934Y-81371002D01*
X102324434Y-81333112D01*
X102245345Y-81278836D01*
X102179528Y-81210770D01*
X102128840Y-81131511D01*
X102095140Y-81043654D01*
X102080286Y-80949795D01*
X102086136Y-80852530D01*
X102112399Y-80756220D01*
X102157418Y-80667494D01*
X102218373Y-80592419D01*
X102293184Y-80532641D01*
X102379768Y-80489809D01*
X102476043Y-80465571D01*
X102579928Y-80461576D01*
X102657562Y-80471850D01*
G37*
X95358767Y-85708068D02*
X95452890Y-85708158D01*
X95527405Y-85708498D01*
X95584811Y-85709239D01*
X95627611Y-85710535D01*
X95658304Y-85712537D01*
X95679391Y-85715396D01*
X95693373Y-85719266D01*
X95702750Y-85724298D01*
X95710022Y-85730645D01*
X95728828Y-85763362D01*
X95730275Y-85800939D01*
X95713917Y-85834178D01*
X95712557Y-85835631D01*
X95701354Y-85843992D01*
X95684252Y-85849547D01*
X95657082Y-85852840D01*
X95615678Y-85854418D01*
X95555873Y-85854822D01*
X95416511Y-85854822D01*
X95416511Y-86118589D01*
X95416436Y-86194417D01*
X95416028Y-86261083D01*
X95415046Y-86310867D01*
X95413250Y-86346784D01*
X95410399Y-86371850D01*
X95406253Y-86389081D01*
X95400571Y-86401492D01*
X95393114Y-86412100D01*
X95390824Y-86414906D01*
X95359646Y-86437548D01*
X95325266Y-86439112D01*
X95292334Y-86419267D01*
X95285355Y-86411191D01*
X95279883Y-86400593D01*
X95275863Y-86384749D01*
X95273072Y-86360773D01*
X95271288Y-86325774D01*
X95270289Y-86276864D01*
X95269852Y-86211154D01*
X95269756Y-86125756D01*
X95269756Y-85854822D01*
X95123820Y-85854822D01*
X95112720Y-85854821D01*
X95056202Y-85854596D01*
X95017358Y-85853457D01*
X94991965Y-85850657D01*
X94975804Y-85845450D01*
X94964652Y-85837089D01*
X94954289Y-85824826D01*
X94938441Y-85794138D01*
X94941543Y-85760358D01*
X94967187Y-85727822D01*
X94972129Y-85724105D01*
X94982338Y-85719269D01*
X94997764Y-85715506D01*
X95020886Y-85712683D01*
X95054183Y-85710670D01*
X95100137Y-85709333D01*
X95161228Y-85708542D01*
X95239935Y-85708163D01*
X95338740Y-85708067D01*
X95358767Y-85708068D01*
G36*
X95358767Y-85708068D02*
G01*
X95452890Y-85708158D01*
X95527405Y-85708498D01*
X95584811Y-85709239D01*
X95627611Y-85710535D01*
X95658304Y-85712537D01*
X95679391Y-85715396D01*
X95693373Y-85719266D01*
X95702750Y-85724298D01*
X95710022Y-85730645D01*
X95728828Y-85763362D01*
X95730275Y-85800939D01*
X95713917Y-85834178D01*
X95712557Y-85835631D01*
X95701354Y-85843992D01*
X95684252Y-85849547D01*
X95657082Y-85852840D01*
X95615678Y-85854418D01*
X95555873Y-85854822D01*
X95416511Y-85854822D01*
X95416511Y-86118589D01*
X95416436Y-86194417D01*
X95416028Y-86261083D01*
X95415046Y-86310867D01*
X95413250Y-86346784D01*
X95410399Y-86371850D01*
X95406253Y-86389081D01*
X95400571Y-86401492D01*
X95393114Y-86412100D01*
X95390824Y-86414906D01*
X95359646Y-86437548D01*
X95325266Y-86439112D01*
X95292334Y-86419267D01*
X95285355Y-86411191D01*
X95279883Y-86400593D01*
X95275863Y-86384749D01*
X95273072Y-86360773D01*
X95271288Y-86325774D01*
X95270289Y-86276864D01*
X95269852Y-86211154D01*
X95269756Y-86125756D01*
X95269756Y-85854822D01*
X95123820Y-85854822D01*
X95112720Y-85854821D01*
X95056202Y-85854596D01*
X95017358Y-85853457D01*
X94991965Y-85850657D01*
X94975804Y-85845450D01*
X94964652Y-85837089D01*
X94954289Y-85824826D01*
X94938441Y-85794138D01*
X94941543Y-85760358D01*
X94967187Y-85727822D01*
X94972129Y-85724105D01*
X94982338Y-85719269D01*
X94997764Y-85715506D01*
X95020886Y-85712683D01*
X95054183Y-85710670D01*
X95100137Y-85709333D01*
X95161228Y-85708542D01*
X95239935Y-85708163D01*
X95338740Y-85708067D01*
X95358767Y-85708068D01*
G37*
X94682734Y-85730645D02*
X94688366Y-85736835D01*
X94693456Y-85745041D01*
X94697543Y-85756817D01*
X94700721Y-85774276D01*
X94703087Y-85799530D01*
X94704738Y-85834690D01*
X94705769Y-85881869D01*
X94706277Y-85943177D01*
X94706359Y-86020727D01*
X94706109Y-86116631D01*
X94705625Y-86233000D01*
X94705557Y-86247175D01*
X94704971Y-86308937D01*
X94703648Y-86352620D01*
X94701103Y-86382001D01*
X94696848Y-86400855D01*
X94690396Y-86412959D01*
X94681262Y-86422089D01*
X94647804Y-86439506D01*
X94612856Y-86436604D01*
X94581953Y-86412100D01*
X94572944Y-86398897D01*
X94565492Y-86380361D01*
X94561124Y-86354333D01*
X94559069Y-86315787D01*
X94558556Y-86259700D01*
X94558556Y-86137045D01*
X94061845Y-86137045D01*
X94061845Y-86271871D01*
X94061772Y-86307662D01*
X94061009Y-86353992D01*
X94058833Y-86384526D01*
X94054536Y-86403557D01*
X94047412Y-86415374D01*
X94036755Y-86424271D01*
X94004504Y-86439341D01*
X93969217Y-86436673D01*
X93938486Y-86412100D01*
X93933831Y-86405845D01*
X93927895Y-86395321D01*
X93923364Y-86381391D01*
X93920048Y-86361317D01*
X93917759Y-86332360D01*
X93916308Y-86291780D01*
X93915505Y-86236840D01*
X93915162Y-86164799D01*
X93915089Y-86072920D01*
X93915089Y-85763485D01*
X93942798Y-85735776D01*
X93974177Y-85713533D01*
X94007406Y-85710844D01*
X94039267Y-85730645D01*
X94047553Y-85740415D01*
X94054965Y-85756307D01*
X94059302Y-85780275D01*
X94061338Y-85817148D01*
X94061845Y-85871756D01*
X94061845Y-85990289D01*
X94558556Y-85990289D01*
X94558556Y-85874776D01*
X94558994Y-85823078D01*
X94560958Y-85788554D01*
X94565474Y-85765978D01*
X94573567Y-85750126D01*
X94586265Y-85735776D01*
X94617643Y-85713533D01*
X94650872Y-85710844D01*
X94682734Y-85730645D01*
G36*
X94682734Y-85730645D02*
G01*
X94688366Y-85736835D01*
X94693456Y-85745041D01*
X94697543Y-85756817D01*
X94700721Y-85774276D01*
X94703087Y-85799530D01*
X94704738Y-85834690D01*
X94705769Y-85881869D01*
X94706277Y-85943177D01*
X94706359Y-86020727D01*
X94706109Y-86116631D01*
X94705625Y-86233000D01*
X94705557Y-86247175D01*
X94704971Y-86308937D01*
X94703648Y-86352620D01*
X94701103Y-86382001D01*
X94696848Y-86400855D01*
X94690396Y-86412959D01*
X94681262Y-86422089D01*
X94647804Y-86439506D01*
X94612856Y-86436604D01*
X94581953Y-86412100D01*
X94572944Y-86398897D01*
X94565492Y-86380361D01*
X94561124Y-86354333D01*
X94559069Y-86315787D01*
X94558556Y-86259700D01*
X94558556Y-86137045D01*
X94061845Y-86137045D01*
X94061845Y-86271871D01*
X94061772Y-86307662D01*
X94061009Y-86353992D01*
X94058833Y-86384526D01*
X94054536Y-86403557D01*
X94047412Y-86415374D01*
X94036755Y-86424271D01*
X94004504Y-86439341D01*
X93969217Y-86436673D01*
X93938486Y-86412100D01*
X93933831Y-86405845D01*
X93927895Y-86395321D01*
X93923364Y-86381391D01*
X93920048Y-86361317D01*
X93917759Y-86332360D01*
X93916308Y-86291780D01*
X93915505Y-86236840D01*
X93915162Y-86164799D01*
X93915089Y-86072920D01*
X93915089Y-85763485D01*
X93942798Y-85735776D01*
X93974177Y-85713533D01*
X94007406Y-85710844D01*
X94039267Y-85730645D01*
X94047553Y-85740415D01*
X94054965Y-85756307D01*
X94059302Y-85780275D01*
X94061338Y-85817148D01*
X94061845Y-85871756D01*
X94061845Y-85990289D01*
X94558556Y-85990289D01*
X94558556Y-85874776D01*
X94558994Y-85823078D01*
X94560958Y-85788554D01*
X94565474Y-85765978D01*
X94573567Y-85750126D01*
X94586265Y-85735776D01*
X94617643Y-85713533D01*
X94650872Y-85710844D01*
X94682734Y-85730645D01*
G37*
X99388133Y-86319396D02*
X99386163Y-86352175D01*
X99383235Y-86375095D01*
X99379158Y-86390897D01*
X99373743Y-86402319D01*
X99366803Y-86412100D01*
X99343406Y-86441845D01*
X99177714Y-86441251D01*
X99142918Y-86440953D01*
X99044435Y-86437522D01*
X98963473Y-86429839D01*
X98896379Y-86417282D01*
X98839496Y-86399227D01*
X98789169Y-86375052D01*
X98785810Y-86373135D01*
X98727998Y-86336417D01*
X98685644Y-86299451D01*
X98652828Y-86255966D01*
X98623628Y-86199689D01*
X98619346Y-86190073D01*
X98596769Y-86126887D01*
X98591034Y-86081333D01*
X98740279Y-86081333D01*
X98745892Y-86106061D01*
X98751618Y-86121939D01*
X98784548Y-86181847D01*
X98831886Y-86227600D01*
X98895652Y-86260736D01*
X98977861Y-86282790D01*
X98980655Y-86283292D01*
X99026940Y-86289255D01*
X99083336Y-86293483D01*
X99138274Y-86295089D01*
X99232156Y-86295089D01*
X99232156Y-85854822D01*
X99144667Y-85855270D01*
X99077747Y-85857746D01*
X98985349Y-85868998D01*
X98906034Y-85888537D01*
X98844060Y-85915511D01*
X98813120Y-85936240D01*
X98785000Y-85966006D01*
X98761660Y-86008434D01*
X98754533Y-86024400D01*
X98742709Y-86056902D01*
X98740279Y-86081333D01*
X98591034Y-86081333D01*
X98589797Y-86071509D01*
X98598399Y-86016483D01*
X98622541Y-85954351D01*
X98623337Y-85952658D01*
X98663788Y-85883236D01*
X98714473Y-85826638D01*
X98777198Y-85782070D01*
X98853774Y-85748741D01*
X98946009Y-85725861D01*
X99055712Y-85712636D01*
X99184691Y-85708275D01*
X99188263Y-85708270D01*
X99248283Y-85708410D01*
X99290214Y-85709446D01*
X99318328Y-85712040D01*
X99336897Y-85716853D01*
X99350194Y-85724544D01*
X99362491Y-85735776D01*
X99390200Y-85763485D01*
X99390200Y-86072920D01*
X99390175Y-86134526D01*
X99389950Y-86213311D01*
X99389332Y-86274021D01*
X99388775Y-86295089D01*
X99388133Y-86319396D01*
G36*
X99388133Y-86319396D02*
G01*
X99386163Y-86352175D01*
X99383235Y-86375095D01*
X99379158Y-86390897D01*
X99373743Y-86402319D01*
X99366803Y-86412100D01*
X99343406Y-86441845D01*
X99177714Y-86441251D01*
X99142918Y-86440953D01*
X99044435Y-86437522D01*
X98963473Y-86429839D01*
X98896379Y-86417282D01*
X98839496Y-86399227D01*
X98789169Y-86375052D01*
X98785810Y-86373135D01*
X98727998Y-86336417D01*
X98685644Y-86299451D01*
X98652828Y-86255966D01*
X98623628Y-86199689D01*
X98619346Y-86190073D01*
X98596769Y-86126887D01*
X98591034Y-86081333D01*
X98740279Y-86081333D01*
X98745892Y-86106061D01*
X98751618Y-86121939D01*
X98784548Y-86181847D01*
X98831886Y-86227600D01*
X98895652Y-86260736D01*
X98977861Y-86282790D01*
X98980655Y-86283292D01*
X99026940Y-86289255D01*
X99083336Y-86293483D01*
X99138274Y-86295089D01*
X99232156Y-86295089D01*
X99232156Y-85854822D01*
X99144667Y-85855270D01*
X99077747Y-85857746D01*
X98985349Y-85868998D01*
X98906034Y-85888537D01*
X98844060Y-85915511D01*
X98813120Y-85936240D01*
X98785000Y-85966006D01*
X98761660Y-86008434D01*
X98754533Y-86024400D01*
X98742709Y-86056902D01*
X98740279Y-86081333D01*
X98591034Y-86081333D01*
X98589797Y-86071509D01*
X98598399Y-86016483D01*
X98622541Y-85954351D01*
X98623337Y-85952658D01*
X98663788Y-85883236D01*
X98714473Y-85826638D01*
X98777198Y-85782070D01*
X98853774Y-85748741D01*
X98946009Y-85725861D01*
X99055712Y-85712636D01*
X99184691Y-85708275D01*
X99188263Y-85708270D01*
X99248283Y-85708410D01*
X99290214Y-85709446D01*
X99318328Y-85712040D01*
X99336897Y-85716853D01*
X99350194Y-85724544D01*
X99362491Y-85735776D01*
X99390200Y-85763485D01*
X99390200Y-86072920D01*
X99390175Y-86134526D01*
X99389950Y-86213311D01*
X99389332Y-86274021D01*
X99388775Y-86295089D01*
X99388133Y-86319396D01*
G37*
X106479817Y-85893427D02*
X106479870Y-85974041D01*
X106479622Y-86074956D01*
X106479583Y-86150617D01*
X106479328Y-86228526D01*
X106478684Y-86288536D01*
X106477480Y-86333264D01*
X106475543Y-86365326D01*
X106472703Y-86387340D01*
X106468788Y-86401924D01*
X106463626Y-86411694D01*
X106457045Y-86419267D01*
X106450077Y-86425501D01*
X106437079Y-86432801D01*
X106417931Y-86437554D01*
X106388528Y-86440292D01*
X106344762Y-86441545D01*
X106282528Y-86441845D01*
X106233582Y-86441469D01*
X106126722Y-86437041D01*
X106037494Y-86426953D01*
X105962696Y-86410365D01*
X105899125Y-86386435D01*
X105843579Y-86354321D01*
X105792854Y-86313182D01*
X105786866Y-86307330D01*
X105749999Y-86258821D01*
X105718899Y-86198013D01*
X105697417Y-86133769D01*
X105692136Y-86095026D01*
X105839353Y-86095026D01*
X105857635Y-86145961D01*
X105887305Y-86191878D01*
X105934002Y-86234287D01*
X105995392Y-86264090D01*
X106074538Y-86283226D01*
X106076028Y-86283464D01*
X106124999Y-86289256D01*
X106183693Y-86293396D01*
X106239734Y-86295004D01*
X106332867Y-86295089D01*
X106332867Y-85854822D01*
X106256667Y-85854808D01*
X106253639Y-85854817D01*
X106202519Y-85856782D01*
X106142416Y-85861507D01*
X106085708Y-85868035D01*
X106035750Y-85877331D01*
X105960998Y-85903600D01*
X105903489Y-85942899D01*
X105861988Y-85995933D01*
X105840771Y-86047200D01*
X105839353Y-86095026D01*
X105692136Y-86095026D01*
X105689400Y-86074956D01*
X105690679Y-86053739D01*
X105702991Y-85996323D01*
X105725520Y-85936413D01*
X105754750Y-85882363D01*
X105787167Y-85842532D01*
X105806708Y-85825510D01*
X105861420Y-85786322D01*
X105921723Y-85756193D01*
X105990919Y-85734232D01*
X106072311Y-85719550D01*
X106169200Y-85711259D01*
X106284889Y-85708467D01*
X106324371Y-85708066D01*
X106370082Y-85707653D01*
X106405883Y-85709457D01*
X106432974Y-85715739D01*
X106452556Y-85728759D01*
X106465830Y-85750778D01*
X106473998Y-85784055D01*
X106478260Y-85830851D01*
X106478857Y-85854822D01*
X106479817Y-85893427D01*
G36*
X106479817Y-85893427D02*
G01*
X106479870Y-85974041D01*
X106479622Y-86074956D01*
X106479583Y-86150617D01*
X106479328Y-86228526D01*
X106478684Y-86288536D01*
X106477480Y-86333264D01*
X106475543Y-86365326D01*
X106472703Y-86387340D01*
X106468788Y-86401924D01*
X106463626Y-86411694D01*
X106457045Y-86419267D01*
X106450077Y-86425501D01*
X106437079Y-86432801D01*
X106417931Y-86437554D01*
X106388528Y-86440292D01*
X106344762Y-86441545D01*
X106282528Y-86441845D01*
X106233582Y-86441469D01*
X106126722Y-86437041D01*
X106037494Y-86426953D01*
X105962696Y-86410365D01*
X105899125Y-86386435D01*
X105843579Y-86354321D01*
X105792854Y-86313182D01*
X105786866Y-86307330D01*
X105749999Y-86258821D01*
X105718899Y-86198013D01*
X105697417Y-86133769D01*
X105692136Y-86095026D01*
X105839353Y-86095026D01*
X105857635Y-86145961D01*
X105887305Y-86191878D01*
X105934002Y-86234287D01*
X105995392Y-86264090D01*
X106074538Y-86283226D01*
X106076028Y-86283464D01*
X106124999Y-86289256D01*
X106183693Y-86293396D01*
X106239734Y-86295004D01*
X106332867Y-86295089D01*
X106332867Y-85854822D01*
X106256667Y-85854808D01*
X106253639Y-85854817D01*
X106202519Y-85856782D01*
X106142416Y-85861507D01*
X106085708Y-85868035D01*
X106035750Y-85877331D01*
X105960998Y-85903600D01*
X105903489Y-85942899D01*
X105861988Y-85995933D01*
X105840771Y-86047200D01*
X105839353Y-86095026D01*
X105692136Y-86095026D01*
X105689400Y-86074956D01*
X105690679Y-86053739D01*
X105702991Y-85996323D01*
X105725520Y-85936413D01*
X105754750Y-85882363D01*
X105787167Y-85842532D01*
X105806708Y-85825510D01*
X105861420Y-85786322D01*
X105921723Y-85756193D01*
X105990919Y-85734232D01*
X106072311Y-85719550D01*
X106169200Y-85711259D01*
X106284889Y-85708467D01*
X106324371Y-85708066D01*
X106370082Y-85707653D01*
X106405883Y-85709457D01*
X106432974Y-85715739D01*
X106452556Y-85728759D01*
X106465830Y-85750778D01*
X106473998Y-85784055D01*
X106478260Y-85830851D01*
X106478857Y-85854822D01*
X106479817Y-85893427D01*
G37*
X101534893Y-85706892D02*
X101546301Y-85713029D01*
X101556850Y-85723691D01*
X101568136Y-85737811D01*
X101572589Y-85743772D01*
X101578588Y-85754268D01*
X101583167Y-85768093D01*
X101586519Y-85787998D01*
X101588833Y-85816732D01*
X101590301Y-85857045D01*
X101591113Y-85911687D01*
X101591460Y-85983407D01*
X101591534Y-86074956D01*
X101591511Y-86133486D01*
X101591292Y-86212573D01*
X101590683Y-86273516D01*
X101589492Y-86319062D01*
X101587529Y-86351963D01*
X101584603Y-86374968D01*
X101580523Y-86390826D01*
X101575097Y-86402286D01*
X101568136Y-86412100D01*
X101537708Y-86436493D01*
X101502765Y-86439372D01*
X101465784Y-86420282D01*
X101461600Y-86416807D01*
X101453424Y-86408279D01*
X101447364Y-86396728D01*
X101442981Y-86378896D01*
X101439839Y-86351524D01*
X101437502Y-86311354D01*
X101435531Y-86255128D01*
X101433489Y-86179589D01*
X101427845Y-85960458D01*
X101162556Y-86201099D01*
X101088722Y-86267875D01*
X101023542Y-86325991D01*
X100971348Y-86370949D01*
X100930273Y-86403871D01*
X100898455Y-86425879D01*
X100874026Y-86438094D01*
X100855124Y-86441639D01*
X100839883Y-86437636D01*
X100826439Y-86427207D01*
X100812927Y-86411474D01*
X100806682Y-86402991D01*
X100801050Y-86392413D01*
X100796839Y-86378255D01*
X100793887Y-86357803D01*
X100792032Y-86328342D01*
X100791113Y-86287161D01*
X100790968Y-86231544D01*
X100791435Y-86158779D01*
X100792352Y-86066151D01*
X100795667Y-85751199D01*
X100822318Y-85729633D01*
X100848383Y-85713441D01*
X100881241Y-85710670D01*
X100915772Y-85729623D01*
X100920084Y-85733208D01*
X100928216Y-85741737D01*
X100934245Y-85753329D01*
X100938606Y-85771235D01*
X100941734Y-85798706D01*
X100944063Y-85838994D01*
X100946029Y-85895351D01*
X100948067Y-85971029D01*
X100953711Y-86190878D01*
X101134334Y-86027084D01*
X101221072Y-85948451D01*
X101296843Y-85880058D01*
X101358980Y-85824708D01*
X101409078Y-85781338D01*
X101448735Y-85748881D01*
X101479548Y-85726273D01*
X101503114Y-85712448D01*
X101521030Y-85706343D01*
X101534893Y-85706892D01*
G36*
X101534893Y-85706892D02*
G01*
X101546301Y-85713029D01*
X101556850Y-85723691D01*
X101568136Y-85737811D01*
X101572589Y-85743772D01*
X101578588Y-85754268D01*
X101583167Y-85768093D01*
X101586519Y-85787998D01*
X101588833Y-85816732D01*
X101590301Y-85857045D01*
X101591113Y-85911687D01*
X101591460Y-85983407D01*
X101591534Y-86074956D01*
X101591511Y-86133486D01*
X101591292Y-86212573D01*
X101590683Y-86273516D01*
X101589492Y-86319062D01*
X101587529Y-86351963D01*
X101584603Y-86374968D01*
X101580523Y-86390826D01*
X101575097Y-86402286D01*
X101568136Y-86412100D01*
X101537708Y-86436493D01*
X101502765Y-86439372D01*
X101465784Y-86420282D01*
X101461600Y-86416807D01*
X101453424Y-86408279D01*
X101447364Y-86396728D01*
X101442981Y-86378896D01*
X101439839Y-86351524D01*
X101437502Y-86311354D01*
X101435531Y-86255128D01*
X101433489Y-86179589D01*
X101427845Y-85960458D01*
X101162556Y-86201099D01*
X101088722Y-86267875D01*
X101023542Y-86325991D01*
X100971348Y-86370949D01*
X100930273Y-86403871D01*
X100898455Y-86425879D01*
X100874026Y-86438094D01*
X100855124Y-86441639D01*
X100839883Y-86437636D01*
X100826439Y-86427207D01*
X100812927Y-86411474D01*
X100806682Y-86402991D01*
X100801050Y-86392413D01*
X100796839Y-86378255D01*
X100793887Y-86357803D01*
X100792032Y-86328342D01*
X100791113Y-86287161D01*
X100790968Y-86231544D01*
X100791435Y-86158779D01*
X100792352Y-86066151D01*
X100795667Y-85751199D01*
X100822318Y-85729633D01*
X100848383Y-85713441D01*
X100881241Y-85710670D01*
X100915772Y-85729623D01*
X100920084Y-85733208D01*
X100928216Y-85741737D01*
X100934245Y-85753329D01*
X100938606Y-85771235D01*
X100941734Y-85798706D01*
X100944063Y-85838994D01*
X100946029Y-85895351D01*
X100948067Y-85971029D01*
X100953711Y-86190878D01*
X101134334Y-86027084D01*
X101221072Y-85948451D01*
X101296843Y-85880058D01*
X101358980Y-85824708D01*
X101409078Y-85781338D01*
X101448735Y-85748881D01*
X101479548Y-85726273D01*
X101503114Y-85712448D01*
X101521030Y-85706343D01*
X101534893Y-85706892D01*
G37*
X102332150Y-85713179D02*
X102438157Y-85729494D01*
X102531969Y-85757545D01*
X102610765Y-85796452D01*
X102671719Y-85845334D01*
X102697789Y-85878195D01*
X102727297Y-85927394D01*
X102752568Y-85981252D01*
X102770218Y-86032419D01*
X102776858Y-86073544D01*
X102775298Y-86093259D01*
X102762357Y-86144592D01*
X102739194Y-86201118D01*
X102709302Y-86255035D01*
X102676173Y-86298539D01*
X102665977Y-86308887D01*
X102598892Y-86360662D01*
X102518766Y-86400554D01*
X102432556Y-86424956D01*
X102377592Y-86433068D01*
X102284139Y-86439673D01*
X102194358Y-86437586D01*
X102111869Y-86427340D01*
X102040286Y-86409470D01*
X101983228Y-86384508D01*
X101944311Y-86352988D01*
X101942936Y-86351012D01*
X101935848Y-86325786D01*
X101931609Y-86278535D01*
X101930200Y-86209071D01*
X101931060Y-86146838D01*
X101935780Y-86099456D01*
X101947470Y-86067353D01*
X101969239Y-86047800D01*
X102004198Y-86038070D01*
X102055456Y-86035433D01*
X102126123Y-86037161D01*
X102174743Y-86040173D01*
X102224939Y-86048366D01*
X102257433Y-86062419D01*
X102274892Y-86083654D01*
X102279983Y-86113394D01*
X102279877Y-86117936D01*
X102271175Y-86152730D01*
X102247165Y-86176147D01*
X102205900Y-86189347D01*
X102145431Y-86193489D01*
X102076956Y-86193489D01*
X102076956Y-86231841D01*
X102077006Y-86240976D01*
X102079227Y-86258227D01*
X102088494Y-86268521D01*
X102109875Y-86275459D01*
X102148436Y-86282641D01*
X102153910Y-86283575D01*
X102250860Y-86293478D01*
X102340852Y-86290559D01*
X102421760Y-86275829D01*
X102491459Y-86250299D01*
X102547824Y-86214978D01*
X102588729Y-86170879D01*
X102612051Y-86119012D01*
X102615663Y-86060388D01*
X102610145Y-86031494D01*
X102583461Y-85975604D01*
X102537273Y-85929945D01*
X102472291Y-85895108D01*
X102389229Y-85871690D01*
X102364555Y-85867241D01*
X102275226Y-85856742D01*
X102195419Y-85857971D01*
X102117326Y-85870906D01*
X102082183Y-85877696D01*
X102036745Y-85878713D01*
X102005430Y-85866182D01*
X101985277Y-85839395D01*
X101978893Y-85811148D01*
X101988379Y-85779924D01*
X101997708Y-85766499D01*
X102031943Y-85742967D01*
X102084565Y-85725095D01*
X102153081Y-85713599D01*
X102235000Y-85709192D01*
X102332150Y-85713179D01*
G36*
X102332150Y-85713179D02*
G01*
X102438157Y-85729494D01*
X102531969Y-85757545D01*
X102610765Y-85796452D01*
X102671719Y-85845334D01*
X102697789Y-85878195D01*
X102727297Y-85927394D01*
X102752568Y-85981252D01*
X102770218Y-86032419D01*
X102776858Y-86073544D01*
X102775298Y-86093259D01*
X102762357Y-86144592D01*
X102739194Y-86201118D01*
X102709302Y-86255035D01*
X102676173Y-86298539D01*
X102665977Y-86308887D01*
X102598892Y-86360662D01*
X102518766Y-86400554D01*
X102432556Y-86424956D01*
X102377592Y-86433068D01*
X102284139Y-86439673D01*
X102194358Y-86437586D01*
X102111869Y-86427340D01*
X102040286Y-86409470D01*
X101983228Y-86384508D01*
X101944311Y-86352988D01*
X101942936Y-86351012D01*
X101935848Y-86325786D01*
X101931609Y-86278535D01*
X101930200Y-86209071D01*
X101931060Y-86146838D01*
X101935780Y-86099456D01*
X101947470Y-86067353D01*
X101969239Y-86047800D01*
X102004198Y-86038070D01*
X102055456Y-86035433D01*
X102126123Y-86037161D01*
X102174743Y-86040173D01*
X102224939Y-86048366D01*
X102257433Y-86062419D01*
X102274892Y-86083654D01*
X102279983Y-86113394D01*
X102279877Y-86117936D01*
X102271175Y-86152730D01*
X102247165Y-86176147D01*
X102205900Y-86189347D01*
X102145431Y-86193489D01*
X102076956Y-86193489D01*
X102076956Y-86231841D01*
X102077006Y-86240976D01*
X102079227Y-86258227D01*
X102088494Y-86268521D01*
X102109875Y-86275459D01*
X102148436Y-86282641D01*
X102153910Y-86283575D01*
X102250860Y-86293478D01*
X102340852Y-86290559D01*
X102421760Y-86275829D01*
X102491459Y-86250299D01*
X102547824Y-86214978D01*
X102588729Y-86170879D01*
X102612051Y-86119012D01*
X102615663Y-86060388D01*
X102610145Y-86031494D01*
X102583461Y-85975604D01*
X102537273Y-85929945D01*
X102472291Y-85895108D01*
X102389229Y-85871690D01*
X102364555Y-85867241D01*
X102275226Y-85856742D01*
X102195419Y-85857971D01*
X102117326Y-85870906D01*
X102082183Y-85877696D01*
X102036745Y-85878713D01*
X102005430Y-85866182D01*
X101985277Y-85839395D01*
X101978893Y-85811148D01*
X101988379Y-85779924D01*
X101997708Y-85766499D01*
X102031943Y-85742967D01*
X102084565Y-85725095D01*
X102153081Y-85713599D01*
X102235000Y-85709192D01*
X102332150Y-85713179D01*
G37*
X100382803Y-85737811D02*
X100387752Y-85744495D01*
X100393596Y-85755066D01*
X100398057Y-85769153D01*
X100401321Y-85789478D01*
X100403574Y-85818765D01*
X100405002Y-85859737D01*
X100405792Y-85915117D01*
X100406129Y-85987628D01*
X100406200Y-86079994D01*
X100406171Y-86145911D01*
X100405939Y-86224228D01*
X100405319Y-86284496D01*
X100404126Y-86329393D01*
X100402179Y-86361602D01*
X100399294Y-86383800D01*
X100395288Y-86398669D01*
X100389979Y-86408889D01*
X100383183Y-86417138D01*
X100378668Y-86421795D01*
X100370438Y-86428282D01*
X100359078Y-86433194D01*
X100341810Y-86436749D01*
X100315855Y-86439167D01*
X100278436Y-86440667D01*
X100226773Y-86441467D01*
X100158089Y-86441787D01*
X100069606Y-86441845D01*
X100049931Y-86441838D01*
X99962906Y-86441572D01*
X99895254Y-86440806D01*
X99844299Y-86439392D01*
X99807367Y-86437180D01*
X99781783Y-86434022D01*
X99764871Y-86429769D01*
X99753957Y-86424271D01*
X99743464Y-86414285D01*
X99730203Y-86383168D01*
X99731386Y-86347280D01*
X99747550Y-86315733D01*
X99749739Y-86313457D01*
X99758427Y-86307189D01*
X99771769Y-86302523D01*
X99792752Y-86299227D01*
X99824363Y-86297068D01*
X99869590Y-86295814D01*
X99931420Y-86295231D01*
X100012839Y-86295089D01*
X100259445Y-86295089D01*
X100259445Y-86137045D01*
X100097006Y-86137045D01*
X100061338Y-86136964D01*
X100005568Y-86136167D01*
X99966430Y-86134162D01*
X99939976Y-86130521D01*
X99922259Y-86124812D01*
X99909329Y-86116607D01*
X99905686Y-86113423D01*
X99887278Y-86082448D01*
X99886644Y-86046112D01*
X99904183Y-86012493D01*
X99904245Y-86012424D01*
X99913916Y-86003798D01*
X99927209Y-85997742D01*
X99947917Y-85993811D01*
X99979828Y-85991556D01*
X100026734Y-85990531D01*
X100092424Y-85990289D01*
X100260571Y-85990289D01*
X100257186Y-85925378D01*
X100253800Y-85860467D01*
X100011723Y-85857414D01*
X99986707Y-85857086D01*
X99905087Y-85855606D01*
X99842768Y-85853222D01*
X99797154Y-85849227D01*
X99765652Y-85842913D01*
X99745667Y-85833574D01*
X99734604Y-85820503D01*
X99729869Y-85802992D01*
X99728867Y-85780335D01*
X99728873Y-85777970D01*
X99730027Y-85757939D01*
X99734824Y-85742146D01*
X99745632Y-85730090D01*
X99764817Y-85721267D01*
X99794745Y-85715175D01*
X99837783Y-85711311D01*
X99896299Y-85709174D01*
X99972657Y-85708260D01*
X100069226Y-85708067D01*
X100359406Y-85708067D01*
X100382803Y-85737811D01*
G36*
X100382803Y-85737811D02*
G01*
X100387752Y-85744495D01*
X100393596Y-85755066D01*
X100398057Y-85769153D01*
X100401321Y-85789478D01*
X100403574Y-85818765D01*
X100405002Y-85859737D01*
X100405792Y-85915117D01*
X100406129Y-85987628D01*
X100406200Y-86079994D01*
X100406171Y-86145911D01*
X100405939Y-86224228D01*
X100405319Y-86284496D01*
X100404126Y-86329393D01*
X100402179Y-86361602D01*
X100399294Y-86383800D01*
X100395288Y-86398669D01*
X100389979Y-86408889D01*
X100383183Y-86417138D01*
X100378668Y-86421795D01*
X100370438Y-86428282D01*
X100359078Y-86433194D01*
X100341810Y-86436749D01*
X100315855Y-86439167D01*
X100278436Y-86440667D01*
X100226773Y-86441467D01*
X100158089Y-86441787D01*
X100069606Y-86441845D01*
X100049931Y-86441838D01*
X99962906Y-86441572D01*
X99895254Y-86440806D01*
X99844299Y-86439392D01*
X99807367Y-86437180D01*
X99781783Y-86434022D01*
X99764871Y-86429769D01*
X99753957Y-86424271D01*
X99743464Y-86414285D01*
X99730203Y-86383168D01*
X99731386Y-86347280D01*
X99747550Y-86315733D01*
X99749739Y-86313457D01*
X99758427Y-86307189D01*
X99771769Y-86302523D01*
X99792752Y-86299227D01*
X99824363Y-86297068D01*
X99869590Y-86295814D01*
X99931420Y-86295231D01*
X100012839Y-86295089D01*
X100259445Y-86295089D01*
X100259445Y-86137045D01*
X100097006Y-86137045D01*
X100061338Y-86136964D01*
X100005568Y-86136167D01*
X99966430Y-86134162D01*
X99939976Y-86130521D01*
X99922259Y-86124812D01*
X99909329Y-86116607D01*
X99905686Y-86113423D01*
X99887278Y-86082448D01*
X99886644Y-86046112D01*
X99904183Y-86012493D01*
X99904245Y-86012424D01*
X99913916Y-86003798D01*
X99927209Y-85997742D01*
X99947917Y-85993811D01*
X99979828Y-85991556D01*
X100026734Y-85990531D01*
X100092424Y-85990289D01*
X100260571Y-85990289D01*
X100257186Y-85925378D01*
X100253800Y-85860467D01*
X100011723Y-85857414D01*
X99986707Y-85857086D01*
X99905087Y-85855606D01*
X99842768Y-85853222D01*
X99797154Y-85849227D01*
X99765652Y-85842913D01*
X99745667Y-85833574D01*
X99734604Y-85820503D01*
X99729869Y-85802992D01*
X99728867Y-85780335D01*
X99728873Y-85777970D01*
X99730027Y-85757939D01*
X99734824Y-85742146D01*
X99745632Y-85730090D01*
X99764817Y-85721267D01*
X99794745Y-85715175D01*
X99837783Y-85711311D01*
X99896299Y-85709174D01*
X99972657Y-85708260D01*
X100069226Y-85708067D01*
X100359406Y-85708067D01*
X100382803Y-85737811D01*
G37*
X105059734Y-85708083D02*
X105136831Y-85708275D01*
X105195777Y-85708860D01*
X105239364Y-85710051D01*
X105270383Y-85712064D01*
X105291625Y-85715112D01*
X105305882Y-85719409D01*
X105315945Y-85725172D01*
X105324606Y-85732612D01*
X105326391Y-85734293D01*
X105333635Y-85741832D01*
X105339277Y-85750850D01*
X105343517Y-85763984D01*
X105346556Y-85783872D01*
X105348594Y-85813151D01*
X105349830Y-85854458D01*
X105350465Y-85910431D01*
X105350700Y-85983707D01*
X105350734Y-86076923D01*
X105350697Y-86149713D01*
X105350448Y-86227889D01*
X105349812Y-86288103D01*
X105348615Y-86332982D01*
X105346684Y-86365152D01*
X105343846Y-86387239D01*
X105339927Y-86401870D01*
X105334755Y-86411670D01*
X105328156Y-86419267D01*
X105324822Y-86422444D01*
X105316300Y-86428554D01*
X105304298Y-86433229D01*
X105286087Y-86436659D01*
X105258940Y-86439036D01*
X105220129Y-86440552D01*
X105166924Y-86441398D01*
X105096598Y-86441765D01*
X105006422Y-86441845D01*
X104964314Y-86441833D01*
X104883167Y-86441651D01*
X104820675Y-86441098D01*
X104774109Y-86439982D01*
X104740741Y-86438113D01*
X104717844Y-86435298D01*
X104702688Y-86431346D01*
X104692546Y-86426066D01*
X104684689Y-86419267D01*
X104669963Y-86397667D01*
X104662111Y-86368467D01*
X104667610Y-86344560D01*
X104684689Y-86317667D01*
X104689668Y-86313059D01*
X104699443Y-86306772D01*
X104713559Y-86302146D01*
X104735054Y-86298930D01*
X104766968Y-86296870D01*
X104812342Y-86295712D01*
X104874213Y-86295202D01*
X104955622Y-86295089D01*
X105203978Y-86295089D01*
X105203978Y-86137045D01*
X105042801Y-86137045D01*
X105006983Y-86136899D01*
X104941359Y-86135176D01*
X104894118Y-86130741D01*
X104862383Y-86122637D01*
X104843277Y-86109906D01*
X104833923Y-86091592D01*
X104831445Y-86066738D01*
X104832242Y-86046482D01*
X104837494Y-86024656D01*
X104850288Y-86009304D01*
X104873628Y-85999309D01*
X104910517Y-85993553D01*
X104963959Y-85990919D01*
X105036958Y-85990289D01*
X105205105Y-85990289D01*
X105201719Y-85925378D01*
X105198334Y-85860467D01*
X104950617Y-85857418D01*
X104888026Y-85856539D01*
X104819565Y-85855095D01*
X104768661Y-85853164D01*
X104732408Y-85850514D01*
X104707901Y-85846910D01*
X104692235Y-85842121D01*
X104682506Y-85835913D01*
X104676491Y-85829510D01*
X104663482Y-85797828D01*
X104667043Y-85762142D01*
X104686818Y-85731084D01*
X104690069Y-85728161D01*
X104699049Y-85721810D01*
X104711153Y-85716957D01*
X104729159Y-85713403D01*
X104755847Y-85710946D01*
X104793997Y-85709385D01*
X104846386Y-85708518D01*
X104915794Y-85708146D01*
X105005001Y-85708067D01*
X105059734Y-85708083D01*
G36*
X105059734Y-85708083D02*
G01*
X105136831Y-85708275D01*
X105195777Y-85708860D01*
X105239364Y-85710051D01*
X105270383Y-85712064D01*
X105291625Y-85715112D01*
X105305882Y-85719409D01*
X105315945Y-85725172D01*
X105324606Y-85732612D01*
X105326391Y-85734293D01*
X105333635Y-85741832D01*
X105339277Y-85750850D01*
X105343517Y-85763984D01*
X105346556Y-85783872D01*
X105348594Y-85813151D01*
X105349830Y-85854458D01*
X105350465Y-85910431D01*
X105350700Y-85983707D01*
X105350734Y-86076923D01*
X105350697Y-86149713D01*
X105350448Y-86227889D01*
X105349812Y-86288103D01*
X105348615Y-86332982D01*
X105346684Y-86365152D01*
X105343846Y-86387239D01*
X105339927Y-86401870D01*
X105334755Y-86411670D01*
X105328156Y-86419267D01*
X105324822Y-86422444D01*
X105316300Y-86428554D01*
X105304298Y-86433229D01*
X105286087Y-86436659D01*
X105258940Y-86439036D01*
X105220129Y-86440552D01*
X105166924Y-86441398D01*
X105096598Y-86441765D01*
X105006422Y-86441845D01*
X104964314Y-86441833D01*
X104883167Y-86441651D01*
X104820675Y-86441098D01*
X104774109Y-86439982D01*
X104740741Y-86438113D01*
X104717844Y-86435298D01*
X104702688Y-86431346D01*
X104692546Y-86426066D01*
X104684689Y-86419267D01*
X104669963Y-86397667D01*
X104662111Y-86368467D01*
X104667610Y-86344560D01*
X104684689Y-86317667D01*
X104689668Y-86313059D01*
X104699443Y-86306772D01*
X104713559Y-86302146D01*
X104735054Y-86298930D01*
X104766968Y-86296870D01*
X104812342Y-86295712D01*
X104874213Y-86295202D01*
X104955622Y-86295089D01*
X105203978Y-86295089D01*
X105203978Y-86137045D01*
X105042801Y-86137045D01*
X105006983Y-86136899D01*
X104941359Y-86135176D01*
X104894118Y-86130741D01*
X104862383Y-86122637D01*
X104843277Y-86109906D01*
X104833923Y-86091592D01*
X104831445Y-86066738D01*
X104832242Y-86046482D01*
X104837494Y-86024656D01*
X104850288Y-86009304D01*
X104873628Y-85999309D01*
X104910517Y-85993553D01*
X104963959Y-85990919D01*
X105036958Y-85990289D01*
X105205105Y-85990289D01*
X105201719Y-85925378D01*
X105198334Y-85860467D01*
X104950617Y-85857418D01*
X104888026Y-85856539D01*
X104819565Y-85855095D01*
X104768661Y-85853164D01*
X104732408Y-85850514D01*
X104707901Y-85846910D01*
X104692235Y-85842121D01*
X104682506Y-85835913D01*
X104676491Y-85829510D01*
X104663482Y-85797828D01*
X104667043Y-85762142D01*
X104686818Y-85731084D01*
X104690069Y-85728161D01*
X104699049Y-85721810D01*
X104711153Y-85716957D01*
X104729159Y-85713403D01*
X104755847Y-85710946D01*
X104793997Y-85709385D01*
X104846386Y-85708518D01*
X104915794Y-85708146D01*
X105005001Y-85708067D01*
X105059734Y-85708083D01*
G37*
X96492702Y-85717478D02*
X96510663Y-85735989D01*
X96531263Y-85767071D01*
X96556095Y-85812756D01*
X96586750Y-85875078D01*
X96624820Y-85956071D01*
X96639454Y-85987454D01*
X96669203Y-86050638D01*
X96695297Y-86105244D01*
X96716292Y-86148290D01*
X96730739Y-86176793D01*
X96737191Y-86187770D01*
X96738550Y-86187189D01*
X96748542Y-86173242D01*
X96765833Y-86143704D01*
X96788430Y-86102087D01*
X96814338Y-86051903D01*
X96830311Y-86020414D01*
X96859261Y-85965061D01*
X96881749Y-85926044D01*
X96899965Y-85900566D01*
X96916096Y-85885831D01*
X96932330Y-85879042D01*
X96950857Y-85877400D01*
X96961360Y-85877875D01*
X96977476Y-85882082D01*
X96992790Y-85892946D01*
X97009388Y-85913219D01*
X97029357Y-85945654D01*
X97054783Y-85993004D01*
X97087752Y-86058022D01*
X97097485Y-86077277D01*
X97121943Y-86123946D01*
X97142178Y-86160109D01*
X97156311Y-86182497D01*
X97162460Y-86187845D01*
X97163827Y-86184573D01*
X97173202Y-86163664D01*
X97190062Y-86126725D01*
X97212979Y-86076874D01*
X97240520Y-86017226D01*
X97271255Y-85950898D01*
X97297970Y-85893677D01*
X97327593Y-85831688D01*
X97350664Y-85785949D01*
X97368643Y-85753908D01*
X97382990Y-85733014D01*
X97395166Y-85720718D01*
X97406632Y-85714466D01*
X97416042Y-85711574D01*
X97441147Y-85711425D01*
X97468290Y-85726768D01*
X97469590Y-85727753D01*
X97491674Y-85750388D01*
X97502723Y-85772613D01*
X97502769Y-85773253D01*
X97498228Y-85790915D01*
X97485364Y-85825481D01*
X97465605Y-85873826D01*
X97440381Y-85932825D01*
X97411119Y-85999355D01*
X97379250Y-86070291D01*
X97346201Y-86142507D01*
X97313401Y-86212880D01*
X97282280Y-86278285D01*
X97254265Y-86335597D01*
X97230786Y-86381692D01*
X97213272Y-86413446D01*
X97203151Y-86427733D01*
X97168743Y-86441102D01*
X97127046Y-86434741D01*
X97121681Y-86430044D01*
X97105852Y-86407893D01*
X97083650Y-86371132D01*
X97057233Y-86323415D01*
X97028760Y-86268393D01*
X96948986Y-86109150D01*
X96875799Y-86255742D01*
X96866103Y-86275032D01*
X96839125Y-86327380D01*
X96815096Y-86372170D01*
X96796332Y-86405154D01*
X96785146Y-86422089D01*
X96784000Y-86423332D01*
X96755879Y-86438619D01*
X96720817Y-86440302D01*
X96689776Y-86427733D01*
X96687350Y-86424884D01*
X96675090Y-86404259D01*
X96655352Y-86366708D01*
X96629448Y-86314880D01*
X96598685Y-86251423D01*
X96564375Y-86178985D01*
X96527825Y-86100216D01*
X96507585Y-86056093D01*
X96470812Y-85975365D01*
X96442355Y-85911687D01*
X96421331Y-85862752D01*
X96406854Y-85826257D01*
X96398039Y-85799895D01*
X96394004Y-85781361D01*
X96393862Y-85768352D01*
X96396730Y-85758561D01*
X96411387Y-85737678D01*
X96437990Y-85717377D01*
X96438745Y-85717035D01*
X96458335Y-85710034D01*
X96475790Y-85709504D01*
X96492702Y-85717478D01*
G36*
X96492702Y-85717478D02*
G01*
X96510663Y-85735989D01*
X96531263Y-85767071D01*
X96556095Y-85812756D01*
X96586750Y-85875078D01*
X96624820Y-85956071D01*
X96639454Y-85987454D01*
X96669203Y-86050638D01*
X96695297Y-86105244D01*
X96716292Y-86148290D01*
X96730739Y-86176793D01*
X96737191Y-86187770D01*
X96738550Y-86187189D01*
X96748542Y-86173242D01*
X96765833Y-86143704D01*
X96788430Y-86102087D01*
X96814338Y-86051903D01*
X96830311Y-86020414D01*
X96859261Y-85965061D01*
X96881749Y-85926044D01*
X96899965Y-85900566D01*
X96916096Y-85885831D01*
X96932330Y-85879042D01*
X96950857Y-85877400D01*
X96961360Y-85877875D01*
X96977476Y-85882082D01*
X96992790Y-85892946D01*
X97009388Y-85913219D01*
X97029357Y-85945654D01*
X97054783Y-85993004D01*
X97087752Y-86058022D01*
X97097485Y-86077277D01*
X97121943Y-86123946D01*
X97142178Y-86160109D01*
X97156311Y-86182497D01*
X97162460Y-86187845D01*
X97163827Y-86184573D01*
X97173202Y-86163664D01*
X97190062Y-86126725D01*
X97212979Y-86076874D01*
X97240520Y-86017226D01*
X97271255Y-85950898D01*
X97297970Y-85893677D01*
X97327593Y-85831688D01*
X97350664Y-85785949D01*
X97368643Y-85753908D01*
X97382990Y-85733014D01*
X97395166Y-85720718D01*
X97406632Y-85714466D01*
X97416042Y-85711574D01*
X97441147Y-85711425D01*
X97468290Y-85726768D01*
X97469590Y-85727753D01*
X97491674Y-85750388D01*
X97502723Y-85772613D01*
X97502769Y-85773253D01*
X97498228Y-85790915D01*
X97485364Y-85825481D01*
X97465605Y-85873826D01*
X97440381Y-85932825D01*
X97411119Y-85999355D01*
X97379250Y-86070291D01*
X97346201Y-86142507D01*
X97313401Y-86212880D01*
X97282280Y-86278285D01*
X97254265Y-86335597D01*
X97230786Y-86381692D01*
X97213272Y-86413446D01*
X97203151Y-86427733D01*
X97168743Y-86441102D01*
X97127046Y-86434741D01*
X97121681Y-86430044D01*
X97105852Y-86407893D01*
X97083650Y-86371132D01*
X97057233Y-86323415D01*
X97028760Y-86268393D01*
X96948986Y-86109150D01*
X96875799Y-86255742D01*
X96866103Y-86275032D01*
X96839125Y-86327380D01*
X96815096Y-86372170D01*
X96796332Y-86405154D01*
X96785146Y-86422089D01*
X96784000Y-86423332D01*
X96755879Y-86438619D01*
X96720817Y-86440302D01*
X96689776Y-86427733D01*
X96687350Y-86424884D01*
X96675090Y-86404259D01*
X96655352Y-86366708D01*
X96629448Y-86314880D01*
X96598685Y-86251423D01*
X96564375Y-86178985D01*
X96527825Y-86100216D01*
X96507585Y-86056093D01*
X96470812Y-85975365D01*
X96442355Y-85911687D01*
X96421331Y-85862752D01*
X96406854Y-85826257D01*
X96398039Y-85799895D01*
X96394004Y-85781361D01*
X96393862Y-85768352D01*
X96396730Y-85758561D01*
X96411387Y-85737678D01*
X96437990Y-85717377D01*
X96438745Y-85717035D01*
X96458335Y-85710034D01*
X96475790Y-85709504D01*
X96492702Y-85717478D01*
G37*
X104043853Y-85708936D02*
X104110100Y-85714366D01*
X104165400Y-85723964D01*
X104216283Y-85738825D01*
X104287595Y-85771958D01*
X104338752Y-85814640D01*
X104369575Y-85866705D01*
X104379889Y-85927983D01*
X104378952Y-85959232D01*
X104373160Y-85984029D01*
X104358353Y-86005699D01*
X104330380Y-86033049D01*
X104322402Y-86040378D01*
X104298692Y-86061281D01*
X104276298Y-86078251D01*
X104252265Y-86092205D01*
X104223637Y-86104056D01*
X104187460Y-86114720D01*
X104140780Y-86125111D01*
X104080641Y-86136146D01*
X104004090Y-86148738D01*
X103908171Y-86163804D01*
X103889808Y-86166838D01*
X103827478Y-86180458D01*
X103782260Y-86196192D01*
X103755976Y-86213263D01*
X103750447Y-86230897D01*
X103753068Y-86235168D01*
X103771000Y-86250233D01*
X103799126Y-86266867D01*
X103811926Y-86272857D01*
X103833224Y-86280050D01*
X103859610Y-86284827D01*
X103895454Y-86287646D01*
X103945128Y-86288964D01*
X104013000Y-86289237D01*
X104030785Y-86289164D01*
X104098406Y-86288053D01*
X104163345Y-86285828D01*
X104218970Y-86282762D01*
X104258651Y-86279127D01*
X104294162Y-86275059D01*
X104323415Y-86274276D01*
X104342315Y-86278876D01*
X104357429Y-86289551D01*
X104361085Y-86293144D01*
X104377427Y-86324918D01*
X104376107Y-86360572D01*
X104357150Y-86391190D01*
X104336780Y-86402796D01*
X104300796Y-86415491D01*
X104258372Y-86425541D01*
X104254922Y-86426140D01*
X104212252Y-86431356D01*
X104154866Y-86435730D01*
X104089849Y-86438818D01*
X104024289Y-86440177D01*
X104008057Y-86440218D01*
X103909744Y-86437741D01*
X103829692Y-86429735D01*
X103764513Y-86415203D01*
X103710817Y-86393149D01*
X103665216Y-86362576D01*
X103624323Y-86322486D01*
X103604202Y-86296259D01*
X103592576Y-86266712D01*
X103589667Y-86226995D01*
X103589808Y-86215026D01*
X103593681Y-86182345D01*
X103606065Y-86155819D01*
X103631230Y-86124971D01*
X103652442Y-86102831D01*
X103678838Y-86080285D01*
X103708555Y-86061917D01*
X103744785Y-86046661D01*
X103790717Y-86033449D01*
X103849544Y-86021214D01*
X103924456Y-86008889D01*
X104018645Y-85995406D01*
X104063957Y-85988396D01*
X104131911Y-85973837D01*
X104181047Y-85957337D01*
X104210614Y-85939439D01*
X104219864Y-85920685D01*
X104208048Y-85901615D01*
X104174416Y-85882771D01*
X104171370Y-85881557D01*
X104125011Y-85869479D01*
X104062361Y-85861279D01*
X103988927Y-85857119D01*
X103910217Y-85857161D01*
X103831739Y-85861569D01*
X103759000Y-85870505D01*
X103755073Y-85871154D01*
X103706257Y-85878861D01*
X103674005Y-85882473D01*
X103653008Y-85881876D01*
X103637954Y-85876954D01*
X103623534Y-85867596D01*
X103622364Y-85866725D01*
X103597847Y-85836351D01*
X103593054Y-85800850D01*
X103608860Y-85766269D01*
X103613406Y-85761813D01*
X103643020Y-85746673D01*
X103690002Y-85733550D01*
X103750306Y-85722750D01*
X103819888Y-85714581D01*
X103894703Y-85709351D01*
X103970706Y-85707367D01*
X104043853Y-85708936D01*
G36*
X104043853Y-85708936D02*
G01*
X104110100Y-85714366D01*
X104165400Y-85723964D01*
X104216283Y-85738825D01*
X104287595Y-85771958D01*
X104338752Y-85814640D01*
X104369575Y-85866705D01*
X104379889Y-85927983D01*
X104378952Y-85959232D01*
X104373160Y-85984029D01*
X104358353Y-86005699D01*
X104330380Y-86033049D01*
X104322402Y-86040378D01*
X104298692Y-86061281D01*
X104276298Y-86078251D01*
X104252265Y-86092205D01*
X104223637Y-86104056D01*
X104187460Y-86114720D01*
X104140780Y-86125111D01*
X104080641Y-86136146D01*
X104004090Y-86148738D01*
X103908171Y-86163804D01*
X103889808Y-86166838D01*
X103827478Y-86180458D01*
X103782260Y-86196192D01*
X103755976Y-86213263D01*
X103750447Y-86230897D01*
X103753068Y-86235168D01*
X103771000Y-86250233D01*
X103799126Y-86266867D01*
X103811926Y-86272857D01*
X103833224Y-86280050D01*
X103859610Y-86284827D01*
X103895454Y-86287646D01*
X103945128Y-86288964D01*
X104013000Y-86289237D01*
X104030785Y-86289164D01*
X104098406Y-86288053D01*
X104163345Y-86285828D01*
X104218970Y-86282762D01*
X104258651Y-86279127D01*
X104294162Y-86275059D01*
X104323415Y-86274276D01*
X104342315Y-86278876D01*
X104357429Y-86289551D01*
X104361085Y-86293144D01*
X104377427Y-86324918D01*
X104376107Y-86360572D01*
X104357150Y-86391190D01*
X104336780Y-86402796D01*
X104300796Y-86415491D01*
X104258372Y-86425541D01*
X104254922Y-86426140D01*
X104212252Y-86431356D01*
X104154866Y-86435730D01*
X104089849Y-86438818D01*
X104024289Y-86440177D01*
X104008057Y-86440218D01*
X103909744Y-86437741D01*
X103829692Y-86429735D01*
X103764513Y-86415203D01*
X103710817Y-86393149D01*
X103665216Y-86362576D01*
X103624323Y-86322486D01*
X103604202Y-86296259D01*
X103592576Y-86266712D01*
X103589667Y-86226995D01*
X103589808Y-86215026D01*
X103593681Y-86182345D01*
X103606065Y-86155819D01*
X103631230Y-86124971D01*
X103652442Y-86102831D01*
X103678838Y-86080285D01*
X103708555Y-86061917D01*
X103744785Y-86046661D01*
X103790717Y-86033449D01*
X103849544Y-86021214D01*
X103924456Y-86008889D01*
X104018645Y-85995406D01*
X104063957Y-85988396D01*
X104131911Y-85973837D01*
X104181047Y-85957337D01*
X104210614Y-85939439D01*
X104219864Y-85920685D01*
X104208048Y-85901615D01*
X104174416Y-85882771D01*
X104171370Y-85881557D01*
X104125011Y-85869479D01*
X104062361Y-85861279D01*
X103988927Y-85857119D01*
X103910217Y-85857161D01*
X103831739Y-85861569D01*
X103759000Y-85870505D01*
X103755073Y-85871154D01*
X103706257Y-85878861D01*
X103674005Y-85882473D01*
X103653008Y-85881876D01*
X103637954Y-85876954D01*
X103623534Y-85867596D01*
X103622364Y-85866725D01*
X103597847Y-85836351D01*
X103593054Y-85800850D01*
X103608860Y-85766269D01*
X103613406Y-85761813D01*
X103643020Y-85746673D01*
X103690002Y-85733550D01*
X103750306Y-85722750D01*
X103819888Y-85714581D01*
X103894703Y-85709351D01*
X103970706Y-85707367D01*
X104043853Y-85708936D01*
G37*
X100191711Y-81401033D02*
X100287268Y-81418523D01*
X100451558Y-81463564D01*
X100605589Y-81526656D01*
X100751509Y-81608915D01*
X100891466Y-81711457D01*
X101027608Y-81835399D01*
X101071473Y-81880661D01*
X101183758Y-82012865D01*
X101276972Y-82150832D01*
X101353719Y-82298750D01*
X101416603Y-82460803D01*
X101420420Y-82472391D01*
X101470507Y-82658392D01*
X101503899Y-82854521D01*
X101520584Y-83056568D01*
X101520551Y-83260325D01*
X101503791Y-83461581D01*
X101470292Y-83656128D01*
X101420044Y-83839756D01*
X101376190Y-83957053D01*
X101298348Y-84119951D01*
X101204828Y-84273866D01*
X101097822Y-84415671D01*
X100979519Y-84542239D01*
X100852111Y-84650441D01*
X100774606Y-84703120D01*
X100647725Y-84772750D01*
X100510243Y-84831468D01*
X100368716Y-84876587D01*
X100229702Y-84905422D01*
X100215597Y-84907106D01*
X100172153Y-84910434D01*
X100114723Y-84913275D01*
X100049122Y-84915373D01*
X99981167Y-84916468D01*
X99854378Y-84914140D01*
X99706673Y-84901136D01*
X99568779Y-84876133D01*
X99435014Y-84838318D01*
X99411562Y-84829889D01*
X99363612Y-84810408D01*
X99307140Y-84785473D01*
X99245379Y-84756722D01*
X99181563Y-84725790D01*
X99118926Y-84694315D01*
X99060703Y-84663934D01*
X99010127Y-84636283D01*
X98970433Y-84612999D01*
X98944854Y-84595718D01*
X98936625Y-84586079D01*
X98938076Y-84582984D01*
X98949250Y-84563079D01*
X98970134Y-84527420D01*
X98999265Y-84478459D01*
X99035181Y-84418646D01*
X99076420Y-84350433D01*
X99121517Y-84276271D01*
X99302785Y-83979008D01*
X99349315Y-84023539D01*
X99440723Y-84101865D01*
X99554334Y-84176439D01*
X99672122Y-84230474D01*
X99792559Y-84263290D01*
X99914117Y-84274211D01*
X99955585Y-84272868D01*
X100073080Y-84254612D01*
X100183089Y-84215617D01*
X100284430Y-84156670D01*
X100375921Y-84078557D01*
X100456380Y-83982064D01*
X100524627Y-83867978D01*
X100540908Y-83833724D01*
X100586982Y-83710240D01*
X100622106Y-83571918D01*
X100646197Y-83422561D01*
X100659173Y-83265973D01*
X100660949Y-83105956D01*
X100651443Y-82946314D01*
X100630572Y-82790850D01*
X100598252Y-82643366D01*
X100554399Y-82507667D01*
X100516982Y-82421076D01*
X100452185Y-82307688D01*
X100376772Y-82214070D01*
X100290418Y-82139959D01*
X100192795Y-82085094D01*
X100083577Y-82049212D01*
X99962439Y-82032051D01*
X99893038Y-82030880D01*
X99770168Y-82045141D01*
X99654664Y-82080241D01*
X99547953Y-82135682D01*
X99451464Y-82210964D01*
X99435720Y-82225440D01*
X99405150Y-82251962D01*
X99382809Y-82269138D01*
X99372691Y-82273787D01*
X99370706Y-82271597D01*
X99356241Y-82252721D01*
X99332400Y-82219397D01*
X99301029Y-82174380D01*
X99263974Y-82120425D01*
X99223083Y-82060285D01*
X99180202Y-81996718D01*
X99137178Y-81932476D01*
X99095857Y-81870315D01*
X99058086Y-81812991D01*
X99025712Y-81763257D01*
X99000582Y-81723868D01*
X98984542Y-81697580D01*
X98979439Y-81687147D01*
X98984050Y-81682941D01*
X99003267Y-81677933D01*
X99012838Y-81675386D01*
X99040809Y-81664249D01*
X99082448Y-81645802D01*
X99133995Y-81621725D01*
X99191690Y-81593699D01*
X99202957Y-81588154D01*
X99380687Y-81508889D01*
X99550490Y-81449385D01*
X99714430Y-81409245D01*
X99874571Y-81388071D01*
X100032977Y-81385466D01*
X100191711Y-81401033D01*
G36*
X100191711Y-81401033D02*
G01*
X100287268Y-81418523D01*
X100451558Y-81463564D01*
X100605589Y-81526656D01*
X100751509Y-81608915D01*
X100891466Y-81711457D01*
X101027608Y-81835399D01*
X101071473Y-81880661D01*
X101183758Y-82012865D01*
X101276972Y-82150832D01*
X101353719Y-82298750D01*
X101416603Y-82460803D01*
X101420420Y-82472391D01*
X101470507Y-82658392D01*
X101503899Y-82854521D01*
X101520584Y-83056568D01*
X101520551Y-83260325D01*
X101503791Y-83461581D01*
X101470292Y-83656128D01*
X101420044Y-83839756D01*
X101376190Y-83957053D01*
X101298348Y-84119951D01*
X101204828Y-84273866D01*
X101097822Y-84415671D01*
X100979519Y-84542239D01*
X100852111Y-84650441D01*
X100774606Y-84703120D01*
X100647725Y-84772750D01*
X100510243Y-84831468D01*
X100368716Y-84876587D01*
X100229702Y-84905422D01*
X100215597Y-84907106D01*
X100172153Y-84910434D01*
X100114723Y-84913275D01*
X100049122Y-84915373D01*
X99981167Y-84916468D01*
X99854378Y-84914140D01*
X99706673Y-84901136D01*
X99568779Y-84876133D01*
X99435014Y-84838318D01*
X99411562Y-84829889D01*
X99363612Y-84810408D01*
X99307140Y-84785473D01*
X99245379Y-84756722D01*
X99181563Y-84725790D01*
X99118926Y-84694315D01*
X99060703Y-84663934D01*
X99010127Y-84636283D01*
X98970433Y-84612999D01*
X98944854Y-84595718D01*
X98936625Y-84586079D01*
X98938076Y-84582984D01*
X98949250Y-84563079D01*
X98970134Y-84527420D01*
X98999265Y-84478459D01*
X99035181Y-84418646D01*
X99076420Y-84350433D01*
X99121517Y-84276271D01*
X99302785Y-83979008D01*
X99349315Y-84023539D01*
X99440723Y-84101865D01*
X99554334Y-84176439D01*
X99672122Y-84230474D01*
X99792559Y-84263290D01*
X99914117Y-84274211D01*
X99955585Y-84272868D01*
X100073080Y-84254612D01*
X100183089Y-84215617D01*
X100284430Y-84156670D01*
X100375921Y-84078557D01*
X100456380Y-83982064D01*
X100524627Y-83867978D01*
X100540908Y-83833724D01*
X100586982Y-83710240D01*
X100622106Y-83571918D01*
X100646197Y-83422561D01*
X100659173Y-83265973D01*
X100660949Y-83105956D01*
X100651443Y-82946314D01*
X100630572Y-82790850D01*
X100598252Y-82643366D01*
X100554399Y-82507667D01*
X100516982Y-82421076D01*
X100452185Y-82307688D01*
X100376772Y-82214070D01*
X100290418Y-82139959D01*
X100192795Y-82085094D01*
X100083577Y-82049212D01*
X99962439Y-82032051D01*
X99893038Y-82030880D01*
X99770168Y-82045141D01*
X99654664Y-82080241D01*
X99547953Y-82135682D01*
X99451464Y-82210964D01*
X99435720Y-82225440D01*
X99405150Y-82251962D01*
X99382809Y-82269138D01*
X99372691Y-82273787D01*
X99370706Y-82271597D01*
X99356241Y-82252721D01*
X99332400Y-82219397D01*
X99301029Y-82174380D01*
X99263974Y-82120425D01*
X99223083Y-82060285D01*
X99180202Y-81996718D01*
X99137178Y-81932476D01*
X99095857Y-81870315D01*
X99058086Y-81812991D01*
X99025712Y-81763257D01*
X99000582Y-81723868D01*
X98984542Y-81697580D01*
X98979439Y-81687147D01*
X98984050Y-81682941D01*
X99003267Y-81677933D01*
X99012838Y-81675386D01*
X99040809Y-81664249D01*
X99082448Y-81645802D01*
X99133995Y-81621725D01*
X99191690Y-81593699D01*
X99202957Y-81588154D01*
X99380687Y-81508889D01*
X99550490Y-81449385D01*
X99714430Y-81409245D01*
X99874571Y-81388071D01*
X100032977Y-81385466D01*
X100191711Y-81401033D01*
G37*
X96388994Y-83681711D02*
X96388268Y-83759158D01*
X96379689Y-83910594D01*
X96360833Y-84047283D01*
X96330837Y-84173276D01*
X96288836Y-84292625D01*
X96233969Y-84409381D01*
X96167167Y-84520179D01*
X96076363Y-84633739D01*
X95972708Y-84729211D01*
X95856887Y-84806073D01*
X95729586Y-84863797D01*
X95591489Y-84901858D01*
X95553793Y-84907666D01*
X95474752Y-84913396D01*
X95386629Y-84913583D01*
X95297236Y-84908539D01*
X95214384Y-84898578D01*
X95145887Y-84884012D01*
X95115035Y-84874364D01*
X95037730Y-84844123D01*
X94960679Y-84806617D01*
X94891200Y-84765614D01*
X94836615Y-84724879D01*
X94813916Y-84705505D01*
X94791201Y-84687662D01*
X94779779Y-84680778D01*
X94778537Y-84682424D01*
X94775728Y-84700205D01*
X94773776Y-84733370D01*
X94773045Y-84776733D01*
X94773045Y-84872689D01*
X93914896Y-84872689D01*
X93949161Y-84811974D01*
X93954355Y-84802868D01*
X93962715Y-84788249D01*
X93970288Y-84774173D01*
X93977112Y-84759540D01*
X93983227Y-84743249D01*
X93988673Y-84724198D01*
X93993487Y-84701286D01*
X93997708Y-84673413D01*
X94001377Y-84639478D01*
X94004531Y-84598379D01*
X94007211Y-84549015D01*
X94009454Y-84490286D01*
X94011299Y-84421090D01*
X94012787Y-84340326D01*
X94013955Y-84246894D01*
X94014844Y-84139692D01*
X94015491Y-84017620D01*
X94015936Y-83879576D01*
X94016218Y-83724459D01*
X94016375Y-83551168D01*
X94016448Y-83358603D01*
X94016474Y-83145662D01*
X94016485Y-83009530D01*
X94818200Y-83009530D01*
X94818200Y-84159721D01*
X94888756Y-84206089D01*
X94929417Y-84229791D01*
X94983546Y-84255639D01*
X95032689Y-84273829D01*
X95096165Y-84289551D01*
X95192331Y-84300541D01*
X95276900Y-84292365D01*
X95350219Y-84264805D01*
X95412637Y-84217642D01*
X95464502Y-84150658D01*
X95506160Y-84063633D01*
X95537962Y-83956350D01*
X95540545Y-83944009D01*
X95549000Y-83882772D01*
X95554663Y-83805692D01*
X95557576Y-83718002D01*
X95557783Y-83624934D01*
X95555330Y-83531720D01*
X95550261Y-83443594D01*
X95542619Y-83365788D01*
X95532448Y-83303533D01*
X95531167Y-83297666D01*
X95502126Y-83187121D01*
X95467610Y-83096575D01*
X95426456Y-83023953D01*
X95377499Y-82967181D01*
X95319574Y-82924184D01*
X95287620Y-82908615D01*
X95214784Y-82889722D01*
X95133443Y-82886465D01*
X95048319Y-82898389D01*
X94964133Y-82925040D01*
X94885608Y-82965962D01*
X94818200Y-83009530D01*
X94016485Y-83009530D01*
X94016493Y-82911245D01*
X94016689Y-81226378D01*
X94922017Y-81226378D01*
X94897585Y-81263067D01*
X94891318Y-81272647D01*
X94865208Y-81318981D01*
X94847469Y-81366102D01*
X94835908Y-81421251D01*
X94828331Y-81491667D01*
X94827839Y-81498650D01*
X94826062Y-81536641D01*
X94824444Y-81590576D01*
X94822999Y-81657703D01*
X94821740Y-81735271D01*
X94820680Y-81820528D01*
X94819829Y-81910724D01*
X94819203Y-82003107D01*
X94818812Y-82094925D01*
X94818670Y-82183427D01*
X94818790Y-82265862D01*
X94819183Y-82339479D01*
X94819862Y-82401526D01*
X94820841Y-82449251D01*
X94822132Y-82479904D01*
X94823747Y-82490733D01*
X94831957Y-82486333D01*
X94853647Y-82471362D01*
X94883014Y-82449448D01*
X94931879Y-82415236D01*
X95020125Y-82368714D01*
X95118916Y-82335046D01*
X95231510Y-82313231D01*
X95361164Y-82302265D01*
X95453670Y-82301219D01*
X95575011Y-82311014D01*
X95685099Y-82335174D01*
X95788389Y-82374785D01*
X95889338Y-82430932D01*
X95934503Y-82461883D01*
X96039911Y-82553115D01*
X96131538Y-82662106D01*
X96209332Y-82788726D01*
X96273241Y-82932845D01*
X96323214Y-83094332D01*
X96359198Y-83273059D01*
X96381143Y-83468895D01*
X96386900Y-83624934D01*
X96388994Y-83681711D01*
G36*
X96388994Y-83681711D02*
G01*
X96388268Y-83759158D01*
X96379689Y-83910594D01*
X96360833Y-84047283D01*
X96330837Y-84173276D01*
X96288836Y-84292625D01*
X96233969Y-84409381D01*
X96167167Y-84520179D01*
X96076363Y-84633739D01*
X95972708Y-84729211D01*
X95856887Y-84806073D01*
X95729586Y-84863797D01*
X95591489Y-84901858D01*
X95553793Y-84907666D01*
X95474752Y-84913396D01*
X95386629Y-84913583D01*
X95297236Y-84908539D01*
X95214384Y-84898578D01*
X95145887Y-84884012D01*
X95115035Y-84874364D01*
X95037730Y-84844123D01*
X94960679Y-84806617D01*
X94891200Y-84765614D01*
X94836615Y-84724879D01*
X94813916Y-84705505D01*
X94791201Y-84687662D01*
X94779779Y-84680778D01*
X94778537Y-84682424D01*
X94775728Y-84700205D01*
X94773776Y-84733370D01*
X94773045Y-84776733D01*
X94773045Y-84872689D01*
X93914896Y-84872689D01*
X93949161Y-84811974D01*
X93954355Y-84802868D01*
X93962715Y-84788249D01*
X93970288Y-84774173D01*
X93977112Y-84759540D01*
X93983227Y-84743249D01*
X93988673Y-84724198D01*
X93993487Y-84701286D01*
X93997708Y-84673413D01*
X94001377Y-84639478D01*
X94004531Y-84598379D01*
X94007211Y-84549015D01*
X94009454Y-84490286D01*
X94011299Y-84421090D01*
X94012787Y-84340326D01*
X94013955Y-84246894D01*
X94014844Y-84139692D01*
X94015491Y-84017620D01*
X94015936Y-83879576D01*
X94016218Y-83724459D01*
X94016375Y-83551168D01*
X94016448Y-83358603D01*
X94016474Y-83145662D01*
X94016485Y-83009530D01*
X94818200Y-83009530D01*
X94818200Y-84159721D01*
X94888756Y-84206089D01*
X94929417Y-84229791D01*
X94983546Y-84255639D01*
X95032689Y-84273829D01*
X95096165Y-84289551D01*
X95192331Y-84300541D01*
X95276900Y-84292365D01*
X95350219Y-84264805D01*
X95412637Y-84217642D01*
X95464502Y-84150658D01*
X95506160Y-84063633D01*
X95537962Y-83956350D01*
X95540545Y-83944009D01*
X95549000Y-83882772D01*
X95554663Y-83805692D01*
X95557576Y-83718002D01*
X95557783Y-83624934D01*
X95555330Y-83531720D01*
X95550261Y-83443594D01*
X95542619Y-83365788D01*
X95532448Y-83303533D01*
X95531167Y-83297666D01*
X95502126Y-83187121D01*
X95467610Y-83096575D01*
X95426456Y-83023953D01*
X95377499Y-82967181D01*
X95319574Y-82924184D01*
X95287620Y-82908615D01*
X95214784Y-82889722D01*
X95133443Y-82886465D01*
X95048319Y-82898389D01*
X94964133Y-82925040D01*
X94885608Y-82965962D01*
X94818200Y-83009530D01*
X94016485Y-83009530D01*
X94016493Y-82911245D01*
X94016689Y-81226378D01*
X94922017Y-81226378D01*
X94897585Y-81263067D01*
X94891318Y-81272647D01*
X94865208Y-81318981D01*
X94847469Y-81366102D01*
X94835908Y-81421251D01*
X94828331Y-81491667D01*
X94827839Y-81498650D01*
X94826062Y-81536641D01*
X94824444Y-81590576D01*
X94822999Y-81657703D01*
X94821740Y-81735271D01*
X94820680Y-81820528D01*
X94819829Y-81910724D01*
X94819203Y-82003107D01*
X94818812Y-82094925D01*
X94818670Y-82183427D01*
X94818790Y-82265862D01*
X94819183Y-82339479D01*
X94819862Y-82401526D01*
X94820841Y-82449251D01*
X94822132Y-82479904D01*
X94823747Y-82490733D01*
X94831957Y-82486333D01*
X94853647Y-82471362D01*
X94883014Y-82449448D01*
X94931879Y-82415236D01*
X95020125Y-82368714D01*
X95118916Y-82335046D01*
X95231510Y-82313231D01*
X95361164Y-82302265D01*
X95453670Y-82301219D01*
X95575011Y-82311014D01*
X95685099Y-82335174D01*
X95788389Y-82374785D01*
X95889338Y-82430932D01*
X95934503Y-82461883D01*
X96039911Y-82553115D01*
X96131538Y-82662106D01*
X96209332Y-82788726D01*
X96273241Y-82932845D01*
X96323214Y-83094332D01*
X96359198Y-83273059D01*
X96381143Y-83468895D01*
X96386900Y-83624934D01*
X96388994Y-83681711D01*
G37*
X98930755Y-84082467D02*
X98930261Y-84116363D01*
X98926632Y-84191202D01*
X98919022Y-84253401D01*
X98906688Y-84309984D01*
X98862313Y-84436076D01*
X98799400Y-84550679D01*
X98719238Y-84651568D01*
X98622740Y-84737924D01*
X98510822Y-84808932D01*
X98384397Y-84863776D01*
X98244378Y-84901638D01*
X98208149Y-84907351D01*
X98129155Y-84913313D01*
X98040841Y-84913646D01*
X97951075Y-84908659D01*
X97867722Y-84898666D01*
X97798651Y-84883978D01*
X97712187Y-84853749D01*
X97602286Y-84799057D01*
X97504956Y-84731543D01*
X97442867Y-84680556D01*
X97439605Y-84776622D01*
X97436343Y-84872689D01*
X97013450Y-84872689D01*
X97002543Y-84872686D01*
X96908056Y-84872380D01*
X96821331Y-84871616D01*
X96744837Y-84870451D01*
X96681043Y-84868942D01*
X96632418Y-84867147D01*
X96601433Y-84865121D01*
X96590556Y-84862922D01*
X96590578Y-84862463D01*
X96597614Y-84846910D01*
X96613434Y-84824071D01*
X96617734Y-84818638D01*
X96628777Y-84804606D01*
X96638311Y-84791186D01*
X96646461Y-84776722D01*
X96653352Y-84759556D01*
X96659111Y-84738034D01*
X96663862Y-84710498D01*
X96667731Y-84675292D01*
X96670844Y-84630760D01*
X96673325Y-84575246D01*
X96675300Y-84507093D01*
X96676894Y-84424645D01*
X96678234Y-84326246D01*
X96679444Y-84210239D01*
X96680649Y-84074968D01*
X96681595Y-83963586D01*
X97482378Y-83963586D01*
X97482378Y-84159462D01*
X97527048Y-84215973D01*
X97539785Y-84231212D01*
X97586604Y-84273844D01*
X97647255Y-84309672D01*
X97657897Y-84314850D01*
X97696676Y-84331745D01*
X97731692Y-84341909D01*
X97771722Y-84347325D01*
X97825541Y-84349978D01*
X97843648Y-84350383D01*
X97919011Y-84347540D01*
X97979743Y-84335620D01*
X98031452Y-84313037D01*
X98079746Y-84278211D01*
X98084803Y-84273798D01*
X98133272Y-84218160D01*
X98161459Y-84154333D01*
X98170752Y-84079282D01*
X98163520Y-84007693D01*
X98138796Y-83944645D01*
X98094249Y-83886758D01*
X98039319Y-83839808D01*
X97966894Y-83799961D01*
X97880340Y-83772263D01*
X97777670Y-83756096D01*
X97656894Y-83750842D01*
X97648007Y-83750857D01*
X97592660Y-83751655D01*
X97545736Y-83753488D01*
X97511953Y-83756111D01*
X97496028Y-83759274D01*
X97491943Y-83765741D01*
X97487572Y-83787875D01*
X97484604Y-83826988D01*
X97482914Y-83884939D01*
X97482378Y-83963586D01*
X96681595Y-83963586D01*
X96681975Y-83918778D01*
X96683228Y-83776012D01*
X96684651Y-83630942D01*
X96686176Y-83505027D01*
X96687933Y-83396436D01*
X96690051Y-83303334D01*
X96692660Y-83223891D01*
X96695890Y-83156273D01*
X96699869Y-83098649D01*
X96704728Y-83049185D01*
X96710597Y-83006050D01*
X96717604Y-82967410D01*
X96725880Y-82931434D01*
X96735554Y-82896289D01*
X96746756Y-82860142D01*
X96759616Y-82821161D01*
X96775090Y-82778091D01*
X96817994Y-82685871D01*
X96871735Y-82606099D01*
X96940576Y-82531965D01*
X97018185Y-82468405D01*
X97122761Y-82406725D01*
X97242244Y-82359202D01*
X97377508Y-82325567D01*
X97529426Y-82305552D01*
X97698872Y-82298889D01*
X97756890Y-82299287D01*
X97822398Y-82301335D01*
X97883693Y-82305704D01*
X97945097Y-82313035D01*
X98010932Y-82323969D01*
X98085520Y-82339147D01*
X98173184Y-82359209D01*
X98278245Y-82384797D01*
X98306806Y-82391820D01*
X98382054Y-82409776D01*
X98452388Y-82425820D01*
X98513567Y-82439028D01*
X98561354Y-82448474D01*
X98591511Y-82453231D01*
X98619783Y-82456910D01*
X98646060Y-82462187D01*
X98656059Y-82466942D01*
X98652952Y-82475781D01*
X98642194Y-82503072D01*
X98624864Y-82545906D01*
X98602126Y-82601425D01*
X98575147Y-82666772D01*
X98545090Y-82739089D01*
X98538493Y-82754879D01*
X98499907Y-82845484D01*
X98468768Y-82915217D01*
X98444917Y-82964405D01*
X98428198Y-82993374D01*
X98418454Y-83002452D01*
X98410766Y-83000405D01*
X98384415Y-82990760D01*
X98345982Y-82975190D01*
X98300822Y-82955815D01*
X98206293Y-82917814D01*
X98069480Y-82876780D01*
X97928289Y-82851612D01*
X97890314Y-82847611D01*
X97787059Y-82845447D01*
X97699952Y-82858622D01*
X97628129Y-82887756D01*
X97570731Y-82933466D01*
X97526896Y-82996372D01*
X97495762Y-83077092D01*
X97476470Y-83176245D01*
X97469050Y-83235224D01*
X97630936Y-83228445D01*
X97757495Y-83226813D01*
X97908951Y-83233194D01*
X98057396Y-83247777D01*
X98193578Y-83269882D01*
X98258245Y-83284821D01*
X98390490Y-83327741D01*
X98512762Y-83384340D01*
X98622685Y-83453017D01*
X98717883Y-83532170D01*
X98795980Y-83620196D01*
X98854599Y-83715493D01*
X98878595Y-83767864D01*
X98904232Y-83838590D01*
X98920478Y-83909812D01*
X98928822Y-83988712D01*
X98930690Y-84079282D01*
X98930755Y-84082467D01*
G36*
X98930755Y-84082467D02*
G01*
X98930261Y-84116363D01*
X98926632Y-84191202D01*
X98919022Y-84253401D01*
X98906688Y-84309984D01*
X98862313Y-84436076D01*
X98799400Y-84550679D01*
X98719238Y-84651568D01*
X98622740Y-84737924D01*
X98510822Y-84808932D01*
X98384397Y-84863776D01*
X98244378Y-84901638D01*
X98208149Y-84907351D01*
X98129155Y-84913313D01*
X98040841Y-84913646D01*
X97951075Y-84908659D01*
X97867722Y-84898666D01*
X97798651Y-84883978D01*
X97712187Y-84853749D01*
X97602286Y-84799057D01*
X97504956Y-84731543D01*
X97442867Y-84680556D01*
X97439605Y-84776622D01*
X97436343Y-84872689D01*
X97013450Y-84872689D01*
X97002543Y-84872686D01*
X96908056Y-84872380D01*
X96821331Y-84871616D01*
X96744837Y-84870451D01*
X96681043Y-84868942D01*
X96632418Y-84867147D01*
X96601433Y-84865121D01*
X96590556Y-84862922D01*
X96590578Y-84862463D01*
X96597614Y-84846910D01*
X96613434Y-84824071D01*
X96617734Y-84818638D01*
X96628777Y-84804606D01*
X96638311Y-84791186D01*
X96646461Y-84776722D01*
X96653352Y-84759556D01*
X96659111Y-84738034D01*
X96663862Y-84710498D01*
X96667731Y-84675292D01*
X96670844Y-84630760D01*
X96673325Y-84575246D01*
X96675300Y-84507093D01*
X96676894Y-84424645D01*
X96678234Y-84326246D01*
X96679444Y-84210239D01*
X96680649Y-84074968D01*
X96681595Y-83963586D01*
X97482378Y-83963586D01*
X97482378Y-84159462D01*
X97527048Y-84215973D01*
X97539785Y-84231212D01*
X97586604Y-84273844D01*
X97647255Y-84309672D01*
X97657897Y-84314850D01*
X97696676Y-84331745D01*
X97731692Y-84341909D01*
X97771722Y-84347325D01*
X97825541Y-84349978D01*
X97843648Y-84350383D01*
X97919011Y-84347540D01*
X97979743Y-84335620D01*
X98031452Y-84313037D01*
X98079746Y-84278211D01*
X98084803Y-84273798D01*
X98133272Y-84218160D01*
X98161459Y-84154333D01*
X98170752Y-84079282D01*
X98163520Y-84007693D01*
X98138796Y-83944645D01*
X98094249Y-83886758D01*
X98039319Y-83839808D01*
X97966894Y-83799961D01*
X97880340Y-83772263D01*
X97777670Y-83756096D01*
X97656894Y-83750842D01*
X97648007Y-83750857D01*
X97592660Y-83751655D01*
X97545736Y-83753488D01*
X97511953Y-83756111D01*
X97496028Y-83759274D01*
X97491943Y-83765741D01*
X97487572Y-83787875D01*
X97484604Y-83826988D01*
X97482914Y-83884939D01*
X97482378Y-83963586D01*
X96681595Y-83963586D01*
X96681975Y-83918778D01*
X96683228Y-83776012D01*
X96684651Y-83630942D01*
X96686176Y-83505027D01*
X96687933Y-83396436D01*
X96690051Y-83303334D01*
X96692660Y-83223891D01*
X96695890Y-83156273D01*
X96699869Y-83098649D01*
X96704728Y-83049185D01*
X96710597Y-83006050D01*
X96717604Y-82967410D01*
X96725880Y-82931434D01*
X96735554Y-82896289D01*
X96746756Y-82860142D01*
X96759616Y-82821161D01*
X96775090Y-82778091D01*
X96817994Y-82685871D01*
X96871735Y-82606099D01*
X96940576Y-82531965D01*
X97018185Y-82468405D01*
X97122761Y-82406725D01*
X97242244Y-82359202D01*
X97377508Y-82325567D01*
X97529426Y-82305552D01*
X97698872Y-82298889D01*
X97756890Y-82299287D01*
X97822398Y-82301335D01*
X97883693Y-82305704D01*
X97945097Y-82313035D01*
X98010932Y-82323969D01*
X98085520Y-82339147D01*
X98173184Y-82359209D01*
X98278245Y-82384797D01*
X98306806Y-82391820D01*
X98382054Y-82409776D01*
X98452388Y-82425820D01*
X98513567Y-82439028D01*
X98561354Y-82448474D01*
X98591511Y-82453231D01*
X98619783Y-82456910D01*
X98646060Y-82462187D01*
X98656059Y-82466942D01*
X98652952Y-82475781D01*
X98642194Y-82503072D01*
X98624864Y-82545906D01*
X98602126Y-82601425D01*
X98575147Y-82666772D01*
X98545090Y-82739089D01*
X98538493Y-82754879D01*
X98499907Y-82845484D01*
X98468768Y-82915217D01*
X98444917Y-82964405D01*
X98428198Y-82993374D01*
X98418454Y-83002452D01*
X98410766Y-83000405D01*
X98384415Y-82990760D01*
X98345982Y-82975190D01*
X98300822Y-82955815D01*
X98206293Y-82917814D01*
X98069480Y-82876780D01*
X97928289Y-82851612D01*
X97890314Y-82847611D01*
X97787059Y-82845447D01*
X97699952Y-82858622D01*
X97628129Y-82887756D01*
X97570731Y-82933466D01*
X97526896Y-82996372D01*
X97495762Y-83077092D01*
X97476470Y-83176245D01*
X97469050Y-83235224D01*
X97630936Y-83228445D01*
X97757495Y-83226813D01*
X97908951Y-83233194D01*
X98057396Y-83247777D01*
X98193578Y-83269882D01*
X98258245Y-83284821D01*
X98390490Y-83327741D01*
X98512762Y-83384340D01*
X98622685Y-83453017D01*
X98717883Y-83532170D01*
X98795980Y-83620196D01*
X98854599Y-83715493D01*
X98878595Y-83767864D01*
X98904232Y-83838590D01*
X98920478Y-83909812D01*
X98928822Y-83988712D01*
X98930690Y-84079282D01*
X98930755Y-84082467D01*
G37*
X106478614Y-81550792D02*
X106479059Y-81682011D01*
X106479362Y-81829216D01*
X106479548Y-81993349D01*
X106479642Y-82175352D01*
X106479671Y-82376165D01*
X106479661Y-82596732D01*
X106479636Y-82837992D01*
X106479622Y-83100889D01*
X106479622Y-83143040D01*
X106479646Y-83403668D01*
X106479685Y-83642796D01*
X106479708Y-83861360D01*
X106479687Y-84060295D01*
X106479593Y-84240535D01*
X106479395Y-84403015D01*
X106479063Y-84548670D01*
X106478569Y-84678434D01*
X106477883Y-84793243D01*
X106476976Y-84894030D01*
X106475817Y-84981730D01*
X106474378Y-85057279D01*
X106472629Y-85121611D01*
X106470540Y-85175661D01*
X106468083Y-85220363D01*
X106465227Y-85256652D01*
X106461943Y-85285463D01*
X106458202Y-85307731D01*
X106453974Y-85324390D01*
X106449229Y-85336375D01*
X106443939Y-85344621D01*
X106438073Y-85350062D01*
X106431602Y-85353634D01*
X106424497Y-85356270D01*
X106416728Y-85358906D01*
X106408266Y-85362477D01*
X106403908Y-85364145D01*
X106395395Y-85366111D01*
X106382694Y-85367911D01*
X106364885Y-85369555D01*
X106341049Y-85371047D01*
X106310266Y-85372397D01*
X106271617Y-85373611D01*
X106224182Y-85374697D01*
X106167043Y-85375661D01*
X106099279Y-85376511D01*
X106019971Y-85377253D01*
X105928199Y-85377897D01*
X105823044Y-85378447D01*
X105703587Y-85378913D01*
X105568908Y-85379300D01*
X105418088Y-85379616D01*
X105250206Y-85379869D01*
X105064345Y-85380066D01*
X104859583Y-85380213D01*
X104635002Y-85380318D01*
X104389682Y-85380389D01*
X104122704Y-85380432D01*
X104084321Y-85380437D01*
X103818922Y-85380480D01*
X103575050Y-85380525D01*
X103351783Y-85380548D01*
X103148196Y-85380524D01*
X102963367Y-85380430D01*
X102796373Y-85380243D01*
X102646290Y-85379939D01*
X102512196Y-85379494D01*
X102393166Y-85378885D01*
X102288279Y-85378089D01*
X102196610Y-85377080D01*
X102117237Y-85375837D01*
X102049237Y-85374335D01*
X101991686Y-85372551D01*
X101943662Y-85370461D01*
X101904240Y-85368042D01*
X101872499Y-85365270D01*
X101847514Y-85362121D01*
X101828364Y-85358572D01*
X101814123Y-85354598D01*
X101803871Y-85350178D01*
X101796682Y-85345286D01*
X101791635Y-85339900D01*
X101787805Y-85333996D01*
X101784271Y-85327549D01*
X101780108Y-85320537D01*
X101779025Y-85318687D01*
X101776813Y-85313180D01*
X101774786Y-85304868D01*
X101772938Y-85292809D01*
X101771261Y-85276063D01*
X101769745Y-85253687D01*
X101768383Y-85224740D01*
X101767167Y-85188280D01*
X101766089Y-85143367D01*
X101765140Y-85089057D01*
X101764312Y-85024410D01*
X101763597Y-84948484D01*
X101762987Y-84860338D01*
X101762942Y-84851493D01*
X102054378Y-84851493D01*
X102058260Y-84852765D01*
X102081520Y-84854791D01*
X102123874Y-84856626D01*
X102183132Y-84858227D01*
X102257107Y-84859549D01*
X102343610Y-84860548D01*
X102440452Y-84861180D01*
X102545445Y-84861400D01*
X103243651Y-84861400D01*
X104398090Y-84861400D01*
X104397456Y-84785200D01*
X104398574Y-84743160D01*
X104404304Y-84707334D01*
X104416890Y-84669772D01*
X104438568Y-84621577D01*
X104441789Y-84614897D01*
X104467188Y-84565359D01*
X104493996Y-84517369D01*
X104516917Y-84480466D01*
X104521485Y-84473834D01*
X104543516Y-84442593D01*
X104575693Y-84397654D01*
X104616457Y-84341147D01*
X104664245Y-84275204D01*
X104717498Y-84201957D01*
X104774655Y-84123536D01*
X104834155Y-84042072D01*
X104894437Y-83959698D01*
X104953940Y-83878544D01*
X105011105Y-83800742D01*
X105064370Y-83728423D01*
X105112174Y-83663718D01*
X105152957Y-83608759D01*
X105185158Y-83565676D01*
X105207216Y-83536602D01*
X105217571Y-83523667D01*
X105222044Y-83519351D01*
X105226236Y-83517312D01*
X105229643Y-83519926D01*
X105232325Y-83528986D01*
X105234341Y-83546285D01*
X105235748Y-83573614D01*
X105236605Y-83612765D01*
X105236970Y-83665533D01*
X105236903Y-83733707D01*
X105236460Y-83819082D01*
X105235702Y-83923449D01*
X105234685Y-84048600D01*
X105234308Y-84093300D01*
X105233169Y-84214395D01*
X105231972Y-84315688D01*
X105230636Y-84399262D01*
X105229077Y-84467204D01*
X105227215Y-84521599D01*
X105224966Y-84564532D01*
X105222248Y-84598089D01*
X105218979Y-84624355D01*
X105215078Y-84645416D01*
X105210461Y-84663357D01*
X105202192Y-84689770D01*
X105178583Y-84751772D01*
X105152685Y-84804573D01*
X105127535Y-84841645D01*
X105126339Y-84843075D01*
X105124168Y-84847424D01*
X105126328Y-84851026D01*
X105134644Y-84853951D01*
X105150940Y-84856269D01*
X105177041Y-84858051D01*
X105214771Y-84859367D01*
X105265956Y-84860286D01*
X105332420Y-84860878D01*
X105415987Y-84861215D01*
X105518483Y-84861365D01*
X105641732Y-84861400D01*
X106173296Y-84861400D01*
X106134523Y-84803783D01*
X106128432Y-84794893D01*
X106117976Y-84780069D01*
X106108579Y-84766422D01*
X106100183Y-84752765D01*
X106092733Y-84737911D01*
X106086173Y-84720670D01*
X106080446Y-84699855D01*
X106075495Y-84674280D01*
X106071266Y-84642755D01*
X106067701Y-84604093D01*
X106064744Y-84557107D01*
X106062340Y-84500608D01*
X106060431Y-84433409D01*
X106058962Y-84354322D01*
X106057876Y-84262160D01*
X106057118Y-84155734D01*
X106056630Y-84033857D01*
X106056358Y-83895341D01*
X106056243Y-83738999D01*
X106056231Y-83563642D01*
X106056265Y-83368082D01*
X106056289Y-83151133D01*
X106056280Y-83028513D01*
X106056243Y-82823447D01*
X106056227Y-82639116D01*
X106056288Y-82474334D01*
X106056484Y-82327916D01*
X106056870Y-82198674D01*
X106057505Y-82085422D01*
X106058444Y-81986975D01*
X106059745Y-81902144D01*
X106061464Y-81829744D01*
X106063659Y-81768589D01*
X106066385Y-81717492D01*
X106069701Y-81675267D01*
X106073662Y-81640727D01*
X106078325Y-81612686D01*
X106083747Y-81589958D01*
X106089986Y-81571356D01*
X106097097Y-81555693D01*
X106105138Y-81541784D01*
X106114166Y-81528441D01*
X106124236Y-81514479D01*
X106135407Y-81498711D01*
X106175197Y-81440867D01*
X105115314Y-81440867D01*
X105153311Y-81503966D01*
X105167993Y-81529005D01*
X105182531Y-81556586D01*
X105194627Y-81584700D01*
X105204532Y-81615551D01*
X105212494Y-81651344D01*
X105218761Y-81694283D01*
X105223582Y-81746574D01*
X105227206Y-81810419D01*
X105229881Y-81888025D01*
X105231857Y-81981594D01*
X105233382Y-82093333D01*
X105234704Y-82225445D01*
X105235613Y-82345434D01*
X105236020Y-82462063D01*
X105235767Y-82557531D01*
X105234857Y-82631556D01*
X105233293Y-82683855D01*
X105231079Y-82714149D01*
X105228220Y-82722156D01*
X105225161Y-82718858D01*
X105207006Y-82697408D01*
X105177275Y-82660889D01*
X105137639Y-82611442D01*
X105089771Y-82551207D01*
X105035343Y-82482327D01*
X104976027Y-82406943D01*
X104913495Y-82327196D01*
X104849421Y-82245228D01*
X104785475Y-82163180D01*
X104723331Y-82083194D01*
X104664661Y-82007411D01*
X104611137Y-81937973D01*
X104564430Y-81877021D01*
X104526214Y-81826696D01*
X104498161Y-81789140D01*
X104481943Y-81766495D01*
X104436635Y-81694212D01*
X104396661Y-81614463D01*
X104375130Y-81546188D01*
X104371827Y-81488844D01*
X104377116Y-81440867D01*
X103245356Y-81441117D01*
X103284867Y-81471722D01*
X103294248Y-81479089D01*
X103357183Y-81533438D01*
X103425997Y-81601259D01*
X103502596Y-81684516D01*
X103588888Y-81785178D01*
X103606052Y-81805847D01*
X103646833Y-81855409D01*
X103696588Y-81916326D01*
X103753955Y-81986898D01*
X103817569Y-82065424D01*
X103886069Y-82150204D01*
X103958090Y-82239537D01*
X104032270Y-82331722D01*
X104047517Y-82350702D01*
X104107246Y-82425060D01*
X104181653Y-82517848D01*
X104254131Y-82608388D01*
X104323314Y-82694978D01*
X104387841Y-82775918D01*
X104446347Y-82849506D01*
X104497470Y-82914044D01*
X104539847Y-82967829D01*
X104572115Y-83009162D01*
X104592910Y-83036342D01*
X104600869Y-83047668D01*
X104599111Y-83051771D01*
X104586230Y-83072334D01*
X104561885Y-83108561D01*
X104527247Y-83158824D01*
X104483486Y-83221492D01*
X104431775Y-83294936D01*
X104373284Y-83377527D01*
X104309184Y-83467636D01*
X104240646Y-83563631D01*
X104168843Y-83663885D01*
X104094944Y-83766768D01*
X104020121Y-83870650D01*
X103945545Y-83973901D01*
X103872387Y-84074892D01*
X103801819Y-84171994D01*
X103735011Y-84263577D01*
X103673135Y-84348011D01*
X103617361Y-84423667D01*
X103568862Y-84488916D01*
X103528807Y-84542128D01*
X103498369Y-84581673D01*
X103477944Y-84607026D01*
X103431899Y-84661295D01*
X103381612Y-84717775D01*
X103334815Y-84767669D01*
X103243651Y-84861400D01*
X102545445Y-84861400D01*
X102614356Y-84861349D01*
X102712607Y-84861091D01*
X102802030Y-84860637D01*
X102880333Y-84860010D01*
X102945223Y-84859235D01*
X102994411Y-84858335D01*
X103025604Y-84857334D01*
X103036511Y-84856257D01*
X103035322Y-84853037D01*
X103025176Y-84835452D01*
X103008040Y-84809158D01*
X102999540Y-84796691D01*
X102990329Y-84782622D01*
X102982233Y-84768351D01*
X102975185Y-84752479D01*
X102969117Y-84733609D01*
X102963961Y-84710341D01*
X102959651Y-84681278D01*
X102956119Y-84645021D01*
X102953297Y-84600170D01*
X102951118Y-84545328D01*
X102949514Y-84479097D01*
X102948419Y-84400077D01*
X102947765Y-84306871D01*
X102947484Y-84198079D01*
X102947509Y-84072303D01*
X102947772Y-83928145D01*
X102948206Y-83764207D01*
X102948745Y-83579089D01*
X102949279Y-83400232D01*
X102949805Y-83241374D01*
X102950350Y-83102316D01*
X102950945Y-82981665D01*
X102951619Y-82878028D01*
X102952403Y-82790011D01*
X102953326Y-82716223D01*
X102954419Y-82655269D01*
X102955712Y-82605757D01*
X102957235Y-82566293D01*
X102959019Y-82535484D01*
X102961092Y-82511938D01*
X102963486Y-82494260D01*
X102966230Y-82481059D01*
X102969356Y-82470940D01*
X102972892Y-82462511D01*
X102976791Y-82454375D01*
X102996438Y-82417544D01*
X103015225Y-82387391D01*
X103016272Y-82385908D01*
X103030602Y-82363659D01*
X103036511Y-82350702D01*
X103035504Y-82350249D01*
X103018305Y-82348803D01*
X102981656Y-82347480D01*
X102927962Y-82346316D01*
X102859630Y-82345347D01*
X102779064Y-82344611D01*
X102688670Y-82344142D01*
X102590853Y-82343978D01*
X102145195Y-82343978D01*
X102142120Y-83520845D01*
X102139045Y-84697711D01*
X102112407Y-84756622D01*
X102100485Y-84781183D01*
X102083246Y-84811434D01*
X102070074Y-84828560D01*
X102062076Y-84836591D01*
X102054378Y-84851493D01*
X101762942Y-84851493D01*
X101762474Y-84759029D01*
X101762050Y-84643617D01*
X101761706Y-84513160D01*
X101761434Y-84366716D01*
X101761227Y-84203344D01*
X101761076Y-84022101D01*
X101760972Y-83822048D01*
X101760908Y-83602241D01*
X101760876Y-83361739D01*
X101760867Y-83099602D01*
X101760867Y-80908031D01*
X101799249Y-80869649D01*
X101826355Y-80845911D01*
X101853253Y-80834111D01*
X101889560Y-80831267D01*
X101941489Y-80831267D01*
X101941489Y-80919206D01*
X101943427Y-80969102D01*
X101962199Y-81079523D01*
X101999217Y-81180987D01*
X102052369Y-81272152D01*
X102119546Y-81351673D01*
X102198638Y-81418205D01*
X102287534Y-81470406D01*
X102384125Y-81506930D01*
X102486300Y-81526434D01*
X102591950Y-81527573D01*
X102698964Y-81509005D01*
X102805232Y-81469384D01*
X102902219Y-81411516D01*
X102987293Y-81336684D01*
X103056015Y-81248615D01*
X103106918Y-81149616D01*
X103138535Y-81041993D01*
X103149400Y-80928054D01*
X103149400Y-80831267D01*
X104769753Y-80831267D01*
X104980897Y-80831280D01*
X105185020Y-80831330D01*
X105368686Y-80831430D01*
X105532991Y-80831592D01*
X105679029Y-80831829D01*
X105807894Y-80832153D01*
X105920683Y-80832575D01*
X106018488Y-80833109D01*
X106102404Y-80833767D01*
X106173527Y-80834561D01*
X106232950Y-80835504D01*
X106281768Y-80836608D01*
X106321077Y-80837884D01*
X106351969Y-80839347D01*
X106375541Y-80841007D01*
X106392886Y-80842878D01*
X106405099Y-80844972D01*
X106413275Y-80847300D01*
X106418508Y-80849876D01*
X106424504Y-80853445D01*
X106431279Y-80856978D01*
X106437478Y-80860488D01*
X106443126Y-80864918D01*
X106448247Y-80871208D01*
X106452869Y-80880301D01*
X106457015Y-80893139D01*
X106460713Y-80910662D01*
X106463987Y-80933813D01*
X106466863Y-80963534D01*
X106469367Y-81000765D01*
X106471524Y-81046449D01*
X106473360Y-81101527D01*
X106474900Y-81166941D01*
X106476170Y-81243633D01*
X106477195Y-81332544D01*
X106478001Y-81434617D01*
X106478034Y-81440867D01*
X106478614Y-81550792D01*
G36*
X106478614Y-81550792D02*
G01*
X106479059Y-81682011D01*
X106479362Y-81829216D01*
X106479548Y-81993349D01*
X106479642Y-82175352D01*
X106479671Y-82376165D01*
X106479661Y-82596732D01*
X106479636Y-82837992D01*
X106479622Y-83100889D01*
X106479622Y-83143040D01*
X106479646Y-83403668D01*
X106479685Y-83642796D01*
X106479708Y-83861360D01*
X106479687Y-84060295D01*
X106479593Y-84240535D01*
X106479395Y-84403015D01*
X106479063Y-84548670D01*
X106478569Y-84678434D01*
X106477883Y-84793243D01*
X106476976Y-84894030D01*
X106475817Y-84981730D01*
X106474378Y-85057279D01*
X106472629Y-85121611D01*
X106470540Y-85175661D01*
X106468083Y-85220363D01*
X106465227Y-85256652D01*
X106461943Y-85285463D01*
X106458202Y-85307731D01*
X106453974Y-85324390D01*
X106449229Y-85336375D01*
X106443939Y-85344621D01*
X106438073Y-85350062D01*
X106431602Y-85353634D01*
X106424497Y-85356270D01*
X106416728Y-85358906D01*
X106408266Y-85362477D01*
X106403908Y-85364145D01*
X106395395Y-85366111D01*
X106382694Y-85367911D01*
X106364885Y-85369555D01*
X106341049Y-85371047D01*
X106310266Y-85372397D01*
X106271617Y-85373611D01*
X106224182Y-85374697D01*
X106167043Y-85375661D01*
X106099279Y-85376511D01*
X106019971Y-85377253D01*
X105928199Y-85377897D01*
X105823044Y-85378447D01*
X105703587Y-85378913D01*
X105568908Y-85379300D01*
X105418088Y-85379616D01*
X105250206Y-85379869D01*
X105064345Y-85380066D01*
X104859583Y-85380213D01*
X104635002Y-85380318D01*
X104389682Y-85380389D01*
X104122704Y-85380432D01*
X104084321Y-85380437D01*
X103818922Y-85380480D01*
X103575050Y-85380525D01*
X103351783Y-85380548D01*
X103148196Y-85380524D01*
X102963367Y-85380430D01*
X102796373Y-85380243D01*
X102646290Y-85379939D01*
X102512196Y-85379494D01*
X102393166Y-85378885D01*
X102288279Y-85378089D01*
X102196610Y-85377080D01*
X102117237Y-85375837D01*
X102049237Y-85374335D01*
X101991686Y-85372551D01*
X101943662Y-85370461D01*
X101904240Y-85368042D01*
X101872499Y-85365270D01*
X101847514Y-85362121D01*
X101828364Y-85358572D01*
X101814123Y-85354598D01*
X101803871Y-85350178D01*
X101796682Y-85345286D01*
X101791635Y-85339900D01*
X101787805Y-85333996D01*
X101784271Y-85327549D01*
X101780108Y-85320537D01*
X101779025Y-85318687D01*
X101776813Y-85313180D01*
X101774786Y-85304868D01*
X101772938Y-85292809D01*
X101771261Y-85276063D01*
X101769745Y-85253687D01*
X101768383Y-85224740D01*
X101767167Y-85188280D01*
X101766089Y-85143367D01*
X101765140Y-85089057D01*
X101764312Y-85024410D01*
X101763597Y-84948484D01*
X101762987Y-84860338D01*
X101762942Y-84851493D01*
X102054378Y-84851493D01*
X102058260Y-84852765D01*
X102081520Y-84854791D01*
X102123874Y-84856626D01*
X102183132Y-84858227D01*
X102257107Y-84859549D01*
X102343610Y-84860548D01*
X102440452Y-84861180D01*
X102545445Y-84861400D01*
X103243651Y-84861400D01*
X104398090Y-84861400D01*
X104397456Y-84785200D01*
X104398574Y-84743160D01*
X104404304Y-84707334D01*
X104416890Y-84669772D01*
X104438568Y-84621577D01*
X104441789Y-84614897D01*
X104467188Y-84565359D01*
X104493996Y-84517369D01*
X104516917Y-84480466D01*
X104521485Y-84473834D01*
X104543516Y-84442593D01*
X104575693Y-84397654D01*
X104616457Y-84341147D01*
X104664245Y-84275204D01*
X104717498Y-84201957D01*
X104774655Y-84123536D01*
X104834155Y-84042072D01*
X104894437Y-83959698D01*
X104953940Y-83878544D01*
X105011105Y-83800742D01*
X105064370Y-83728423D01*
X105112174Y-83663718D01*
X105152957Y-83608759D01*
X105185158Y-83565676D01*
X105207216Y-83536602D01*
X105217571Y-83523667D01*
X105222044Y-83519351D01*
X105226236Y-83517312D01*
X105229643Y-83519926D01*
X105232325Y-83528986D01*
X105234341Y-83546285D01*
X105235748Y-83573614D01*
X105236605Y-83612765D01*
X105236970Y-83665533D01*
X105236903Y-83733707D01*
X105236460Y-83819082D01*
X105235702Y-83923449D01*
X105234685Y-84048600D01*
X105234308Y-84093300D01*
X105233169Y-84214395D01*
X105231972Y-84315688D01*
X105230636Y-84399262D01*
X105229077Y-84467204D01*
X105227215Y-84521599D01*
X105224966Y-84564532D01*
X105222248Y-84598089D01*
X105218979Y-84624355D01*
X105215078Y-84645416D01*
X105210461Y-84663357D01*
X105202192Y-84689770D01*
X105178583Y-84751772D01*
X105152685Y-84804573D01*
X105127535Y-84841645D01*
X105126339Y-84843075D01*
X105124168Y-84847424D01*
X105126328Y-84851026D01*
X105134644Y-84853951D01*
X105150940Y-84856269D01*
X105177041Y-84858051D01*
X105214771Y-84859367D01*
X105265956Y-84860286D01*
X105332420Y-84860878D01*
X105415987Y-84861215D01*
X105518483Y-84861365D01*
X105641732Y-84861400D01*
X106173296Y-84861400D01*
X106134523Y-84803783D01*
X106128432Y-84794893D01*
X106117976Y-84780069D01*
X106108579Y-84766422D01*
X106100183Y-84752765D01*
X106092733Y-84737911D01*
X106086173Y-84720670D01*
X106080446Y-84699855D01*
X106075495Y-84674280D01*
X106071266Y-84642755D01*
X106067701Y-84604093D01*
X106064744Y-84557107D01*
X106062340Y-84500608D01*
X106060431Y-84433409D01*
X106058962Y-84354322D01*
X106057876Y-84262160D01*
X106057118Y-84155734D01*
X106056630Y-84033857D01*
X106056358Y-83895341D01*
X106056243Y-83738999D01*
X106056231Y-83563642D01*
X106056265Y-83368082D01*
X106056289Y-83151133D01*
X106056280Y-83028513D01*
X106056243Y-82823447D01*
X106056227Y-82639116D01*
X106056288Y-82474334D01*
X106056484Y-82327916D01*
X106056870Y-82198674D01*
X106057505Y-82085422D01*
X106058444Y-81986975D01*
X106059745Y-81902144D01*
X106061464Y-81829744D01*
X106063659Y-81768589D01*
X106066385Y-81717492D01*
X106069701Y-81675267D01*
X106073662Y-81640727D01*
X106078325Y-81612686D01*
X106083747Y-81589958D01*
X106089986Y-81571356D01*
X106097097Y-81555693D01*
X106105138Y-81541784D01*
X106114166Y-81528441D01*
X106124236Y-81514479D01*
X106135407Y-81498711D01*
X106175197Y-81440867D01*
X105115314Y-81440867D01*
X105153311Y-81503966D01*
X105167993Y-81529005D01*
X105182531Y-81556586D01*
X105194627Y-81584700D01*
X105204532Y-81615551D01*
X105212494Y-81651344D01*
X105218761Y-81694283D01*
X105223582Y-81746574D01*
X105227206Y-81810419D01*
X105229881Y-81888025D01*
X105231857Y-81981594D01*
X105233382Y-82093333D01*
X105234704Y-82225445D01*
X105235613Y-82345434D01*
X105236020Y-82462063D01*
X105235767Y-82557531D01*
X105234857Y-82631556D01*
X105233293Y-82683855D01*
X105231079Y-82714149D01*
X105228220Y-82722156D01*
X105225161Y-82718858D01*
X105207006Y-82697408D01*
X105177275Y-82660889D01*
X105137639Y-82611442D01*
X105089771Y-82551207D01*
X105035343Y-82482327D01*
X104976027Y-82406943D01*
X104913495Y-82327196D01*
X104849421Y-82245228D01*
X104785475Y-82163180D01*
X104723331Y-82083194D01*
X104664661Y-82007411D01*
X104611137Y-81937973D01*
X104564430Y-81877021D01*
X104526214Y-81826696D01*
X104498161Y-81789140D01*
X104481943Y-81766495D01*
X104436635Y-81694212D01*
X104396661Y-81614463D01*
X104375130Y-81546188D01*
X104371827Y-81488844D01*
X104377116Y-81440867D01*
X103245356Y-81441117D01*
X103284867Y-81471722D01*
X103294248Y-81479089D01*
X103357183Y-81533438D01*
X103425997Y-81601259D01*
X103502596Y-81684516D01*
X103588888Y-81785178D01*
X103606052Y-81805847D01*
X103646833Y-81855409D01*
X103696588Y-81916326D01*
X103753955Y-81986898D01*
X103817569Y-82065424D01*
X103886069Y-82150204D01*
X103958090Y-82239537D01*
X104032270Y-82331722D01*
X104047517Y-82350702D01*
X104107246Y-82425060D01*
X104181653Y-82517848D01*
X104254131Y-82608388D01*
X104323314Y-82694978D01*
X104387841Y-82775918D01*
X104446347Y-82849506D01*
X104497470Y-82914044D01*
X104539847Y-82967829D01*
X104572115Y-83009162D01*
X104592910Y-83036342D01*
X104600869Y-83047668D01*
X104599111Y-83051771D01*
X104586230Y-83072334D01*
X104561885Y-83108561D01*
X104527247Y-83158824D01*
X104483486Y-83221492D01*
X104431775Y-83294936D01*
X104373284Y-83377527D01*
X104309184Y-83467636D01*
X104240646Y-83563631D01*
X104168843Y-83663885D01*
X104094944Y-83766768D01*
X104020121Y-83870650D01*
X103945545Y-83973901D01*
X103872387Y-84074892D01*
X103801819Y-84171994D01*
X103735011Y-84263577D01*
X103673135Y-84348011D01*
X103617361Y-84423667D01*
X103568862Y-84488916D01*
X103528807Y-84542128D01*
X103498369Y-84581673D01*
X103477944Y-84607026D01*
X103431899Y-84661295D01*
X103381612Y-84717775D01*
X103334815Y-84767669D01*
X103243651Y-84861400D01*
X102545445Y-84861400D01*
X102614356Y-84861349D01*
X102712607Y-84861091D01*
X102802030Y-84860637D01*
X102880333Y-84860010D01*
X102945223Y-84859235D01*
X102994411Y-84858335D01*
X103025604Y-84857334D01*
X103036511Y-84856257D01*
X103035322Y-84853037D01*
X103025176Y-84835452D01*
X103008040Y-84809158D01*
X102999540Y-84796691D01*
X102990329Y-84782622D01*
X102982233Y-84768351D01*
X102975185Y-84752479D01*
X102969117Y-84733609D01*
X102963961Y-84710341D01*
X102959651Y-84681278D01*
X102956119Y-84645021D01*
X102953297Y-84600170D01*
X102951118Y-84545328D01*
X102949514Y-84479097D01*
X102948419Y-84400077D01*
X102947765Y-84306871D01*
X102947484Y-84198079D01*
X102947509Y-84072303D01*
X102947772Y-83928145D01*
X102948206Y-83764207D01*
X102948745Y-83579089D01*
X102949279Y-83400232D01*
X102949805Y-83241374D01*
X102950350Y-83102316D01*
X102950945Y-82981665D01*
X102951619Y-82878028D01*
X102952403Y-82790011D01*
X102953326Y-82716223D01*
X102954419Y-82655269D01*
X102955712Y-82605757D01*
X102957235Y-82566293D01*
X102959019Y-82535484D01*
X102961092Y-82511938D01*
X102963486Y-82494260D01*
X102966230Y-82481059D01*
X102969356Y-82470940D01*
X102972892Y-82462511D01*
X102976791Y-82454375D01*
X102996438Y-82417544D01*
X103015225Y-82387391D01*
X103016272Y-82385908D01*
X103030602Y-82363659D01*
X103036511Y-82350702D01*
X103035504Y-82350249D01*
X103018305Y-82348803D01*
X102981656Y-82347480D01*
X102927962Y-82346316D01*
X102859630Y-82345347D01*
X102779064Y-82344611D01*
X102688670Y-82344142D01*
X102590853Y-82343978D01*
X102145195Y-82343978D01*
X102142120Y-83520845D01*
X102139045Y-84697711D01*
X102112407Y-84756622D01*
X102100485Y-84781183D01*
X102083246Y-84811434D01*
X102070074Y-84828560D01*
X102062076Y-84836591D01*
X102054378Y-84851493D01*
X101762942Y-84851493D01*
X101762474Y-84759029D01*
X101762050Y-84643617D01*
X101761706Y-84513160D01*
X101761434Y-84366716D01*
X101761227Y-84203344D01*
X101761076Y-84022101D01*
X101760972Y-83822048D01*
X101760908Y-83602241D01*
X101760876Y-83361739D01*
X101760867Y-83099602D01*
X101760867Y-80908031D01*
X101799249Y-80869649D01*
X101826355Y-80845911D01*
X101853253Y-80834111D01*
X101889560Y-80831267D01*
X101941489Y-80831267D01*
X101941489Y-80919206D01*
X101943427Y-80969102D01*
X101962199Y-81079523D01*
X101999217Y-81180987D01*
X102052369Y-81272152D01*
X102119546Y-81351673D01*
X102198638Y-81418205D01*
X102287534Y-81470406D01*
X102384125Y-81506930D01*
X102486300Y-81526434D01*
X102591950Y-81527573D01*
X102698964Y-81509005D01*
X102805232Y-81469384D01*
X102902219Y-81411516D01*
X102987293Y-81336684D01*
X103056015Y-81248615D01*
X103106918Y-81149616D01*
X103138535Y-81041993D01*
X103149400Y-80928054D01*
X103149400Y-80831267D01*
X104769753Y-80831267D01*
X104980897Y-80831280D01*
X105185020Y-80831330D01*
X105368686Y-80831430D01*
X105532991Y-80831592D01*
X105679029Y-80831829D01*
X105807894Y-80832153D01*
X105920683Y-80832575D01*
X106018488Y-80833109D01*
X106102404Y-80833767D01*
X106173527Y-80834561D01*
X106232950Y-80835504D01*
X106281768Y-80836608D01*
X106321077Y-80837884D01*
X106351969Y-80839347D01*
X106375541Y-80841007D01*
X106392886Y-80842878D01*
X106405099Y-80844972D01*
X106413275Y-80847300D01*
X106418508Y-80849876D01*
X106424504Y-80853445D01*
X106431279Y-80856978D01*
X106437478Y-80860488D01*
X106443126Y-80864918D01*
X106448247Y-80871208D01*
X106452869Y-80880301D01*
X106457015Y-80893139D01*
X106460713Y-80910662D01*
X106463987Y-80933813D01*
X106466863Y-80963534D01*
X106469367Y-81000765D01*
X106471524Y-81046449D01*
X106473360Y-81101527D01*
X106474900Y-81166941D01*
X106476170Y-81243633D01*
X106477195Y-81332544D01*
X106478001Y-81434617D01*
X106478034Y-81440867D01*
X106478614Y-81550792D01*
G37*
%TD*%
M02*
