%TF.GenerationSoftware,KiCad,Pcbnew,8.0.8*%
%TF.CreationDate,2025-07-02T03:07:20+05:30*%
%TF.ProjectId,breadboard power supply,62726561-6462-46f6-9172-6420706f7765,rev?*%
%TF.SameCoordinates,Original*%
%TF.FileFunction,Copper,L1,Top*%
%TF.FilePolarity,Positive*%
%FSLAX46Y46*%
G04 Gerber Fmt 4.6, Leading zero omitted, Abs format (unit mm)*
G04 Created by KiCad (PCBNEW 8.0.8) date 2025-07-02 03:07:20*
%MOMM*%
%LPD*%
G01*
G04 APERTURE LIST*
G04 Aperture macros list*
%AMRoundRect*
0 Rectangle with rounded corners*
0 $1 Rounding radius*
0 $2 $3 $4 $5 $6 $7 $8 $9 X,Y pos of 4 corners*
0 Add a 4 corners polygon primitive as box body*
4,1,4,$2,$3,$4,$5,$6,$7,$8,$9,$2,$3,0*
0 Add four circle primitives for the rounded corners*
1,1,$1+$1,$2,$3*
1,1,$1+$1,$4,$5*
1,1,$1+$1,$6,$7*
1,1,$1+$1,$8,$9*
0 Add four rect primitives between the rounded corners*
20,1,$1+$1,$2,$3,$4,$5,0*
20,1,$1+$1,$4,$5,$6,$7,0*
20,1,$1+$1,$6,$7,$8,$9,0*
20,1,$1+$1,$8,$9,$2,$3,0*%
G04 Aperture macros list end*
%TA.AperFunction,ComponentPad*%
%ADD10C,1.600000*%
%TD*%
%TA.AperFunction,ComponentPad*%
%ADD11O,1.400000X1.400000*%
%TD*%
%TA.AperFunction,ComponentPad*%
%ADD12C,1.400000*%
%TD*%
%TA.AperFunction,ComponentPad*%
%ADD13C,1.397000*%
%TD*%
%TA.AperFunction,ComponentPad*%
%ADD14R,1.700000X1.700000*%
%TD*%
%TA.AperFunction,ComponentPad*%
%ADD15O,1.700000X1.700000*%
%TD*%
%TA.AperFunction,ComponentPad*%
%ADD16R,3.000000X3.000000*%
%TD*%
%TA.AperFunction,ComponentPad*%
%ADD17C,3.000000*%
%TD*%
%TA.AperFunction,ComponentPad*%
%ADD18O,1.905000X2.000000*%
%TD*%
%TA.AperFunction,ComponentPad*%
%ADD19R,1.905000X2.000000*%
%TD*%
%TA.AperFunction,ComponentPad*%
%ADD20C,1.800000*%
%TD*%
%TA.AperFunction,ComponentPad*%
%ADD21R,1.800000X1.800000*%
%TD*%
%TA.AperFunction,ComponentPad*%
%ADD22R,3.500000X3.500000*%
%TD*%
%TA.AperFunction,ComponentPad*%
%ADD23RoundRect,0.750000X-0.750000X-1.000000X0.750000X-1.000000X0.750000X1.000000X-0.750000X1.000000X0*%
%TD*%
%TA.AperFunction,ComponentPad*%
%ADD24RoundRect,0.875000X-0.875000X-0.875000X0.875000X-0.875000X0.875000X0.875000X-0.875000X0.875000X0*%
%TD*%
%TA.AperFunction,ViaPad*%
%ADD25C,0.700000*%
%TD*%
%TA.AperFunction,ViaPad*%
%ADD26C,0.500000*%
%TD*%
%TA.AperFunction,Conductor*%
%ADD27C,0.200000*%
%TD*%
%TA.AperFunction,Conductor*%
%ADD28C,0.350000*%
%TD*%
G04 APERTURE END LIST*
D10*
%TO.P,C3,2*%
%TO.N,GND*%
X54650000Y-70485000D03*
%TO.P,C3,1*%
%TO.N,/5v*%
X57150000Y-70485000D03*
%TD*%
D11*
%TO.P,R1,2*%
%TO.N,Net-(D1-A)*%
X74168000Y-74930000D03*
D12*
%TO.P,R1,1*%
%TO.N,/12v*%
X66548000Y-74930000D03*
%TD*%
D13*
%TO.P,S1,3,3*%
%TO.N,unconnected-(SW2-Pad3)*%
X67125900Y-70485000D03*
%TO.P,S1,2,2*%
%TO.N,/PWR_INPUT*%
X69625900Y-70485000D03*
%TO.P,S1,1,1*%
%TO.N,/12v*%
X72125900Y-70485000D03*
%TD*%
D14*
%TO.P,J4,1,Pin_1*%
%TO.N,GND*%
X80010000Y-61595000D03*
D15*
%TO.P,J4,2,Pin_2*%
%TO.N,/PWR_OUTPUT*%
X80010000Y-64135000D03*
%TD*%
D16*
%TO.P,J5,1,Pin_1*%
%TO.N,GND*%
X67945000Y-106680000D03*
D17*
%TO.P,J5,2,Pin_2*%
%TO.N,/PWR_OUTPUT*%
X73025000Y-106680000D03*
%TD*%
D18*
%TO.P,U2,3,VI*%
%TO.N,/12v*%
X55880000Y-74930000D03*
%TO.P,U2,2,VO*%
%TO.N,/5v*%
X58420000Y-74930000D03*
D19*
%TO.P,U2,1,ADJ*%
%TO.N,GND*%
X60960000Y-74930000D03*
%TD*%
D20*
%TO.P,D1,2,A*%
%TO.N,Net-(D1-A)*%
X72525000Y-80645000D03*
D21*
%TO.P,D1,1,K*%
%TO.N,GND*%
X72525000Y-83185000D03*
%TD*%
D22*
%TO.P,J8,1*%
%TO.N,/PWR_INPUT*%
X66960000Y-83820000D03*
D23*
%TO.P,J8,2*%
%TO.N,GND*%
X60960000Y-83820000D03*
D24*
%TO.P,J8,3*%
X63960000Y-88520000D03*
%TD*%
D15*
%TO.P,J3,3,Pin_3*%
%TO.N,/5v*%
X62245000Y-61595000D03*
%TO.P,J3,2,Pin_2*%
%TO.N,/PWR_OUTPUT*%
X59705000Y-61595000D03*
D14*
%TO.P,J3,1,Pin_1*%
%TO.N,/3.3v*%
X57165000Y-61595000D03*
%TD*%
D10*
%TO.P,C2,2*%
%TO.N,GND*%
X56555000Y-99695000D03*
%TO.P,C2,1*%
%TO.N,/3.3v*%
X59055000Y-99695000D03*
%TD*%
D18*
%TO.P,U1,3,VI*%
%TO.N,/12v*%
X62865000Y-95560000D03*
%TO.P,U1,2,VO*%
%TO.N,/3.3v*%
X60325000Y-95560000D03*
D19*
%TO.P,U1,1,GND*%
%TO.N,Net-(U1-GND)*%
X57785000Y-95560000D03*
%TD*%
D17*
%TO.P,J2,2,Pin_2*%
%TO.N,/PWR_OUTPUT*%
X73025000Y-63795000D03*
D16*
%TO.P,J2,1,Pin_1*%
%TO.N,GND*%
X67945000Y-63795000D03*
%TD*%
D11*
%TO.P,R2,2*%
%TO.N,Net-(U1-GND)*%
X74422000Y-97790000D03*
D12*
%TO.P,R2,1*%
%TO.N,/3.3v*%
X66802000Y-97790000D03*
%TD*%
D15*
%TO.P,J6,2,Pin_2*%
%TO.N,/PWR_OUTPUT*%
X80010000Y-108870000D03*
D14*
%TO.P,J6,1,Pin_1*%
%TO.N,GND*%
X80010000Y-106330000D03*
%TD*%
D10*
%TO.P,C1,2*%
%TO.N,/12v*%
X62210000Y-70485000D03*
%TO.P,C1,1*%
%TO.N,GND*%
X59710000Y-70485000D03*
%TD*%
D14*
%TO.P,J7,1,Pin_1*%
%TO.N,/3.3v*%
X57165000Y-108585000D03*
D15*
%TO.P,J7,2,Pin_2*%
%TO.N,/PWR_OUTPUT*%
X59705000Y-108585000D03*
%TO.P,J7,3,Pin_3*%
%TO.N,/5v*%
X62245000Y-108585000D03*
%TD*%
D11*
%TO.P,R3,2*%
%TO.N,GND*%
X74422000Y-94615000D03*
D12*
%TO.P,R3,1*%
%TO.N,Net-(U1-GND)*%
X66802000Y-94615000D03*
%TD*%
D25*
%TO.N,Net-(U1-GND)*%
X59436000Y-97536000D03*
D26*
%TO.N,/12v*%
X68072000Y-73660000D03*
X60452000Y-72136000D03*
%TO.N,/3.3v*%
X56388000Y-64008000D03*
%TD*%
D27*
%TO.N,Net-(U1-GND)*%
X59436000Y-97211000D02*
X59436000Y-97536000D01*
X57785000Y-95560000D02*
X59436000Y-97211000D01*
D28*
%TO.N,/12v*%
X58166000Y-88900000D02*
X58166000Y-83202298D01*
X58166000Y-83202298D02*
X66438298Y-74930000D01*
X62865000Y-93599000D02*
X58166000Y-88900000D01*
X62865000Y-95560000D02*
X62865000Y-93599000D01*
X66438298Y-74930000D02*
X66548000Y-74930000D01*
X55880000Y-88575000D02*
X55880000Y-74930000D01*
X62865000Y-95560000D02*
X55880000Y-88575000D01*
X66802000Y-74930000D02*
X68072000Y-73660000D01*
X66548000Y-74930000D02*
X66802000Y-74930000D01*
%TO.N,/PWR_OUTPUT*%
X71100000Y-104755000D02*
X63535000Y-104755000D01*
X73025000Y-106680000D02*
X71100000Y-104755000D01*
X63535000Y-104755000D02*
X59705000Y-108585000D01*
X75215000Y-108870000D02*
X80010000Y-108870000D01*
X73025000Y-106680000D02*
X75215000Y-108870000D01*
X75547000Y-104158000D02*
X73025000Y-106680000D01*
X75547000Y-66317000D02*
X75547000Y-104158000D01*
X73025000Y-63795000D02*
X75547000Y-66317000D01*
%TO.N,/3.3v*%
X66802000Y-97790000D02*
X62555000Y-97790000D01*
D27*
%TO.N,Net-(U1-GND)*%
X67165000Y-94615000D02*
X66802000Y-94615000D01*
X69290000Y-96740000D02*
X67165000Y-94615000D01*
X74422000Y-97790000D02*
X73372000Y-96740000D01*
X73372000Y-96740000D02*
X69290000Y-96740000D01*
D28*
%TO.N,/12v*%
X65532000Y-74930000D02*
X66548000Y-74930000D01*
X62190000Y-71588000D02*
X65532000Y-74930000D01*
D27*
%TO.N,Net-(D1-A)*%
X74168000Y-74930000D02*
X74785000Y-75547000D01*
X74785000Y-75547000D02*
X74785000Y-78385000D01*
X74785000Y-78385000D02*
X72525000Y-80645000D01*
D28*
%TO.N,/12v*%
X62190000Y-70485000D02*
X62190000Y-71588000D01*
%TO.N,/PWR_OUTPUT*%
X73025000Y-63881000D02*
X73406000Y-64262000D01*
X73025000Y-63795000D02*
X73025000Y-63881000D01*
X60980000Y-60320000D02*
X59705000Y-61595000D01*
X69550000Y-60320000D02*
X60980000Y-60320000D01*
X73025000Y-63795000D02*
X69550000Y-60320000D01*
X79670000Y-63795000D02*
X80010000Y-64135000D01*
X73025000Y-63795000D02*
X79670000Y-63795000D01*
%TO.N,/5v*%
X54356000Y-73239000D02*
X57110000Y-70485000D01*
X54356000Y-108326000D02*
X54356000Y-73239000D01*
X55890000Y-109860000D02*
X54356000Y-108326000D01*
X60970000Y-109860000D02*
X55890000Y-109860000D01*
X62245000Y-108585000D02*
X60970000Y-109860000D01*
%TO.N,/3.3v*%
X60650000Y-99695000D02*
X62555000Y-97790000D01*
X59055000Y-99695000D02*
X60650000Y-99695000D01*
X59055000Y-106695000D02*
X57165000Y-108585000D01*
X59055000Y-99695000D02*
X59055000Y-106695000D01*
X62555000Y-97790000D02*
X60325000Y-95560000D01*
%TO.N,/PWR_INPUT*%
X69625900Y-81154100D02*
X66960000Y-83820000D01*
X69625900Y-70485000D02*
X69625900Y-81154100D01*
%TO.N,/5v*%
X57110000Y-66730000D02*
X57110000Y-70485000D01*
X62245000Y-61595000D02*
X57110000Y-66730000D01*
X58420000Y-74930000D02*
X58420000Y-71755000D01*
X58420000Y-71755000D02*
X57150000Y-70485000D01*
%TO.N,/3.3v*%
X57165000Y-61595000D02*
X57165000Y-63231000D01*
X57165000Y-63231000D02*
X56388000Y-64008000D01*
%TO.N,/12v*%
X62103000Y-70485000D02*
X60452000Y-72136000D01*
X62210000Y-70485000D02*
X62103000Y-70485000D01*
%TD*%
M02*
