%TF.GenerationSoftware,KiCad,Pcbnew,8.0.8*%
%TF.CreationDate,2025-07-02T03:07:20+05:30*%
%TF.ProjectId,breadboard power supply,62726561-6462-46f6-9172-6420706f7765,rev?*%
%TF.SameCoordinates,Original*%
%TF.FileFunction,Profile,NP*%
%FSLAX46Y46*%
G04 Gerber Fmt 4.6, Leading zero omitted, Abs format (unit mm)*
G04 Created by KiCad (PCBNEW 8.0.8) date 2025-07-02 03:07:20*
%MOMM*%
%LPD*%
G01*
G04 APERTURE LIST*
%TA.AperFunction,Profile*%
%ADD10C,0.050000*%
%TD*%
G04 APERTURE END LIST*
D10*
X76454000Y-103378000D02*
X76454000Y-103505000D01*
X77216000Y-104140000D02*
X77089000Y-104140000D01*
X77089000Y-104140000D02*
G75*
G02*
X76454000Y-103505000I0J635000D01*
G01*
X76454000Y-66929000D02*
X76454000Y-67056000D01*
X76454000Y-66929000D02*
G75*
G02*
X76962000Y-66421000I508000J0D01*
G01*
X52832000Y-110744000D02*
X52832000Y-110871000D01*
X53086000Y-111125000D02*
G75*
G02*
X52832000Y-110871000I0J254000D01*
G01*
X53340000Y-59563000D02*
X53213000Y-59563000D01*
X52832000Y-59944000D02*
G75*
G02*
X53213000Y-59563000I381000J0D01*
G01*
X82804000Y-110490000D02*
X82804000Y-110617000D01*
X82804000Y-110617000D02*
G75*
G02*
X82296000Y-111125000I-508000J0D01*
G01*
X82296000Y-104140000D02*
G75*
G02*
X82804000Y-104648000I0J-508000D01*
G01*
X82296000Y-66421000D02*
X82423000Y-66421000D01*
X82804000Y-66040000D02*
G75*
G02*
X82423000Y-66421000I-381000J0D01*
G01*
X82042000Y-59563000D02*
X82169000Y-59563000D01*
X82169000Y-59563000D02*
G75*
G02*
X82804000Y-60198000I0J-635000D01*
G01*
X82804000Y-66040000D02*
X82804000Y-60198000D01*
X76962000Y-66421000D02*
X82296000Y-66421000D01*
X76454000Y-103378000D02*
X76454000Y-67056000D01*
X82296000Y-104140000D02*
X77216000Y-104140000D01*
X82804000Y-110490000D02*
X82804000Y-104648000D01*
X53086000Y-111125000D02*
X82296000Y-111125000D01*
X52832000Y-59944000D02*
X52832000Y-110744000D01*
X82042000Y-59563000D02*
X53340000Y-59563000D01*
M02*
