M48
; DRILL file {KiCad 8.0.8} date 2025-07-02T03:08:11+0530
; FORMAT={-:-/ absolute / inch / decimal}
; #@! TF.CreationDate,2025-07-02T03:08:11+05:30
; #@! TF.GenerationSoftware,Kicad,Pcbnew,8.0.8
; #@! TF.FileFunction,Plated,1,2,PTH
FMAT,2
INCH
; #@! TA.AperFunction,Plated,PTH,ViaDrill
T1C0.0118
; #@! TA.AperFunction,Plated,PTH,ComponentDrill
T2C0.0276
; #@! TA.AperFunction,Plated,PTH,ComponentDrill
T3C0.0315
; #@! TA.AperFunction,Plated,PTH,ComponentDrill
T4C0.0350
; #@! TA.AperFunction,Plated,PTH,ComponentDrill
T5C0.0354
; #@! TA.AperFunction,Plated,PTH,ComponentDrill
T6C0.0394
; #@! TA.AperFunction,Plated,PTH,ComponentDrill
T7C0.0433
; #@! TA.AperFunction,Plated,PTH,ComponentDrill
T8C0.0598
%
G90
G05
T1
X2.22Y-2.52
X2.34Y-3.84
X2.38Y-2.84
X2.68Y-2.9
T2
X2.62Y-2.95
X2.63Y-3.725
X2.63Y-3.85
X2.92Y-2.95
X2.93Y-3.725
X2.93Y-3.85
T3
X2.1516Y-2.775
X2.2266Y-3.925
X2.25Y-2.775
X2.325Y-3.925
X2.3508Y-2.775
X2.4492Y-2.775
T4
X2.6428Y-2.775
X2.7412Y-2.775
X2.8396Y-2.775
T5
X2.8553Y-3.175
X2.8553Y-3.275
T6
X2.2506Y-2.425
X2.2506Y-4.275
X2.3506Y-2.425
X2.3506Y-4.275
X2.4506Y-2.425
X2.4506Y-4.275
X3.15Y-2.425
X3.15Y-2.525
X3.15Y-4.1862
X3.15Y-4.2862
T7
X2.2Y-2.95
X2.275Y-3.7622
X2.3Y-2.95
X2.375Y-3.7622
X2.4Y-2.95
X2.475Y-3.7622
T8
X2.675Y-2.5116
X2.675Y-4.2
X2.875Y-2.5116
X2.875Y-4.2
T6
G00X2.4Y-3.2606
M15
G01X2.4Y-3.3394
M16
G05
G00X2.4787Y-3.485
M15
G01X2.5575Y-3.485
M16
G05
G00X2.6362Y-3.2606
M15
G01X2.6362Y-3.3394
M16
G05
M30
