%TF.GenerationSoftware,KiCad,Pcbnew,8.0.8*%
%TF.CreationDate,2025-07-02T03:07:20+05:30*%
%TF.ProjectId,breadboard power supply,62726561-6462-46f6-9172-6420706f7765,rev?*%
%TF.SameCoordinates,Original*%
%TF.FileFunction,Soldermask,Top*%
%TF.FilePolarity,Negative*%
%FSLAX46Y46*%
G04 Gerber Fmt 4.6, Leading zero omitted, Abs format (unit mm)*
G04 Created by KiCad (PCBNEW 8.0.8) date 2025-07-02 03:07:20*
%MOMM*%
%LPD*%
G01*
G04 APERTURE LIST*
G04 Aperture macros list*
%AMRoundRect*
0 Rectangle with rounded corners*
0 $1 Rounding radius*
0 $2 $3 $4 $5 $6 $7 $8 $9 X,Y pos of 4 corners*
0 Add a 4 corners polygon primitive as box body*
4,1,4,$2,$3,$4,$5,$6,$7,$8,$9,$2,$3,0*
0 Add four circle primitives for the rounded corners*
1,1,$1+$1,$2,$3*
1,1,$1+$1,$4,$5*
1,1,$1+$1,$6,$7*
1,1,$1+$1,$8,$9*
0 Add four rect primitives between the rounded corners*
20,1,$1+$1,$2,$3,$4,$5,0*
20,1,$1+$1,$4,$5,$6,$7,0*
20,1,$1+$1,$6,$7,$8,$9,0*
20,1,$1+$1,$8,$9,$2,$3,0*%
G04 Aperture macros list end*
%ADD10C,1.600000*%
%ADD11O,1.400000X1.400000*%
%ADD12C,1.400000*%
%ADD13C,1.397000*%
%ADD14R,1.700000X1.700000*%
%ADD15O,1.700000X1.700000*%
%ADD16R,3.000000X3.000000*%
%ADD17C,3.000000*%
%ADD18O,1.905000X2.000000*%
%ADD19R,1.905000X2.000000*%
%ADD20C,1.800000*%
%ADD21R,1.800000X1.800000*%
%ADD22R,3.500000X3.500000*%
%ADD23RoundRect,0.750000X-0.750000X-1.000000X0.750000X-1.000000X0.750000X1.000000X-0.750000X1.000000X0*%
%ADD24RoundRect,0.875000X-0.875000X-0.875000X0.875000X-0.875000X0.875000X0.875000X-0.875000X0.875000X0*%
G04 APERTURE END LIST*
D10*
%TO.C,C3*%
X54650000Y-70485000D03*
X57150000Y-70485000D03*
%TD*%
D11*
%TO.C,R1*%
X74168000Y-74930000D03*
D12*
X66548000Y-74930000D03*
%TD*%
D13*
%TO.C,S1*%
X67125900Y-70485000D03*
X69625900Y-70485000D03*
X72125900Y-70485000D03*
%TD*%
D14*
%TO.C,J4*%
X80010000Y-61595000D03*
D15*
X80010000Y-64135000D03*
%TD*%
D16*
%TO.C,J5*%
X67945000Y-106680000D03*
D17*
X73025000Y-106680000D03*
%TD*%
D18*
%TO.C,U2*%
X55880000Y-74930000D03*
X58420000Y-74930000D03*
D19*
X60960000Y-74930000D03*
%TD*%
D20*
%TO.C,D1*%
X72525000Y-80645000D03*
D21*
X72525000Y-83185000D03*
%TD*%
D22*
%TO.C,J8*%
X66960000Y-83820000D03*
D23*
X60960000Y-83820000D03*
D24*
X63960000Y-88520000D03*
%TD*%
D15*
%TO.C,J3*%
X62245000Y-61595000D03*
X59705000Y-61595000D03*
D14*
X57165000Y-61595000D03*
%TD*%
D10*
%TO.C,C2*%
X56555000Y-99695000D03*
X59055000Y-99695000D03*
%TD*%
D18*
%TO.C,U1*%
X62865000Y-95560000D03*
X60325000Y-95560000D03*
D19*
X57785000Y-95560000D03*
%TD*%
D17*
%TO.C,J2*%
X73025000Y-63795000D03*
D16*
X67945000Y-63795000D03*
%TD*%
D11*
%TO.C,R2*%
X74422000Y-97790000D03*
D12*
X66802000Y-97790000D03*
%TD*%
D15*
%TO.C,J6*%
X80010000Y-108870000D03*
D14*
X80010000Y-106330000D03*
%TD*%
D10*
%TO.C,C1*%
X62210000Y-70485000D03*
X59710000Y-70485000D03*
%TD*%
D14*
%TO.C,J7*%
X57165000Y-108585000D03*
D15*
X59705000Y-108585000D03*
X62245000Y-108585000D03*
%TD*%
D11*
%TO.C,R3*%
X74422000Y-94615000D03*
D12*
X66802000Y-94615000D03*
%TD*%
M02*
